<?xml version="1.0" encoding="utf-8"?>
<!-- Generator: Adobe Illustrator 26.0.2, SVG Export Plug-In . SVG Version: 6.00 Build 0)  -->
<svg version="1.1" id="Layer_1" xmlns="http://www.w3.org/2000/svg" xmlns:xlink="http://www.w3.org/1999/xlink" x="0px" y="0px"
	 viewBox="0 0 201 201" style="enable-background:new 0 0 201 201;" xml:space="preserve">
<style type="text/css">
	.st0{fill:#010101;}
</style>
<g>
	<g>
		<g>
			<g id="_x37__00000062878788583580881010000009694660445115212974_">
				<g>
					<path class="st0" d="M100.5,136.9L75,108.8c-2.5-2.5-6.6-2.5-9.1,0c-2.5,2.5-2.5,6.6,0,9.1l29.6,32.6c1.4,1.4,3.2,2,5,1.9
						c1.8,0.1,3.6-0.5,5-1.9l29.6-32.6c2.5-2.5,2.5-6.6,0-9.1c-2.5-2.5-6.6-2.5-9.1,0L100.5,136.9z"/>
				</g>
			</g>
		</g>
	</g>
	<g>
		<g>
			<g id="_x37__00000142164293848237820540000006456954848483892916_">
				<g>
					<path class="st0" d="M100.5,64.1l25.5,28.1c2.5,2.5,6.6,2.5,9.1,0c2.5-2.5,2.5-6.6,0-9.1l-29.6-32.6c-1.4-1.4-3.2-2-5-1.9
						c-1.8-0.1-3.6,0.5-5,1.9L65.9,83c-2.5,2.5-2.5,6.6,0,9.1c2.5,2.5,6.6,2.5,9.1,0L100.5,64.1z"/>
				</g>
			</g>
		</g>
	</g>
</g>
</svg>
