<?xml version="1.0" encoding="utf-8"?>
<!-- Generator: Adobe Illustrator 25.2.0, SVG Export Plug-In . SVG Version: 6.00 Build 0)  -->
<svg version="1.1" xmlns="http://www.w3.org/2000/svg" xmlns:xlink="http://www.w3.org/1999/xlink" x="0px" y="0px"
	 viewBox="0 0 1600 1200" style="enable-background:new 0 0 1600 1200;" xml:space="preserve">
<style type="text/css">
	.st0{fill:#D7ECFF;}
	.st1{fill:none;stroke:#4D7199;stroke-width:13;stroke-linecap:round;stroke-linejoin:round;stroke-miterlimit:10;}
	.st2{fill:#4D7199;}
	.st3{fill:#94CBED;}
	.st4{fill:none;stroke:#94CBED;stroke-width:5;stroke-linecap:round;stroke-miterlimit:10;}
	.st5{fill:none;stroke:#94CBED;stroke-width:5;stroke-linecap:round;stroke-linejoin:round;stroke-miterlimit:10;}
	.st6{fill:#5D8BB5;}
	.st7{font-family:'MyriadPro-Regular';}
	.st8{font-size:47.9788px;}
	.st9{fill:none;stroke:#7898B5;stroke-width:3;stroke-linecap:round;stroke-miterlimit:10;}
	.st10{fill:#7898B5;}
	.st11{fill:#FFAD9F;}
	.st12{fill:none;stroke:#1D1D1B;stroke-width:3;stroke-linecap:round;stroke-linejoin:round;stroke-miterlimit:10;}
	.st13{fill:#AA4437;}
	.st14{fill:none;stroke:#AA4437;stroke-linecap:round;stroke-miterlimit:10;}
	.st15{fill:#F9D5A7;}
	.st16{fill:#CEA980;}
</style>
<g id="BACKGROUND">
	<path class="st0" d="M1322.27,1013.89c-178.22,80.63-307.19,111.55-394.31,121.5l17.42-260.55c0,0,117.05,111.47,140.54,106.25
		c23.49-5.22,124.51-163.28,126-166.63c0.14-0.33-0.03-0.88-0.48-1.6c-3.69-5.92-25.35-23.52-32.27-26.68l-0.01-0.01
		c-0.93-0.43-1.59-0.58-1.91-0.43c-2.98,1.49-99.16,121.9-101.76,121.53c-2.61-0.37-110.72-116.31-125.25-123.76
		c-12.82-6.57-66.47-35.15-85.66-42.85c-10.58,10.6-20.04,13.72-27.4,12.79c-19.71-2.51-22.11-19.12-22.11-19.12
		c-29.18-3.69-186.18-23.72-211.18-30.81c-27.58-7.83-161.39-149.19-168.47-150.31c-0.57-0.09-1.34-0.01-2.26,0.22
		c-6.44,1.55-20.67,10.18-30.89,18c-6.56,5.02-11.45,9.69-11.59,11.97c-0.37,6.34,147.59,165.61,179.66,179.39
		c32.06,13.8,153.41,52.04,154.26,55.39c0.84,3.35-39.42,299.34-37.55,312.03c0.03,0.25,0.16,0.5,0.38,0.74
		c-133.87-15.01-370.32-77.78-463.94-239.52c-43.62-58.9-20.08-223.11,209.71-451.25c70.43-72.13-18.48-238.21,219.73-273.44
		c238.21-35.23,435.31-36.91,559.03,213.04c43.2,83.51,175.72,83.42,182.44,230.43C1401.12,757.23,1446.83,957.54,1322.27,1013.89z"
		/>
</g>
<g id="ARROW_2">
	<g>
		<polyline class="st1" points="1114.47,196.6 1237.19,196.6 1237.19,442.29 		"/>
		<line class="st1" x1="1259.97" y1="426.1" x2="1237.19" y2="442.29"/>
		<line class="st1" x1="1237.19" y1="442.29" x2="1214.4" y2="426.1"/>
	</g>
</g>
<g id="ARROW_1">
	<g>
		<polyline class="st1" points="726.99,203.73 603.73,203.73 603.73,385.11 525.1,385.11 		"/>
		<line class="st1" x1="711.29" y1="180.95" x2="727.48" y2="203.73"/>
		<line class="st1" x1="727.48" y1="203.73" x2="711.29" y2="226.52"/>
	</g>
</g>
<g id="DIAGRAM_2">
	<g>
		<path class="st2" d="M1364.52,699.05h-258.25c-16.38,0-29.67-13.28-29.67-29.67V486.5c0-16.38,13.28-29.67,29.67-29.67h258.25
			c16.38,0,29.67,13.28,29.67,29.67v182.88C1394.19,685.77,1380.91,699.05,1364.52,699.05z"/>
		<g>
			<path class="st3" d="M1163.42,665.64h-10.15c-5.81,0-10.52-4.71-10.52-10.52v-51.97c0-5.81,4.71-10.52,10.52-10.52h10.15
				c5.81,0,10.52,4.71,10.52,10.52v51.97C1173.94,660.93,1169.23,665.64,1163.42,665.64z"/>
			<path class="st3" d="M1216.75,665.64h-9.21c-5.81,0-10.52-4.71-10.52-10.52v-75.39c0-5.81,4.71-10.52,10.52-10.52h9.21
				c5.81,0,10.52,4.71,10.52,10.52v75.39C1227.27,660.93,1222.56,665.64,1216.75,665.64z"/>
			<path class="st3" d="M1268.03,666.09h-7.84c-5.81,0-10.52-4.71-10.52-10.52v-103.1c0-5.81,4.71-10.52,10.52-10.52h7.84
				c5.81,0,10.52,4.71,10.52,10.52v103.1C1278.55,661.38,1273.84,666.09,1268.03,666.09z"/>
			<path class="st3" d="M1319.65,666.09h-6.82c-5.81,0-10.52-4.71-10.52-10.52V528.45c0-5.81,4.71-10.52,10.52-10.52h6.82
				c5.81,0,10.52,4.71,10.52,10.52v127.13C1330.17,661.38,1325.46,666.09,1319.65,666.09z"/>
			<polyline class="st4" points="1115.67,499.38 1115.67,676.79 1355.12,676.79 			"/>
			<g>
				<line class="st4" x1="1145.76" y1="555.78" x2="1293.93" y2="495.62"/>
				<polyline class="st5" points="1284.4,514.36 1295.26,494.68 1271.33,491.26 				"/>
			</g>
		</g>
	</g>
</g>
<g id="DIAGRAM_1">
	<g>
		<path class="st2" d="M1058.23,300.8H799.98c-16.38,0-29.67-13.28-29.67-29.67V88.25c0-16.38,13.28-29.67,29.67-29.67h258.25
			c16.38,0,29.67,13.28,29.67,29.67v182.88C1087.9,287.52,1074.61,300.8,1058.23,300.8z"/>
		<g>
			<path class="st0" d="M1057.8,139.71h-87.49c-2.04,0-3.7-1.66-3.7-3.7v-0.7c0-2.04,1.66-3.7,3.7-3.7h87.49
				c2.04,0,3.7,1.66,3.7,3.7v0.7C1061.5,138.05,1059.84,139.71,1057.8,139.71z"/>
			<path class="st0" d="M1057.8,163.75h-87.49c-2.04,0-3.7-1.66-3.7-3.7v-0.7c0-2.04,1.66-3.7,3.7-3.7h87.49
				c2.04,0,3.7,1.66,3.7,3.7v0.7C1061.5,162.09,1059.84,163.75,1057.8,163.75z"/>
			<path class="st0" d="M1057.8,187.8h-87.49c-2.04,0-3.7-1.66-3.7-3.7v-0.7c0-2.04,1.66-3.7,3.7-3.7h87.49c2.04,0,3.7,1.66,3.7,3.7
				v0.7C1061.5,186.14,1059.84,187.8,1057.8,187.8z"/>
			<path class="st0" d="M1058.92,211.84h-87.49c-2.04,0-3.7-1.66-3.7-3.7v-0.7c0-2.04,1.66-3.7,3.7-3.7h87.49
				c2.04,0,3.7,1.66,3.7,3.7v0.7C1062.62,210.18,1060.96,211.84,1058.92,211.84z"/>
			<path class="st0" d="M1057.8,235.89h-87.49c-2.04,0-3.7-1.66-3.7-3.7v-0.7c0-2.04,1.66-3.7,3.7-3.7h87.49
				c2.04,0,3.7,1.66,3.7,3.7v0.7C1061.5,234.23,1059.84,235.89,1057.8,235.89z"/>
		</g>
		<g>
			<path class="st6" d="M949.7,178.83c0,3.12-0.19,6.19-0.56,9.21h-76.5l-38.57,57.5c-23.02-13.32-38.49-38.21-38.49-66.71
				c0-42.56,34.5-77.06,77.06-77.06C915.2,101.77,949.7,136.27,949.7,178.83z"/>
			<path class="st0" d="M949.7,178.83c0,3.12-0.19,6.19-0.56,9.21h-76.5v-86.27C915.2,101.77,949.7,136.27,949.7,178.83z"/>
			<path class="st3" d="M949.15,188.05c-0.06,0.61-0.14,1.21-0.23,1.81c-5.35,37.34-37.47,66.03-76.27,66.03
				c-14.05,0-27.23-3.76-38.57-10.34l38.57-57.5H949.15z"/>
		</g>
	</g>
</g>
<g id="TASK">
	<g>
		<path class="st2" d="M479.83,497.01H221.57c-16.38,0-29.67-13.28-29.67-29.67V284.46c0-16.38,13.28-29.67,29.67-29.67h258.25
			c16.38,0,29.67,13.28,29.67,29.67v182.88C509.49,483.73,496.21,497.01,479.83,497.01z"/>
		<path class="st0" d="M467.5,356.52H233.62c-2.04,0-3.7-1.66-3.7-3.7v-0.7c0-2.04,1.66-3.7,3.7-3.7H467.5c2.04,0,3.7,1.66,3.7,3.7
			v0.7C471.2,354.86,469.54,356.52,467.5,356.52z"/>
		<path class="st0" d="M467.5,385.11H233.62c-2.04,0-3.7-1.66-3.7-3.7v-0.7c0-2.04,1.66-3.7,3.7-3.7H467.5c2.04,0,3.7,1.66,3.7,3.7
			v0.7C471.2,383.45,469.54,385.11,467.5,385.11z"/>
		<path class="st0" d="M467.78,413.7H233.9c-2.04,0-3.7-1.66-3.7-3.7v-0.7c0-2.04,1.66-3.7,3.7-3.7h233.88c2.04,0,3.7,1.66,3.7,3.7
			v0.7C471.48,412.04,469.82,413.7,467.78,413.7z"/>
		<path class="st0" d="M467.78,442.29H233.9c-2.04,0-3.7-1.66-3.7-3.7v-0.7c0-2.04,1.66-3.7,3.7-3.7h233.88c2.04,0,3.7,1.66,3.7,3.7
			v0.7C471.48,440.63,469.82,442.29,467.78,442.29z"/>
		<text transform="matrix(1 0 0 1 297.5704 333.6638)" class="st0 st7 st8">TASK</text>
	</g>
</g>
<g id="PLANT">
	<g>
		<g>
			<path class="st3" d="M915.25,1134.82c0,0,53.15-35.91,101.18-50.47c33.61-10.19,94.68,31.03,134.29-64.59
				c20.04-41.94,73.5-31.03,99.1-42.78c25.6-11.74,48.18-84.72,129.49-122.46c0,0-261.25-65.42-365.9,29.36
				s-111.97,228.98-111.97,228.98L915.25,1134.82z"/>
			<path class="st9" d="M933.36,1054.68c0,0,46.69-63.38,104.57-75.57c57.87-12.19,127.49-59.16,148.46-76.77
				c20.97-17.61,109.04-51.16,177.82-46.13"/>
		</g>
		<g>
			<path class="st3" d="M309.88,729.55c0,0,28.57,36.91,84.74,30.2s84.69-5.33,135.02,53.11c24.32,24.89,80.52,20.7,114.07,43.35
				c33.55,22.65,78.84,83.88,70.46,133.36c-8.39,49.49-17.81,105.05-10.58,105.37c7.22,0.31-194.92-95.3-194.92-95.3
				s-14.26-75.49-46.97-91.43S356.02,924.98,309.88,729.55z"/>
			<path class="st9" d="M315.38,738.22c0,0,3.73,28.52,55.73,54.8s79.96,10.62,144.27,68.78c64.31,58.15,138.12,59.83,205.78,167.75
				"/>
		</g>
		<g>
			<path class="st3" d="M708.12,1119.28l-7.7,10.97c0,0-29.6-17.95-56.35-25.23c-18.73-5.09-52.75,15.52-74.81-32.29
				c-11.16-20.97-40.94-15.52-55.2-21.39c-14.26-5.87-26.84-42.36-72.13-61.24c0,0,8.6-1.93,22.44-4.17
				c10.57-1.71,24.19-3.6,39.39-4.96c46.85-4.18,108.67-3.27,142,23.82c25.28,20.55,40.36,44.83,49.34,65.71
				C706.81,1097.77,708.12,1119.28,708.12,1119.28z"/>
			<path class="st10" d="M703.82,1073.54l-8.73-3.03c-8.98-20.88-24.06-45.16-49.34-65.71c-33.32-27.09-95.15-28-142-23.82
				l-0.11-0.25C663.57,933.74,703.82,1073.54,703.82,1073.54z"/>
			<path class="st9" d="M448.28,991.24c0,0,177.81,7,255.54,109.89"/>
		</g>
	</g>
</g>
<g id="MALE">
	<g>
		<g>
			<path d="M941.93,610.22c-9.18,15.78-22.17,30.19-40.48,40.46c9.33-14.33,12.63-25.97,12.63-25.97
				C925.49,621.06,934.73,615.95,941.93,610.22z"/>
			<g>
				<path class="st11" d="M941.93,610.22c-7.19,5.73-16.44,10.84-27.86,14.49c0,0-3.3,11.64-12.63,25.97
					c-7.74,11.9-19.66,25.68-37.32,36.18c-12.95,7.71-28.91,14.92-48.78,15.79c-80.2,3.52-88.27-107-88.35-141.23
					c-0.01-4.56,0.21-7.94,0.69-9.78c4.11-15.66,41.01-75.68,70.08-88.35c0,0,85,120.4,109.6,126c0,0,16.78-39.52,50.69-22.37
					c0.09,0.08,0.18,0.15,0.26,0.23C966.2,574.03,961.78,594.43,941.93,610.22z"/>
				<path d="M958.32,567.15c-0.09-0.08-0.18-0.15-0.26-0.23c-33.91-17.15-50.69,22.37-50.69,22.37c-24.61-5.6-109.6-126-109.6-126
					c-29.07,12.67-65.98,72.69-70.08,88.35c-0.48,1.84-0.7,5.22-0.69,9.78c-6.34-44.05-5.69-124.2,75.25-149.95
					c113.7-36.17,158.52,84.27,159.77,94.31C962.54,510.02,965.17,536.66,958.32,567.15z"/>
				<path class="st11" d="M864.6,740.65l-0.01,0.01c-10.58,10.6-20.04,13.72-27.4,12.79c-11.3-1.43-16.91-7.5-19.63-12.43
					c-2.04-3.67-2.47-6.69-2.47-6.69s0.27-21.89,0.26-31.68c19.78-2.15,35.83-8.08,48.78-15.79l0.22,24.65L864.6,740.65z"/>
				<ellipse cx="761" cy="562.78" rx="8.25" ry="16.08"/>
				<ellipse cx="820.48" cy="562.78" rx="8.25" ry="16.08"/>
				<path class="st12" d="M748,543.81l5.21-4.38c3.83-3.23,9.38-3.4,13.41-0.44l6.54,4.82"/>
				<path class="st12" d="M807.9,543.81l5.21-4.38c3.83-3.23,9.38-3.4,13.41-0.44l6.54,4.82"/>
				<path class="st12" d="M787.89,546.7l1.12,42.59c0,0-9.51-3.92-12.67,1.86c-3.17,5.78,2.24,19.57,10.25,17.89"/>
				<path class="st12" d="M769.25,637.94c0,0,4.66,16.22,23.11,16.4c18.45,0.19,27.4-7.27,31.69-14.91"/>
				<path class="st13" d="M864.34,711.51c-12.82,12.05-29.14,24.18-46.79,29.51c-2.04-3.67-2.47-6.69-2.47-6.69
					s0.27-21.89,0.26-31.68c19.78-2.15,35.83-8.08,48.78-15.79L864.34,711.51z"/>
				<path class="st13" d="M917.99,595.7c0,0,14.7-29.72,29.36-24.27s-8.39,36.88-20.13,38.79S917.99,595.7,917.99,595.7z"/>
			</g>
		</g>
		<g>
			<path class="st13" d="M392.86,509.7c-1.94,2.39-3.6,4.71-5.03,6.99c-0.59-2.81-1.5-6.41-2.65-10.08
				C389.69,508.44,393.1,509.42,392.86,509.7z"/>
			<g>
				<path class="st11" d="M387.83,516.68c-2.3,3.64-3.96,7.12-5.12,10.45c-1.46,0.73-3.02,1.2-4.48,1.14
					c-1.01-0.04-2.44-1.66-4.03-4.14v-0.01c-1.07-4.77-2.93-11.36-5.21-16.82c-1.99-4.73-4.29-8.62-6.66-9.76
					c-0.01-0.01-0.02-0.01-0.03-0.02c0.71-1.17,2.14-3.31,3.96-5.2c0.01-0.01,0.01-0.01,0.02-0.02c1.48,3.24,4.2,5.96,7.36,8.2
					c3.68,2.64,7.96,4.64,11.54,6.11c1.01,3.21,1.83,6.36,2.42,8.98c0.01,0.01,0,0.01,0,0.01
					C387.67,515.97,387.75,516.33,387.83,516.68z"/>
				<g>
					<path class="st13" d="M400.51,573.11l-9.69,8.19c0,0-29.32-6.72-30.48-38.47c2.01-1.36,3.85-3.21,4.7-4.31
						c0.21-0.27,0.19-0.89,0.02-1.79c4.3,0,9.35-4.35,10.01-6.29c0.18-0.53-0.16-2.98-0.89-6.32c1.59,2.48,3.02,4.1,4.03,4.14
						c1.46,0.06,3.03-0.41,4.48-1.14C373.79,552.65,395.96,569.96,400.51,573.11z"/>
					<path class="st11" d="M411.67,486.25c-5.12-0.11-11.73,0.76-18.23,0.5c-0.15-0.01-0.31-0.01-0.46-0.02
						c-1.62-0.08-3.24-0.22-4.82-0.48c-6.21-8.65-31.2-45.48-17.04-59.58c0.01-0.01,0.01-0.01,0.01-0.01
						c0.31-0.19,0.66-0.22,1.04-0.14C379.16,428.07,398.14,472.31,411.67,486.25z"/>
					<path class="st11" d="M365.05,538.53c-0.85,1.1-2.69,2.96-4.7,4.31c-1.81,1.21-3.76,2.02-5.25,1.5
						c-3.16-1.09-17.93-22.1-18.33-28.06c-0.27-3.91,4.63-7.89,8.05-10.17c1.27-0.85,2.85-0.9,4.13-0.23
						c0.52,0.26,0.99,0.65,1.37,1.17c3.89,5.33,8.39,13.72,11.41,20.52c1.72,3.85,2.96,7.18,3.35,9.17
						C365.24,537.64,365.26,538.26,365.05,538.53z"/>
					<path class="st11" d="M375.08,530.44c-0.66,1.94-5.72,6.29-10.01,6.29c-0.39-1.99-1.63-5.32-3.35-9.17
						c-3.02-6.79-7.52-15.19-11.41-20.52c-0.38-0.51-0.85-0.91-1.37-1.17c1.81-2.92,7.55-11.14,13.34-8.36
						c0.01,0.01,0.02,0.01,0.04,0.02c2.37,1.15,4.67,5.03,6.65,9.77c2.28,5.47,4.15,12.05,5.21,16.81l0,0.01
						C374.92,527.46,375.27,529.91,375.08,530.44z"/>
					<path class="st11" d="M431.41,555.11c-6.44,1.55-20.67,10.18-30.89,18c-4.56-3.14-26.73-20.47-17.82-45.98
						c1.16-3.33,2.83-6.81,5.12-10.45c1.42-2.27,3.09-4.6,5.03-6.99c0.24-0.28-3.16-1.26-7.68-3.09c-3.58-1.47-7.86-3.47-11.54-6.11
						c-3.15-2.24-5.88-4.96-7.36-8.2c-1.16-2.52-1.58-5.34-0.87-8.52c0,0,0.95-4.25,22.48,2.33c0.1,0.02,0.18,0.03,0.26,0.04
						c8.07,1.53,17-0.16,23.51,0c4.49,0.13,7.85,1.14,9,4.71C423.5,499.69,432.13,552.01,431.41,555.11z"/>
					<path class="st13" d="M387.6,515.59c-3.14-4.36-13.02-12.54-16.28-14.93c-2.34-1.71-4.07-5.6-5.06-8.34
						c0.01-0.01,0.01-0.01,0.02-0.02c1.48,3.24,4.2,5.96,7.36,8.2c3.68,2.64,7.96,4.64,11.54,6.11
						C386.18,509.82,387,512.97,387.6,515.59z"/>
					<path class="st14" d="M349.68,506.37c0,0,3.74,2.78,15.39,30.37"/>
					<path class="st13" d="M392.97,486.73c-1.62-0.08-3.24-0.22-4.82-0.48c-6.21-8.65-31.2-45.48-17.04-59.58
						c-0.23,0.39-5.3,8.87-1.62,19.52C372.59,455.14,387.68,478.64,392.97,486.73z"/>
				</g>
			</g>
		</g>
		<g>
			<path class="st11" d="M1290.4,781.28c-3.35,1.68-25.72,15.37-34.38,19.57c-7.03,3.39-34.44,9.74-44.57,12.01
				c-3.69-5.92-25.35-23.52-32.27-26.68l-0.01-0.01c0,0,12.26-43.48,14.78-46.84c2.52-3.35,13.7,0.28,13.7,0.28
				s5.6-8.39,11.18-10.91c5.6-2.52,13.14,3.08,13.14,3.08s5.6-5.85,8.39-7c6.15-2.51,12.87,6.71,12.87,6.71s17.05-21.24,23.48-30.19
				c6.44-8.95,16.5-18.74,18.45-5.31c1.95,13.32-45.39,89.13-46.11,90.29C1285.93,769.53,1293.76,779.6,1290.4,781.28z"/>
			<path class="st14" d="M1202.24,752.94c0,0,6.57-18.78,12.91-21.82"/>
			<path class="st14" d="M1222.48,751.13c0,0,4.64-14.31,12.91-21.82"/>
			<path class="st14" d="M1240.74,752.94c0,0,4.64-14.31,12.91-21.82"/>
		</g>
		<g>
			<path class="st15" d="M1211.93,814.46c-1.49,3.35-102.51,161.41-126,166.63c-22.46,4.98-130.47-96.72-139.88-105.63
				c-0.43-0.41-0.66-0.62-0.66-0.62l-17.42,260.55l-0.1,1.52c-8.2,5.86-151.17,6.2-212.86-0.08c-15.22-1.55-25.49-3.52-27.57-5.88
				c-0.22-0.24-0.35-0.49-0.38-0.74c-1.87-12.68,38.39-308.67,37.55-312.03c-0.04-0.2-0.49-0.5-1.3-0.91
				c-10.8-5.52-85.99-29.74-129.58-45.5l-0.04-0.01c-9.7-3.52-17.84-6.6-23.34-8.97c-3.54-1.52-8.48-4.81-14.47-9.46
				c-48.4-37.56-165.52-164.29-165.19-169.93c0.11-1.96,3.75-5.68,8.94-9.89c0.84-0.68,1.73-1.38,2.65-2.08
				c10.22-7.82,24.45-16.45,30.89-18c0.92-0.23,1.69-0.31,2.26-0.22c7.08,1.12,140.89,142.48,168.47,150.31
				c25,7.1,182,27.12,211.18,30.81c0,0,2.4,16.61,22.11,19.12c7.36,0.93,16.82-2.19,27.4-12.79c19.19,7.7,72.83,36.28,85.66,42.85
				c14.53,7.46,122.65,123.39,125.25,123.76c2.61,0.37,98.79-120.04,101.76-121.53c0.32-0.15,0.97,0,1.91,0.43l0.01,0.01
				c6.92,3.15,28.58,20.75,32.27,26.68C1211.89,813.58,1212.07,814.13,1211.93,814.46z"/>
			<path class="st16" d="M946.05,875.46c-0.43-0.41-0.66-0.62-0.66-0.62l-17.42,260.55l-0.1,1.52c-8.2,5.86-151.17,6.2-212.86-0.08
				c210.67-39.99,226.92-289.53,226.92-289.53L946.05,875.46z"/>
			<path class="st16" d="M735.14,780.72l-11.84,36.55c-10.8-5.52-85.99-29.74-129.58-45.5l-0.04-0.01l-37.8-18.43
				c-48.4-37.56-165.52-164.29-165.19-169.93c0.11-1.96,3.75-5.68,8.94-9.89c36.17,37.68,156.19,162.04,171.11,168.52
				C588.36,749.69,657.14,795.81,735.14,780.72z"/>
		</g>
	</g>
</g>
</svg>
