<?xml version="1.0" encoding="utf-8"?>
<!-- Generator: Adobe Illustrator 25.2.0, SVG Export Plug-In . SVG Version: 6.00 Build 0)  -->
<svg version="1.1" xmlns="http://www.w3.org/2000/svg" xmlns:xlink="http://www.w3.org/1999/xlink" x="0px" y="0px"
	 viewBox="0 0 1600 1200" style="enable-background:new 0 0 1600 1200;" xml:space="preserve">
<style type="text/css">
	.st0{fill:#D7ECFF;}
	.st1{fill:#90AACB;}
	.st2{fill:#6D8EAD;}
	.st3{fill:#7898B5;}
	.st4{font-family:'Calibri-Bold';}
	.st5{font-size:688.6152px;}
	.st6{fill:#375A7A;}
	.st7{fill:none;stroke:#000000;stroke-width:2;stroke-linecap:round;stroke-miterlimit:10;}
	.st8{fill:#94CBED;}
	.st9{fill:none;stroke:#7898B5;stroke-width:2;stroke-linecap:round;stroke-miterlimit:10;}
	.st10{fill:#5081A5;}
	.st11{fill:#4D7199;}
	.st12{fill:none;stroke:#000000;stroke-width:3;stroke-linecap:round;stroke-miterlimit:10;}
	.st13{fill:#FFB085;}
	.st14{fill:#BC7A5C;}
	.st15{fill:#FFAD9F;}
	.st16{fill:#F9D5A7;}
	.st17{fill:#CEA980;}
	.st18{fill:#AA4437;}
</style>
<g id="BACKGROUND">
	<g>
		<path class="st0" d="M193.47,1127.41c0,0-293.06-139.45-57.43-410.22S336.55,421.55,374.6,324.95S490.23-5.82,826.85,254.7
			s415.66,261.98,465.42,291.25c49.76,29.27,360.27,241.9,232.94,581.46H193.47z"/>
		<path class="st1" d="M1525.21,1127.41c0,23.64-298.12,42.8-665.87,42.8c-367.76,0-665.88-19.16-665.88-42.8
			c0-23.63,298.12-42.79,665.88-42.79c226.21,0,426.07,7.25,546.41,18.33c44.16,4.07,77.61,8.65,97.72,13.58
			C1517.66,1120,1525.21,1123.65,1525.21,1127.41z"/>
	</g>
</g>
<g id="SHADOW">
	<g>
		<path class="st2" d="M904.65,1096.22c0,0,230.76,1.65,230.76,24.94c0,23.29-137.08,47.03-180.37,41.67s-297.59-3.1-288.39-26.06
			C675.84,1113.81,687.69,1086.29,904.65,1096.22z"/>
		<path class="st2" d="M385.56,1100.23c0,0,74.24,50.05,105.9,36.54s24.44-23.27-24.76-39.11
			C417.49,1081.82,385.56,1100.23,385.56,1100.23z"/>
		<path class="st2" d="M1503.47,1116.53c-4.55,24.84-73.07,22.55-73.07,22.55l-102.06,0.3c9.89-16.69,42.76-29.53,77.41-36.43
			C1449.91,1107.02,1483.36,1111.6,1503.47,1116.53z"/>
	</g>
</g>
<g id="_x34_04">
	<text transform="matrix(1 0 0 1 49.4138 591.6455)" class="st3 st4 st5">4 0 4</text>
</g>
<g id="CACTUS">
	<g>
		<path class="st6" d="M1317.64,942.1c-1.13,5.51-4.8,11-12.92,15.51c-27.58,15.32-65.88,16.86-95.7-18.38
			c-0.42-0.5-0.84-1.01-1.23-1.53c-0.01-0.01-0.02-0.01-0.02-0.01c-27.68-35.83,3.21-108.68,36.44-103.39
			c33.7,5.36,6.89,72.76,13.78,81.32c6.9,8.55,50.56,0,50.56,0S1320.37,928.9,1317.64,942.1z"/>
		<path d="M1317.64,942.1c-1.13,5.51-4.8,11-12.92,15.51c-27.58,15.32-65.88,16.86-95.7-18.38c-0.42-0.5-0.84-1.01-1.23-1.53
			C1208.85,938.15,1250.25,975.43,1317.64,942.1z"/>
		<path class="st7" d="M1286.76,948.84c-1.02-0.77-56.43,0.51-68.17-16.85c-11.74-17.36-5.95-80.02,9.88-93.55"/>
		<path class="st7" d="M1305.91,935.37c-1.02-0.77-56.43,0.51-68.17-16.85c-11.74-17.36-8.68-69,7.15-82.53"/>
		<path class="st6" d="M1442.11,990.73c-0.57,19.96-2.05,39.51-3.92,57.51c-5.41,51.93-14.1,91.13-14.1,91.13s-94.41,1.86-95.75,0
			c-37.53-52.09-104.94-366.9,30.64-342.36C1430.43,809.94,1444.65,904.33,1442.11,990.73z"/>
		<path class="st7" d="M1328.24,799.08c0,0-26.42,183.29,13.83,337.57"/>
		<path class="st7" d="M1363.16,799.08c0,0,55.25,127.55,24.72,337.68"/>
		<path d="M1442.11,990.73c-0.57,19.96-2.05,39.51-3.92,57.51c-8.47-16.95-26.05-55.81-16.93-69.8
			C1426.27,970.75,1434.41,978.85,1442.11,990.73z"/>
		<path class="st6" d="M1427.91,967.93c0,0,43.66,8.55,50.55,0c6.89-8.55-19.91-75.96,13.79-81.32s65.02,69.7,35.19,104.94
			c-29.83,35.23-68.13,33.7-95.7,18.38C1404.17,994.61,1427.91,967.93,1427.91,967.93z"/>
		<path class="st7" d="M1484.68,891.88c0,0,32.89,43.44,11.95,78.41c-23.55,39.35-72.77,5.87-72.77,5.87"/>
		<path class="st7" d="M1511.44,893.69c0,0,26.94,51.46,9.58,88.34c-23.87,50.7-99.7,16.09-99.7,16.09"/>
	</g>
	<g>
		<path class="st8" d="M382.9,940.84c-0.9,4.38-3.82,8.74-10.27,12.33c-21.92,12.18-52.37,13.4-76.08-14.61
			c-0.33-0.4-0.67-0.8-0.98-1.22c-0.01-0.01-0.02-0.01-0.02-0.01c-22-28.48,2.55-86.39,28.97-82.19
			c26.79,4.26,5.48,57.84,10.95,64.64c5.49,6.8,40.19,0,40.19,0S385.07,930.35,382.9,940.84z"/>
		<path class="st3" d="M382.9,940.84c-0.9,4.38-3.82,8.74-10.27,12.33c-21.92,12.18-52.37,13.4-76.08-14.61
			c-0.33-0.4-0.67-0.8-0.98-1.22C296.42,937.7,329.34,967.34,382.9,940.84z"/>
		<path class="st9" d="M358.36,946.2c-0.81-0.61-44.85,0.41-54.19-13.4c-9.34-13.8-4.73-63.61,7.85-74.37"/>
		<path class="st9" d="M373.58,935.49c-0.81-0.61-44.85,0.41-54.19-13.4c-9.34-13.8-6.9-54.85,5.68-65.6"/>
		<path class="st8" d="M481.85,979.5c-0.45,15.87-1.63,31.41-3.12,45.72c-4.3,41.28-11.21,72.44-11.21,72.44s-75.05,1.48-76.12,0
			c-29.83-41.41-83.42-291.66,24.36-272.15C472.56,835.78,483.87,910.82,481.85,979.5z"/>
		<path class="st9" d="M391.33,827.15c0,0-21,145.71,11,268.35"/>
		<path class="st9" d="M419.09,827.15c0,0,43.92,101.39,19.65,268.44"/>
		<path class="st3" d="M481.85,979.5c-0.45,15.87-1.63,31.41-3.12,45.72c-6.73-13.47-20.71-44.37-13.46-55.49
			C469.26,963.62,475.73,970.06,481.85,979.5z"/>
		<path class="st8" d="M470.56,961.37c0,0,34.71,6.8,40.19,0c5.48-6.8-15.83-60.38,10.96-64.64c26.79-4.26,51.69,55.41,27.97,83.42
			s-54.16,26.79-76.08,14.61C451.69,982.58,470.56,961.37,470.56,961.37z"/>
		<path class="st9" d="M515.69,900.91c0,0,26.15,34.53,9.5,62.33c-18.72,31.28-57.84,4.67-57.84,4.67"/>
		<path class="st9" d="M536.97,902.36c0,0,21.42,40.91,7.61,70.22c-18.98,40.3-79.26,12.79-79.26,12.79"/>
	</g>
</g>
<g id="TYREX">
	<g>
		<g>
			<path class="st6" d="M651.68,662.42c0,0-89.97,54.01-118.75,104.03c-28.78,50.02-10.63,53.34,3.09,54.69
				c13.72,1.35,92.01-88.7,120.99-118.17C686,673.49,672.46,649.02,651.68,662.42z"/>
			<path class="st10" d="M520.12,809.11l1.89,0.88c0.67,0.31,0.85,1.18,0.37,1.73c-2.42,2.8-8.67,10.17-10.28,13.34
				c-1.99,3.91-5.81-2.84,6.75-15.73C519.18,809,519.7,808.91,520.12,809.11z"/>
			<path class="st10" d="M527.74,814.66l1.99,0.63c0.7,0.22,1,1.05,0.6,1.67c-2.03,3.1-7.26,11.21-8.44,14.57
				c-1.46,4.13-6.14-2.05,4.63-16.48C526.8,814.67,527.29,814.52,527.74,814.66z"/>
			<path class="st10" d="M542.52,815.17l1.99,0.63c0.7,0.22,1,1.05,0.6,1.67c-2.03,3.1-7.26,11.21-8.44,14.57
				c-1.46,4.13-6.14-2.05,4.63-16.48C541.58,815.19,542.08,815.03,542.52,815.17z"/>
		</g>
		<g>
			<path class="st6" d="M749,758.05c-18.46,38.76-42.41,126.06,73.02,188.09c12.59,16.75,0.55,96.55-17.26,97.55
				c-17.81,1-79.52,9.79-75.32,27.12c4.19,17.34,41,49.78,77.08,33.34c36.08-16.43,123.1-138.98,130.21-161.57
				c6.91-21.97,40.79-312.78-158.88-213.8C765.23,735.04,755.06,745.32,749,758.05z"/>
			<path class="st10" d="M732.19,1068.61l3.12,2.56c1.1,0.9,1.04,2.61-0.13,3.43c-5.87,4.1-21.07,14.92-25.6,20.1
				c-5.58,6.37-9.54-8.08,20.13-26.25C730.49,1067.96,731.49,1068.03,732.19,1068.61z"/>
			<path class="st10" d="M753.39,1085.05l3.43,2.13c1.21,0.75,1.37,2.45,0.32,3.41c-5.28,4.83-18.93,17.55-22.75,23.28
				c-4.7,7.05-10.52-6.76,16.51-28.66C751.61,1084.63,752.61,1084.57,753.39,1085.05z"/>
			<path class="st10" d="M780.84,1093.05l3.43,2.13c1.21,0.75,1.37,2.45,0.32,3.41c-5.28,4.83-18.93,17.55-22.75,23.28
				c-4.7,7.05-10.52-6.76,16.51-28.66C779.06,1092.63,780.06,1092.57,780.84,1093.05z"/>
		</g>
		<g>
			<g>
				<path class="st6" d="M693.45,819.16c-19.85-23.01-36.66-49.91-49.33-80.41c22.64-25.26,52.6-58.25,52.6-58.25
					S720.68,773.66,693.45,819.16z"/>
				<path class="st11" d="M682.93,680.5c0,0-84.26,62.55-108,115.15s-5.36,54.13,8.43,54.13s82.89-97.28,108.85-129.45
					C718.17,688.16,702.3,665.13,682.93,680.5z"/>
			</g>
			<path class="st8" d="M564.8,835.92l1.89,0.88c0.67,0.31,0.85,1.18,0.37,1.73c-2.42,2.8-8.67,10.17-10.28,13.34
				c-1.99,3.91-5.81-2.84,6.75-15.73C563.87,835.81,564.38,835.72,564.8,835.92z"/>
			<path class="st8" d="M572.42,841.47l1.99,0.63c0.7,0.22,1,1.05,0.6,1.67c-2.03,3.1-7.26,11.21-8.44,14.57
				c-1.46,4.13-6.14-2.05,4.63-16.48C571.48,841.48,571.97,841.32,572.42,841.47z"/>
			<path class="st8" d="M587.21,841.98l1.99,0.63c0.7,0.22,1,1.05,0.6,1.67c-2.03,3.1-7.26,11.21-8.44,14.57
				c-1.46,4.13-6.14-2.05,4.63-16.48C586.26,841.99,586.76,841.84,587.21,841.98z"/>
		</g>
		<g>
			<path class="st6" d="M1004.2,891.84c-4.88,20.94-8.75,35.3-8.75,35.3s-25.97,9.85-52.73,4.52c-6.38-5.98-11.77-12.2-16.3-18.55
				c-5.54,0.6-11.09,1.03-16.64,1.27c-8.11-8.18-14.94-19.64-19.36-35.5c-22.22-79.66,43.74-161.61,121.86-147.21
				c0.01,0,0.01,0,0.01,0C1036.97,736.22,1017.05,836.78,1004.2,891.84z"/>
			<path class="st11" d="M1127.7,948.58c-3.06,23.49-67.4,159.32-100.07,181.79c-32.67,22.47-74.57-3.06-81.72-19.4
				c-7.14-16.34,52.09-35.75,69.45-39.83c17.36-4.09,15.32-84.77,0-99.07c-32.51-10.7-55.95-24.75-72.64-40.41
				c-6.38-5.98-11.77-12.2-16.3-18.55c-29.09-40.71-23.03-87.08-15.73-113.53c3.75-13.59,11.97-25.49,23.32-33.85
				c30.56-22.54,56.42-32.75,78.27-34.06c0.01,0,0.01,0,0.01,0c47.97-2.89,76.65,37.07,93.44,83.55
				C1126.21,871.85,1129.06,938.17,1127.7,948.58z"/>
			<path class="st8" d="M952.99,1105.98l3.43,2.13c1.21,0.75,1.37,2.45,0.32,3.41c-5.28,4.83-18.93,17.55-22.75,23.28
				c-4.7,7.05-10.52-6.76,16.51-28.66C951.22,1105.56,952.22,1105.5,952.99,1105.98z"/>
			<path class="st8" d="M973.93,1121.48l3.43,2.13c1.21,0.75,1.37,2.45,0.32,3.41c-5.28,4.83-18.93,17.55-22.75,23.28
				c-4.7,7.05-10.52-6.76,16.51-28.66C972.15,1121.06,973.15,1121,973.93,1121.48z"/>
			<path class="st8" d="M1003.54,1127.1l3.43,2.13c1.21,0.75,1.37,2.45,0.32,3.41c-5.28,4.83-18.93,17.55-22.75,23.28
				c-4.7,7.05-10.52-6.76,16.51-28.66C1001.77,1126.68,1002.77,1126.62,1003.54,1127.1z"/>
		</g>
		<g>
			<path class="st11" d="M1105.73,815.22c-2.57,2.73-5.21,5.48-7.94,8.23c-7.49,7.6-15.56,15.27-24.22,23.01
				c-21.63,19.34-45.02,34.4-69.37,45.38c-25.18,11.37-51.39,18.37-77.78,21.27c-5.54,0.6-11.09,1.03-16.64,1.27
				c-80.23,3.57-160.39-30.37-216.33-95.22c-19.85-23.01-36.66-49.91-49.33-80.41c-15.7-37.74-25.07-81-26.07-129.21
				c-0.41-19.68,0.58-40.19,3.1-61.49c0,0-11.28,8.28-28.68,19.45c-2.35,1.51-4.82,3.07-7.38,4.67c-1,0.63-2.01,1.26-3.04,1.9
				c-0.04,0.02-0.09,0.05-0.13,0.08c-46.8,28.93-123.08,68.61-157.88,45.07c-52.08-35.23-109.27-117.66-44.93-178.57
				c64.34-60.92,203.23-143.38,257.36-110.32c54.13,33.06,93.95,107.62,108.76,153.57c16.85,28.98,153.71,241.64,310.98,175.46
				c45.96-31.46,118.47-69.72,74.56-168.55c-6.66-9.17-6.81-21.47,0.69-15.9c4,2.97,10.18,11.04,18.71,27.38
				C1173.1,546.23,1246.08,666.15,1105.73,815.22z"/>
			<ellipse cx="590.25" cy="410.37" rx="10.72" ry="18.64"/>
			<path class="st12" d="M385.56,584.5c0,0,13.21,15.83,37.72,0c24.51-15.83,18.38-43.4,45.96-41.87
				c27.57,1.53,56.68,3.39,69.7-42.13"/>
			<path class="st12" d="M569.57,378.18c0,0,19.15-25.25,31.4-2.78"/>
			<path class="st6" d="M381.15,512.89c0,0,5.93-36.56,24.7-34.58S386.09,498.07,381.15,512.89z"/>
			<path class="st6" d="M1105.73,815.22c-2.57,2.73-5.21,5.48-7.94,8.23l-22.45-63.5c187.68-75.37,56.12-285.04,56.12-285.04
				c4,2.97,10.18,11.04,18.71,27.38C1173.1,546.23,1246.08,666.15,1105.73,815.22z"/>
			<path class="st6" d="M653.06,490.81c-6.37,55.8-25.87,100.33-35.01,118.73c-0.41-19.68,0.58-40.19,3.1-61.49
				c0,0-11.28,8.28-28.68,19.45C630.2,541.4,653.06,490.81,653.06,490.81z"/>
		</g>
	</g>
</g>
<g id="MALE">
	<g>
		<g>
			<path d="M774.59,795.65c0,0,11.49,37.79,8.17,42.64s-75.32,40.34-90.38,23.23c-3.83-6.13,58.21-65.87,58.21-65.87H774.59z"/>
			<path class="st13" d="M923.96,590.12c0,0,0,51.71-17.55,65.48v0.01c-1.79,1.4-3.76,2.41-5.94,2.93
				c-22.35,5.35-104.36-17.05-112.24-19.23c-0.4-0.11-0.61-0.17-0.61-0.17l-0.91,15.89l-8.28,144.45c0,0-31.15,5.61-35.24,0
				c-4.08-5.62-22.98-181.28,6.13-223.66c8.29-9.68,84.34,12.24,100.63,14.73c0.02,0,0.04,0.01,0.06,0.01
				c1.73,0.28,2.77,0.32,2.97,0.07c2.04-2.56-2.04-10.22,9.19-27.58c4.55-7.04,15.58-3.92,27.08,2.28
				C906.1,574.42,923.96,590.12,923.96,590.12z"/>
			<path class="st14" d="M906.41,655.6L906.41,655.6c-1.79,1.41-3.76,2.42-5.94,2.94c-22.35,5.35-104.97-17.22-112.85-19.4
				l2.55-19.92C834.11,657.28,906.41,655.6,906.41,655.6z"/>
			<path class="st14" d="M882.6,584.24c-12.81,8.54-24.76,8.17-32.59,6.32c1.73,0.28,2.77,0.32,2.97,0.07
				c2.04-2.56-2.04-10.22,9.19-27.58c4.55-7.04,15.58-3.92,27.08,2.28C891.6,571.82,890.88,578.72,882.6,584.24z"/>
		</g>
		<g>
			<g>
				<path class="st15" d="M769.56,447.27c0,0-6.46-22.61-28.93-14.69c-22.47,7.92-30.13,3.66-34.72,1.19
					c-4.6-2.46-13.79,11.32,43.91,21.54C769.56,460.42,769.56,447.27,769.56,447.27z"/>
				<path class="st16" d="M880.51,474.92c0,0-1.05,1.42-2.88,3.87c-11.32,15.1-52.54,69.26-62.01,69.26c-0.32,0-0.69-0.08-1.09-0.23
					c-13.34-5.04-69.3-91.05-69.3-91.05l24.75-12.96c0,0,44.21,61.9,50.81,62.45c6.15,0.51,44.63-69.09,57.38-72.54
					c0,0,0.01-0.01,0.02-0.01c0.91-0.25,1.69-0.15,2.32,0.34C889.85,441.38,880.51,474.92,880.51,474.92z"/>
				<path class="st17" d="M878.19,433.58v0.13l-0.56,45.08c-11.32,15.1-52.54,69.26-62.01,69.26c-0.32,0-0.69-0.08-1.09-0.23
					c50.17-42.4,63-110.59,63.64-114.1C878.18,433.63,878.19,433.58,878.19,433.58z"/>
			</g>
			<g>
				<path class="st16" d="M963.12,456.83c-1.03,33.07-31.79,136.39-37.63,140.43c-5.42,3.76-41.82-6.79-61.11-16.9
					c-4.34-2.27-7.81-4.53-9.87-6.59c-11.23-11.23-0.51-35.23,8.17-54.12c8.68-18.9,7.66-77.62,11.75-84.26
					c4.08-6.64,33.3-7.66,33.3-7.66s44.82,7.66,54.01,19.92C962.84,449.12,963.26,452.32,963.12,456.83z"/>
				<path class="st17" d="M963.12,456.83c-1.03,33.07-31.79,136.39-37.63,140.43c-5.42,3.76-41.82-6.79-61.11-16.9
					c11.26,2.11,38.93,4.77,57.36-14.76c23.62-25.01,3.91-109.72,23.92-116.82C950.28,447.14,956.42,450.57,963.12,456.83z"/>
			</g>
			<g>
				<path class="st15" d="M961.74,649.35c0,0,1.02,33.7,45.45,25.02c14.3-2.04,32.43-6.13-22.98-25.02H961.74z"/>
				<path class="st16" d="M961.74,652.42l25.68-3.06c0,0-13.02-203.21-29.82-205.52c-16.8-2.31-21.39,24.75-18.84,48.24
					C941.32,515.57,961.74,652.42,961.74,652.42z"/>
			</g>
			<g>
				<path d="M868.62,341.88c0,0,5.55-81.38,74.99-81.63c69.45-0.26,68.93,114.13,19.53,117.7
					C913.74,381.52,868.62,341.88,868.62,341.88z"/>
				<path class="st15" d="M928.12,402.2c0,0-2.17,6.21-4.26,14.75c-1.14,4.65-2.24,9.98-2.97,15.38c0,0-7.66,11.67-13.78,7.36
					c-5.43-3.81-6.45-9.45-6.61-10.69c-0.02-0.16-0.03-0.25-0.03-0.25l8.17-26.55H928.12z"/>
				<path class="st18" d="M928.12,402.2c0,0-2.17,6.21-4.26,14.75c-6.93,6.57-15.26,12.2-23.36,12.05
					c-0.02-0.16-0.03-0.25-0.03-0.25l8.17-26.55H928.12z"/>
				<path class="st15" d="M869.32,335.82c0,0-12.26,69.79,29.62,76.6c40.51,8.29,59.23-18.38,62.3-26.55c0,0,10.21,5.11,19.4-2.04
					c9.19-7.15,13.45-38.47-16.68-17.36c0,0-33.36-25.27-44.6-70.85C919.36,295.61,912.21,310.29,869.32,335.82z"/>
				<path class="st18" d="M966.85,373.78c0,0,9.87-12.26,13.45-6.81s-5.28,17.87-9.36,15.66S965.32,378.2,966.85,373.78z"/>
				<ellipse transform="matrix(0.1334 -0.9911 0.9911 0.1334 426.5016 1183.0195)" cx="889.74" cy="347.62" rx="9.19" ry="4.72"/>
				<ellipse transform="matrix(0.1334 -0.9911 0.9911 0.1334 450.2632 1224.5569)" cx="925.37" cy="354.8" rx="9.19" ry="4.72"/>
				<path class="st7" d="M884.66,333.01c-0.02-0.26,10.7-7.66,14.28,3.32"/>
				<path class="st7" d="M920.17,340.09c-0.02-0.26,10.7-7.66,14.28,3.32"/>
				<path class="st7" d="M906.41,343.41l-2.88,19.99c0,0-7.91-2.54-9.45,2.18c-1.53,4.71,3.06,9.82,4.85,9.82"/>
				<path class="st7" d="M889.74,384.08c0,0,7.41,11.74,28.6,6.13"/>
			</g>
		</g>
	</g>
</g>
</svg>
