<?xml version="1.0" encoding="utf-8"?>
<!-- Generator: Adobe Illustrator 25.2.0, SVG Export Plug-In . SVG Version: 6.00 Build 0)  -->
<svg version="1.1" xmlns="http://www.w3.org/2000/svg" xmlns:xlink="http://www.w3.org/1999/xlink" x="0px" y="0px"
	 viewBox="0 0 1600 1200" style="enable-background:new 0 0 1600 1200;" xml:space="preserve">
<style type="text/css">
	.st0{fill:#D7ECFF;}
	.st1{fill:#AAC5E2;}
	.st2{fill:#4D7199;}
	.st3{fill:#F9D5A7;}
	.st4{fill:none;stroke:#F9D5A7;stroke-width:2;stroke-linecap:round;stroke-miterlimit:10;}
	.st5{fill:#FEF1E6;}
	.st6{fill:#CEA980;}
	.st7{fill:#FFAD9F;}
	.st8{fill:#270035;}
	.st9{fill:none;stroke:#1D1D1B;stroke-width:2;stroke-linecap:round;stroke-miterlimit:10;}
	.st10{fill:#AA4437;}
	.st11{fill:none;stroke:#1D1D1B;stroke-width:3;stroke-linecap:round;stroke-miterlimit:10;}
	.st12{fill:#264663;}
	.st13{fill:#13293A;}
	.st14{fill:#375A7A;}
	.st15{fill:#FFB085;}
	.st16{fill:#FFAD9F;stroke:#AA4437;stroke-miterlimit:10;}
	.st17{fill:#BC7A5C;}
	.st18{fill:none;stroke:#AA4437;stroke-width:3;stroke-linecap:round;stroke-miterlimit:10;}
	.st19{fill:none;stroke:#000000;stroke-width:3;stroke-linecap:round;stroke-miterlimit:10;}
	.st20{fill:none;stroke:#000000;stroke-miterlimit:10;}
	.st21{fill:none;stroke:#270035;stroke-linecap:round;stroke-miterlimit:10;}
	.st22{fill:#4D7199;stroke:#1D1D1B;stroke-miterlimit:10;}
	.st23{fill:#25465E;}
</style>
<g id="BACKGROUND">
	<g>
		<path class="st0" d="M212.43,1040.5c0,0-158-101.28,0-357.86c91.83-106.68,383.51-306.54,432.13-397.02
			c48.61-90.48,87.78-234.97,284.93-229.57c74.27-0.15,149.89,129.64,264.68,471.29c110.73,194.46,422.67,410.52,272.78,513.15
			H212.43z"/>
		<ellipse class="st1" cx="831.56" cy="1054.55" rx="657.7" ry="89.54"/>
	</g>
</g>
<g id="SPEECH_BALLOON">
	<g>
		<path class="st2" d="M1043.3,296.35c-8.37,23.72-32.89,37.11-56.85,32.18l-12.26,12.53l1.04-16.25
			c-22.85-10.72-34.3-37.23-25.72-61.54c9.14-25.9,37.54-39.49,63.44-30.35C1038.84,242.04,1052.43,270.45,1043.3,296.35z"/>
		<path class="st3" d="M1013.49,276.98c-0.63,3.71-2.34,6.94-4.74,9.38c0,0-0.01,0.01-0.01,0.02c-1.64,2.05-5.92,10.48-7.55,13.75
			l-13.83-2.34c-0.02,0-0.03,0-0.05,0l0,0c-0.03-2.89-3.91-15.84-4.39-17.45c-0.01-0.03-0.02-0.05-0.02-0.07
			c-0.01-0.04-0.02-0.07-0.03-0.08c0,0,0-0.01,0-0.01c-0.86-2.62-1.11-5.52-0.62-8.47c1.55-9.19,9.8-15.46,18.43-14
			C1009.31,259.16,1015.04,267.8,1013.49,276.98z"/>
		<path class="st1" d="M1003.38,302.7l-0.67,3.99c-0.2,1.18-1.32,1.98-2.5,1.78l-14.24-2.41c-1.18-0.2-1.98-1.32-1.78-2.5l0.67-3.99
			c0.2-1.16,1.29-1.96,2.46-1.78c0.02,0,0.03,0,0.05,0l14.24,2.41C1002.78,300.4,1003.58,301.52,1003.38,302.7z"/>
		<line class="st4" x1="970.57" y1="254.54" x2="980.87" y2="262.85"/>
		<line class="st4" x1="1018.35" y1="276.99" x2="1031.55" y2="276.06"/>
		<line class="st4" x1="1016.63" y1="262.86" x2="1028.88" y2="257.85"/>
		<line class="st4" x1="991.94" y1="254.03" x2="988.61" y2="241.22"/>
		<line class="st4" x1="1004.51" y1="252.69" x2="1008.87" y2="240.2"/>
	</g>
	<g>
		<path class="st2" d="M807.76,234.31c0,25.15-18.67,45.94-42.91,49.26l-2.88,14.3l-8.94-14.08c-25.12-2.51-44.73-23.7-44.73-49.48
			c0-27.46,22.26-49.73,49.73-49.73C785.49,184.58,807.76,206.85,807.76,234.31z"/>
		<path class="st0" d="M781.77,220.23h-47.48c-1.95,0-3.53-1.58-3.53-3.53l0,0c0-1.95,1.58-3.53,3.53-3.53h47.48
			c1.95,0,3.53,1.58,3.53,3.53l0,0C785.31,218.65,783.72,220.23,781.77,220.23z"/>
		<path class="st0" d="M781.77,235.6h-47.48c-1.95,0-3.53-1.58-3.53-3.53l0,0c0-1.95,1.58-3.53,3.53-3.53h47.48
			c1.95,0,3.53,1.58,3.53,3.53l0,0C785.31,234.01,783.72,235.6,781.77,235.6z"/>
		<path class="st0" d="M775.38,251.24h-34.7c-1.95,0-3.53-1.58-3.53-3.53l0,0c0-1.95,1.58-3.53,3.53-3.53h34.7
			c1.95,0,3.53,1.58,3.53,3.53l0,0C778.92,249.66,777.33,251.24,775.38,251.24z"/>
	</g>
	<g>
		<path class="st2" d="M1227.46,304.88c12.24,5.04,26.15,7.88,40.9,7.88c49.07,0,88.85-31.48,88.85-70.3s-39.78-70.3-88.85-70.3
			c-49.07,0-88.85,31.48-88.85,70.3c0,21.6,12.32,40.93,31.7,53.83c-5.47,3.43-13.62,8.87-17.4,10.93
			C1189.67,309.48,1213.51,306.67,1227.46,304.88z"/>
		<path class="st0" d="M1212.7,219.24h111.32c1.6,0,2.89-1.3,2.89-2.89l0,0c0-1.6-1.3-2.89-2.89-2.89H1212.7
			c-1.6,0-2.89,1.3-2.89,2.89l0,0C1209.81,217.94,1211.1,219.24,1212.7,219.24z"/>
		<path class="st0" d="M1212.7,236.6h111.32c1.6,0,2.89-1.3,2.89-2.89l0,0c0-1.6-1.3-2.89-2.89-2.89H1212.7
			c-1.6,0-2.89,1.3-2.89,2.89l0,0C1209.81,235.3,1211.1,236.6,1212.7,236.6z"/>
		<path class="st0" d="M1215.04,252.43h96.68c1.6,0,2.89-1.3,2.89-2.89v0c0-1.6-1.3-2.89-2.89-2.89h-96.68
			c-1.6,0-2.89,1.3-2.89,2.89v0C1212.15,251.13,1213.44,252.43,1215.04,252.43z"/>
		<path class="st0" d="M1214.75,271.15h77.96c1.6,0,2.89-1.3,2.89-2.89l0,0c0-1.6-1.3-2.89-2.89-2.89h-77.96
			c-1.6,0-2.89,1.3-2.89,2.89l0,0C1211.85,269.86,1213.15,271.15,1214.75,271.15z"/>
	</g>
</g>
<g id="FEMALE_2">
	<g>
		<path d="M779.12,446.63l-48.34,11.59c0,0-41.24-125.28,37.25-137.53c78.49-12.26,88.7,82.81,93.13,116.98L779.12,446.63z"/>
		<path class="st5" d="M838.82,973.65c0,0-17.36,51.58-14.3,63.36s68.05,11.76,68.05,11.76s-4.22-71.47-16.22-80.66
			S838.82,973.65,838.82,973.65z"/>
		<path class="st5" d="M741.47,970.85c0,0-17.36,51.58-14.3,63.36c3.06,11.78,68.05,11.76,68.05,11.76s-4.22-71.47-16.22-80.66
			C767.01,956.11,741.47,970.85,741.47,970.85z"/>
		<polygon points="733.35,679.51 733.35,983.32 790.74,983.32 793.01,666.2 		"/>
		<polygon points="828.53,673.11 828.53,976.92 885.92,976.92 888.19,659.8 		"/>
		<path class="st3" d="M774.84,447.49c0,0-39.79,9.45-41.49,28.62c-1.7,19.17-32.72,155.23-13.66,213.08
			c5.83,17.68,45.27,24.87,45.27,24.87l126.3-60.62l-3.06-131.37c0,0-13.62-72.28-70.13-79.38L774.84,447.49z"/>
		<path class="st6" d="M858.36,509.81l15.31,131.23l-20.38,40.18l-106.87,24.67C746.42,705.89,867.03,628.2,858.36,509.81z"/>
		<path class="st7" d="M853.29,393.04c0,8.51-16.63,13.95-16.63,13.95c-3.78,16.14-8.32,27.99-13.35,36.42
			c-0.44,0.74-0.89,1.45-1.34,2.14c-13.09,20.1-29.19,18.28-43.42,9.45c-2.17-1.34-4.3-2.85-6.36-4.46
			c-16.51-12.94-25.54-27.61-25.54-27.61s-10.23,6.65-22.48-7.67c-0.38-0.43-0.76-0.89-1.14-1.38c-4.79-6.06-3.86-9.66-0.78-11.77
			c5.26-3.64,18.67,4.56,18.67,4.56c12.13-10.47,27.26-61.55,27.26-61.55c18.72,24.69,64.53,47.63,64.53,47.63
			C842.67,373.85,853.29,382.83,853.29,393.04z"/>
		
			<ellipse transform="matrix(0.9921 -0.1252 0.1252 0.9921 -43.4445 103.782)" class="st8" cx="803.92" cy="397.51" rx="3.72" ry="8.7"/>
		
			<ellipse transform="matrix(0.9921 -0.1252 0.1252 0.9921 -44.3578 99.4581)" class="st8" cx="769.06" cy="402.62" rx="3.72" ry="8.7"/>
		<path class="st9" d="M784.27,395.29l3.4,16.05c0,0-7.15,0.31-4.77,5.43c2.38,5.12,7.64,3.19,7.64,3.19"/>
		<path class="st10" d="M779.73,434.53l30.98-4.1c0,0-5.11,16.35-12.6,17.03S779.73,434.53,779.73,434.53z"/>
		<path class="st11" d="M758.03,388.92c0,0,6.74-9.19,14.16-3.06"/>
		<path class="st11" d="M793.01,381.89c0,0,4.47-11.11,14.81-2.3"/>
		<path class="st10" d="M740.95,415.26c0.24-1.06-8.16-7.75-11.08-8.46c-8.84-2.16-1.26,9.41,2.13,11.75
			C735.4,420.88,740.39,417.69,740.95,415.26z"/>
		<path class="st10" d="M837.6,398.56c-0.59-0.92,5.05-10.05,7.56-11.71c7.59-5.02,4.37,8.43,1.97,11.78
			C844.73,401.96,838.95,400.65,837.6,398.56z"/>
	</g>
</g>
<g id="CHAIR">
	<g>
		<g>
			<path class="st12" d="M955.86,858.06V906h-29.62v-40.82c0.69-0.14,1.38-0.29,2.09-0.44c7.95-1.7,17.02-3.92,26.66-6.45
				C955.28,858.22,955.58,858.14,955.86,858.06z"/>
			<path class="st12" d="M968.96,912.99v52.48c0,2.55-1.36,4.78-3.41,5.98c-1.05,0.65-2.26,1-3.58,1h-43.58
				c-0.93,0-1.81-0.18-2.62-0.52c-0.67-0.27-1.28-0.64-1.82-1.09c-1.55-1.28-2.53-3.22-2.53-5.38v-52.48c0-2.93,1.8-5.44,4.35-6.46
				c0.11-0.05,0.23-0.09,0.35-0.13c0,0,0,0,0.01,0c0.71-0.26,1.48-0.39,2.26-0.39h43.58C965.83,906,968.96,909.13,968.96,912.99z"/>
			<path class="st13" d="M854.77,1045.96c0,8.34-6.76,15.1-15.1,15.1c-4.08,0-7.79-1.62-10.49-4.25c-2.85-2.74-4.61-6.59-4.61-10.85
				c0-8.34,6.76-15.09,15.1-15.09c2.05,0,4.01,0.41,5.79,1.15C850.93,1034.28,854.77,1039.66,854.77,1045.96z"/>
			<path class="st12" d="M850.05,1042.85c0,8.34-6.76,15.1-15.1,15.1c-2.05,0-4-0.41-5.77-1.15c-2.85-2.74-4.61-6.59-4.61-10.85
				c0-8.34,6.76-15.09,15.1-15.09c2.05,0,4.01,0.41,5.79,1.15C848.29,1034.76,850.05,1038.6,850.05,1042.85z"/>
			<path class="st13" d="M950.41,1045.96c0,8.34-6.76,15.1-15.1,15.1c-4.08,0-7.79-1.62-10.49-4.25c-2.85-2.74-4.61-6.59-4.61-10.85
				c0-8.34,6.76-15.09,15.1-15.09c2.05,0,4.01,0.41,5.79,1.15C946.57,1034.28,950.41,1039.66,950.41,1045.96z"/>
			<path class="st12" d="M945.69,1042.85c0,8.34-6.76,15.1-15.1,15.1c-2.05,0-4-0.41-5.77-1.15c-2.85-2.74-4.61-6.59-4.61-10.85
				c0-8.34,6.76-15.09,15.1-15.09c2.05,0,4.01,0.41,5.79,1.15C943.92,1034.76,945.69,1038.6,945.69,1042.85z"/>
			<path class="st13" d="M1048.24,1045.96c0,8.34-6.76,15.1-15.1,15.1c-4.08,0-7.79-1.62-10.49-4.25
				c-2.85-2.74-4.61-6.59-4.61-10.85c0-8.34,6.76-15.09,15.1-15.09c2.05,0,4.01,0.41,5.79,1.15
				C1044.4,1034.28,1048.24,1039.66,1048.24,1045.96z"/>
			<path class="st12" d="M1043.52,1042.85c0,8.34-6.76,15.1-15.1,15.1c-2.05,0-4-0.41-5.77-1.15c-2.85-2.74-4.61-6.59-4.61-10.85
				c0-8.34,6.76-15.09,15.1-15.09c2.05,0,4.01,0.41,5.79,1.15C1041.76,1034.76,1043.52,1038.6,1043.52,1042.85z"/>
			<path class="st12" d="M1046.04,994.67v30.38c0,3.02-2.64,5.47-5.91,5.47h-13.97c-3.27,0-5.92-2.45-5.92-5.47v-18.1
				c0-2.51-1.85-4.7-4.5-5.31l-57.22-13.08c-2.18-0.5-4.32,0.19-5.73,1.57c-0.99,0.96-1.61,2.27-1.61,3.74v31.34
				c0,3.07-2.65,5.6-5.97,5.66c-5,0.07-11-0.38-16.81-0.42c-3.23-0.03-5.82-2.49-5.82-5.47v-30.37c0-2.05-1.2-3.78-2.93-4.71
				c-1.29-0.7-2.88-0.95-4.48-0.57l-56.19,13.58c-2.6,0.62-4.42,2.8-4.42,5.29v16.74c0,3.01-2.65,5.46-5.91,5.46h-18.17
				c-0.2,0-0.4-0.01-0.59-0.03c-2.38-0.22-4.35-1.74-5.05-3.79c-0.18-0.51-0.28-1.07-0.28-1.64v-30.17c0-2.53,1.89-4.73,4.56-5.32
				l12.46-2.73l71.88-15.75l0.47-0.1c0.43,0.36,0.91,0.67,1.42,0.91l0.4,0.17c0.81,0.34,1.69,0.52,2.62,0.52h43.58
				c1.31,0,2.53-0.36,3.58-1l76.05,17.92C1044.21,989.98,1046.04,992.17,1046.04,994.67z"/>
			<path class="st13" d="M968.96,912.99v52.48c0,2.55-1.36,4.78-3.41,5.98c-1.05,0.65-2.26,1-3.58,1l-48.03-1.61
				c58.17,0.43,56.83-26.4,47.93-46.11c-8.38-18.58-44.98-18.33-45.75-18.35c0.71-0.26,1.48-0.39,2.26-0.39h43.58
				C965.83,906,968.96,909.13,968.96,912.99z"/>
			<path class="st13" d="M954.99,858.29V906c0,0-5.68-29.39-11.26-35.02c-3.36-3.4-10.29-5.29-15.4-6.24
				C936.29,863.04,945.35,860.82,954.99,858.29z"/>
			<path class="st13" d="M919.65,989.88c-1.29-0.7-2.88-0.95-4.48-0.57l-56.19,13.58c-2.6,0.62-4.42,2.8-4.42,5.29v16.74
				c0,3.01-2.65,5.46-5.91,5.46h-1.93c-0.16-4.79-0.71-21.83,0.05-27.51c0.87-6.63,3.66-7.33,3.66-7.33s41.5-9.24,51.79-11.51
				C912.53,981.77,917.58,985.42,919.65,989.88z"/>
			<path class="st13" d="M1027.85,1030.52h-1.69c-3.27,0-5.92-2.45-5.92-5.47v-18.1c0-2.51-1.85-4.7-4.5-5.31l-57.22-13.08
				c-2.18-0.5-4.32,0.19-5.73,1.57v-0.01c0,0,4.2-6.41,8.74-6.77c4.53-0.35,58.77,8.2,63.3,12.72
				C1028.84,1000.08,1028.07,1024.9,1027.85,1030.52z"/>
		</g>
		<path class="st2" d="M1091.78,723.62c-10.28,47.61-21.15,86.5-25.54,94.74c-0.82,1.54-2.24,3.11-4.17,4.71
			c-25.79,21.28-143.51,46.52-158.45,50.32c-16.07,4.08-186.15-23.43-186.15-23.43v-43.47l192.11-143.7
			c0,0-1.64-108.04,14.01-156.45c14-43.28,123.08-35.78,168.32-4.52c0.16,0.11,0.33,0.23,0.49,0.34c5.15,3.61,9.45,7.54,12.65,11.74
			C1124.56,539.49,1109.01,643.81,1091.78,723.62z"/>
		<path class="st14" d="M1091.78,723.62c-10.28,47.61-21.15,86.5-25.54,94.74c-0.82,1.54-2.24,3.11-4.17,4.71
			c-25.79,21.28-143.51,46.52-158.45,50.32c-16.07,4.08-186.15-23.43-186.15-23.43v-31.41l33.57-29.42c0,0,97.16,37.79,141.07,32.75
			c43.92-5.04,114.21-21.34,153.4-52.66c13.41-10.71,15.11-152.68,22.77-216.18c3.63-30.07,14.1-44.27,24.12-50.88
			c5.15,3.61,9.45,7.54,12.65,11.74C1124.56,539.49,1109.01,643.81,1091.78,723.62z"/>
	</g>
</g>
<g id="MALE_2">
	<g>
		<path class="st7" d="M467.13,599.04c0,0-8.04,29.24-14.17,29.24s-64.34-81.19-64.34-89.36c0-5.37,29.83-35.07,50.26-54.77
			c5.78-5.57,10.8-10.35,14.19-13.54c2.84-2.69,4.53-4.27,4.53-4.27l4.5,5.78l17.41,22.37c0,0-16.1,15.26-30.32,29.28
			c-10.6,10.43-20.16,20.18-21.25,22.4C425.39,551.38,467.13,599.04,467.13,599.04z"/>
		<path class="st10" d="M479.51,494.49c0,0-16.1,15.26-30.32,29.28c-3.89-11.21-8.1-28.66-10.31-39.62
			c5.78-5.57,10.8-10.35,14.19-13.54c2.99,0.17,6.03,0.71,9.03,1.51L479.51,494.49z"/>
		<path class="st5" d="M413.28,990.16c0,0-13.15,52.42-9.39,57.6s80.28,25.38,86.9,19.75c6.62-5.64-36.64-57.78-37.58-69.05
			S413.28,990.16,413.28,990.16z"/>
		<path class="st5" d="M536.45,990.13c0,0-11.96,47.68-8.55,52.4c3.42,4.72,73.03,23.09,79.05,17.96
			c6.02-5.13-33.33-52.56-34.18-62.81C571.92,987.42,536.45,990.13,536.45,990.13z"/>
		<path class="st8" d="M465.73,623.43c0,0-32.17,77.3-66.21,369.19l62.13,8.24c0,0,52.94-265.32,59.15-273.5
			c6.21-8.18,5.55,267.56,5.55,267.56l57.14,5.94c0,0,19.46-332.01,6.52-341.06S465.73,623.43,465.73,623.43z"/>
		<path class="st15" d="M668.71,491.36l-25.31,8.18c-12.57,64.34-37.14,165.39-50.5,169.26c-6.26,1.82-21.75-0.29-40.04-4.11
			c-37.64-7.87-87.1-22.98-92.25-26.08c-4.45-2.67,7.28-78.62,27.72-138.08c-9,4.53-18.38,8.73-19.54,7.2
			c-2.3-3.02-31.4-42.69-31.4-42.69s75.04-50.64,85.77-44.55l36.19-2.58l53.21,9.48c0,0,18.54,4.78,29.97,11.58
			c0.01,0,0.02,0,0.02,0C666.92,443.73,668.71,491.36,668.71,491.36z"/>
		<path class="st7" d="M659.45,318.08c-0.12,1.99-0.45,4.05-1.01,6.17c-8.65,32.9-21.35,80.13-53.03,87.58
			c-0.11,0.03-0.22,0.05-0.33,0.08c-5.6,1.26-11.78,1.29-18.64-0.22c-6.66-1.46-12.15-3.81-16.67-6.77
			c-0.08-0.05-0.16-0.1-0.23-0.16c-26.44-17.51-19.7-55.68-22.42-55.41c-20.59,2.04-22.45-8.95-19.87-18.76
			c0.75-2.84,1.87-5.58,3.02-7.87c4.07-8.15,12.36,7.15,15.56,13.69c-1.83-8.19,4.87-26.51,4.87-26.51s9.19,14.86,27.57-6.59
			c0,0,9.19,16.85,28.6,0c0,0,9.55,19.84,27.4,6.59C634.27,309.9,646.71,321.3,659.45,318.08z"/>
		<path class="st8" d="M675.29,303.31c-4.66,9.17-10.28,13.36-15.84,14.77c-12.74,3.22-25.18-8.18-25.18-8.18
			c-17.85,13.25-27.4-6.59-27.4-6.59c-19.41,16.85-28.6,0-28.6,0c-18.38,21.45-27.57,6.59-27.57,6.59s-6.7,18.32-4.87,26.51
			c-3.2-6.54-11.49-21.84-15.56-13.69c-1.15,2.29-2.27,5.03-3.02,7.87c-19.87-3.04-6.17-27.79-6.17-27.79
			c-29.62-27.57,20.93-39.32,20.93-39.32s-5.1-4.59,0-15.32c5.11-10.72,22.98,8.17,22.98,8.17s-2.04-13.27,15.32-20.42
			c15.69-6.46,20.95,14.59,21.82,18.71c-0.26-2.29,0.66-9.75,22.1-13.61c24.81-4.46,18.76,23.39,18.4,24.95
			c0.3-0.91,3.7-10.33,16.89-4.01c13.55,6.5,0.56,21.33,0.02,21.95C660.32,283.64,690.41,273.57,675.29,303.31z"/>
		
			<ellipse transform="matrix(0.0811 -0.9967 0.9967 0.0811 198.1244 903.5071)" class="st8" cx="589.05" cy="344.31" rx="10.11" ry="6.53"/>
		
			<ellipse transform="matrix(0.0811 -0.9967 0.9967 0.0811 230.419 944.8044)" class="st8" cx="627.59" cy="347.44" rx="10.11" ry="6.53"/>
		<path class="st9" d="M579.08,326.7c1.4-0.4,11.15-9,20.27,1.65"/>
		<path class="st9" d="M619.99,331.73c0,0,8.21-10.6,17.3,1.41"/>
		<path class="st9" d="M590,379.16c0,0,12.25,18.07,28.28,2.3"/>
		<path class="st9" d="M612.13,336.05l-1.78,21.89c0,0,8.41-4.1,9.7,1.81c1.29,5.91-6.1,12.14-9.34,9.32"/>
		<path class="st10" d="M605.65,417.52l-22.7,19.67l-15.32-23.61l1.91-8.82c0.07,0.06,0.15,0.11,0.23,0.16
			c4.52,2.96,10.01,5.31,16.67,6.77c6.86,1.51,13.04,1.48,18.64,0.22c0.11-0.03,0.22-0.05,0.33-0.08L605.65,417.52z"/>
		<path class="st5" d="M612.67,427.09l-0.11,0.29l-10.78,27.76c-0.16,0.42-0.7,0.53-1.02,0.21l-13.15-13.47l-3.95-4.05
			c-0.25-0.25-0.23-0.66,0.03-0.89l15.86-14.03l5.53-4.89l0.02-0.02c0.26-0.24,0.67-0.2,0.89,0.08l6.59,8.4
			C612.72,426.65,612.75,426.88,612.67,427.09z"/>
		<path class="st5" d="M582.27,437.78l-6.62,3.56l-14.87,8c-0.41,0.22-0.91-0.07-0.92-0.54L559,418.48c0-0.25,0.13-0.47,0.35-0.58
			l0.2-0.1l7.68-3.81c0.27-0.14,0.59-0.06,0.77,0.17c0.01,0.01,0.03,0.03,0.04,0.05l2.75,4.32h0.01l11.7,18.36
			C582.7,437.2,582.59,437.61,582.27,437.78z"/>
		<path class="st10" d="M542.37,340.98c0.6-0.91-5.11-13.61-7.49-11.76c-2.38,1.84-4.43,8.4-2.04,11.76
			C535.22,344.34,541.01,343.07,542.37,340.98z"/>
		<g>
			<path class="st16" d="M480.82,617.1c-0.99,1.72-2.79,2.68-4.64,2.68c-0.91,0-1.84-0.23-2.68-0.72l-14.41-8.31l-0.03-0.02
				l-3.23-1.86c-2.56-1.49-3.44-4.76-1.96-7.33c0.97-1.68,2.72-2.64,4.52-2.68h0.13c0.9,0,1.82,0.23,2.65,0.71
				c0.01,0,0.01,0.01,0.02,0.01l17.67,10.2C481.42,611.26,482.3,614.54,480.82,617.1z"/>
			<path class="st16" d="M475.31,626.64c-0.59,1.02-1.46,1.77-2.47,2.22c-0.68,0.3-1.43,0.46-2.18,0.46c-0.91,0-1.83-0.23-2.67-0.72
				l-9.16-5.29l-8.5-4.91c-2.57-1.48-3.45-4.76-1.97-7.32c0.99-1.72,2.8-2.68,4.65-2.68c0.91,0,1.83,0.23,2.68,0.72l3.32,1.92
				c-0.02,0.2-0.05,0.4-0.07,0.59c0.03-0.19,0.06-0.38,0.09-0.58l14.32,8.27C475.91,620.8,476.79,624.08,475.31,626.64z"/>
			<path class="st16" d="M469.93,635.97c-0.99,1.72-2.8,2.68-4.65,2.68c-0.91,0-1.83-0.23-2.68-0.72l-6.55-3.78l-11.11-6.42
				c-2.56-1.48-3.44-4.76-1.96-7.32c0.99-1.72,2.8-2.69,4.65-2.69c0.91,0,1.83,0.23,2.67,0.72l8.52,4.92l9.15,5.28
				C470.53,630.12,471.41,633.4,469.93,635.97z"/>
			<path class="st16" d="M464.53,645.31c-0.99,1.72-2.8,2.68-4.65,2.68c-0.91,0-1.83-0.23-2.67-0.72l-3.79-2.19l-13.87-8.01
				c-2.57-1.48-3.45-4.76-1.97-7.32c1-1.72,2.8-2.68,4.65-2.68h0.15c0.86,0.03,1.73,0.26,2.53,0.72l11.12,6.42l6.54,3.77
				C465.14,639.46,466.02,642.74,464.53,645.31z"/>
		</g>
	</g>
</g>
<g id="MALE_1">
	<g>
		<g>
			<path class="st8" d="M799.35,1030.59c0,0,1.7,43.64-4.09,46.71s-89.19,19.4-92.6,13.28c-3.4-6.13,52.09-53.45,54.81-58.21
				C760.2,1027.6,799.35,1030.59,799.35,1030.59z"/>
			<path class="st8" d="M685.38,1020.38c0,0,1.7,43.64-4.09,46.71s-89.19,19.4-92.6,13.28s52.09-53.45,54.81-58.21
				C646.23,1017.38,685.38,1020.38,685.38,1020.38z"/>
			<path class="st15" d="M866.85,773.81c-30.54,31.05-102.23,43.92-120.43,48.07h-0.01c-1.76,0.4-3.02,0.72-3.69,0.97
				c-9.76,3.57-50.51,203.23-56.13,206.64c-5.61,3.41-49.02-1.88-51.19-4.99c-2.17-3.11,33.83-235.87,42.98-245.57
				c9.15-9.7,111.87-51.57,111.87-51.57l51.42,7.26l27.63,3.9C874.28,748.42,871.81,761.46,866.85,773.81z"/>
			<path class="st17" d="M866.85,773.81c-30.54,31.05-102.23,43.92-120.43,48.07c69.17-35.03,89.36-69.89,95.25-87.26l27.63,3.9
				C874.28,748.42,871.81,761.46,866.85,773.81z"/>
			<path class="st15" d="M905.9,739.08c0,0-102.73,41.87-111.87,51.57c-9.15,9.7-45.15,242.46-42.98,245.57
				c2.17,3.11,45.58,8.4,51.19,4.99c5.62-3.41,46.37-203.07,56.12-206.64c9.75-3.57,142.52-22.47,137.92-82.72L905.9,739.08z"/>
			<path class="st3" d="M904.68,506.33c0,0-14.44,3.13-20.91,18.11c-6.47,14.98-26.4,115.11-30.48,124.26
				c-4.09,9.14-42.58,23.15-42.58,23.15l16.55,26.21l67.95-3.06l24.98-181.11L904.68,506.33z"/>
			<path class="st6" d="M900.64,524.5c0,0-8.64,156.92-53.74,169.14h39.57C886.47,693.64,941.62,547.85,900.64,524.5z"/>
			<path class="st3" d="M950.49,496.82c0,0-44.68,7.8-49.4,10.9c-4.72,3.1-18.34,190.34-25.15,197.83s130.72,5.11,130.72,5.11
				s20.09-193.7,13.28-201.19c-6.81-7.49-48.4-11.48-48.4-11.48L950.49,496.82z"/>
			<path class="st6" d="M1026.15,507.73c0,0-29.62,35-29.62,91.94s-40.33,71.6-69.7,75.33l97.28,6.22L1026.15,507.73z"/>
			<path class="st3" d="M928.22,696.14c0.15-1.14,0-23.27,0-23.27s45.43-7.15,75.73,0c0,0-8.17-145.36,15.66-158.64
				c23.83-13.28,26.21,31.85,25.87,60.01c-0.34,28.16,2.04,126.2-7.49,128.25c-9.53,2.04-99.74,0-99.74,0L928.22,696.14z"/>
			<path class="st7" d="M889.81,693.64c0,0,8.68-31.66,34.47-23.49c25.79,8.17,21.7,23.49,21.7,23.49H889.81z"/>
			<path class="st7" d="M779.01,693.64c0,0,8.68-31.66,34.47-23.49c25.79,8.17,21.7,23.49,21.7,23.49H779.01z"/>
			<g>
				<path class="st8" d="M1025.14,412.51c-13.28,49.28-50.82,51.5-52.86,52.52l-0.65-15.29c1.41,0.39,16.44,4.15,20.57-12.59
					c4.35-17.57-13.78-23.74-22.46-4.82c0,0-45.45-46.71-52.6-70.7c0,0-0.14,0.43-0.39,1.23l-0.12-1.67
					C947.01,333.87,1038.42,363.23,1025.14,412.51z"/>
				<path class="st7" d="M992.2,437.15c-4.13,16.74-19.16,12.98-20.57,12.59c-0.07-0.02-0.11-0.03-0.11-0.03
					c-1.68,2.74-3.44,5.27-5.29,7.59c-5.13,6.47-10.84,11.35-16.7,14.85c-0.79,0.47-1.59,0.92-2.39,1.35
					c-8.64,4.59-17.49,6.28-25.22,5.74c-5.7-0.39-10.78-1.98-14.74-4.51c-1.65-2.32-2.92-5.16-3.86-8.4
					c-2.17-7.49-2.59-17.14-1.96-27.53c0.22-3.62,0.57-7.34,1.02-11.09c-2.17-1.27-5.26-4.31-6.94-6.8
					c-1.58-2.32,5.41-4.29,8.64-5.06c4.04-24.39,10.97-47.5,12.67-52.99c0.25-0.8,0.39-1.23,0.39-1.23
					c7.15,23.99,52.6,70.7,52.6,70.7C978.42,413.41,996.55,419.58,992.2,437.15z"/>
				<ellipse class="st8" cx="922.5" cy="413.08" rx="2.94" ry="9.83"/>
				<path class="st10" d="M903.32,466.33c-2.17-7.49-2.59-17.14-1.96-27.53c5.98,0.38,19.71,1.07,25.23-0.2
					C933.45,437.02,917.26,461.63,903.32,466.33z"/>
				<path class="st11" d="M914.65,396.87c0,0,7.85-11.24,15.76,1.79"/>
				<path class="st7" d="M973.82,501.29c-17.36,16.34-26.84-3.6-26.84-3.6l0.02-2.78l0.03-4.53l0.03-4.98l0.01-1.11l0.07-10.79
					c0.8-0.43,1.6-0.88,2.39-1.35c5.86-3.5,11.57-8.38,16.7-14.85c1.85-2.32,3.61-4.85,5.29-7.59c0,0,0.04,0.01,0.11,0.03l0.24,5.66
					l0.41,9.63l0.13,3.05l0.54,12.83l0.43,10.04l0.29,6.7L973.82,501.29z"/>
				<path class="st10" d="M971.9,456.13c-6.63,9.64-16.53,22.23-24.84,29.27l0.51-12.13c0.8-0.43,1.17-0.65,1.96-1.12
					c5.86-3.5,11.57-8.38,16.7-14.85c1.85-2.32,3.61-4.85,5.29-7.59L971.9,456.13z"/>
				<path class="st10" d="M976.52,442.69c-1.32-0.02-2.18-1.39-1.6-2.58c2.54-5.19,8.69-16.86,11.06-13.34
					c3.03,4.49,3.08,7.41,0.79,11.53C984.62,442.16,979.64,442.74,976.52,442.69z"/>
			</g>
			<path class="st18" d="M788.06,697.07c0,0,3.32-15.78,5.36-18.33"/>
			<path class="st18" d="M799.38,698.01c0,0,3.32-15.78,5.36-18.33"/>
			<path class="st18" d="M810.71,698.25c0,0,3.32-13.9,5.36-16.45"/>
			<path class="st18" d="M823.52,696.14c0,0,2.01-8.8,4.05-11.35"/>
			<path class="st18" d="M898.26,697.42c0,0,3.32-15.78,5.36-18.33"/>
			<path class="st18" d="M909.59,698.36c0,0,3.32-15.78,5.36-18.33"/>
			<path class="st18" d="M920.91,698.6c0,0,3.32-13.9,5.36-16.45"/>
			<path class="st18" d="M933.73,696.49c0,0,2.01-8.8,4.05-11.35"/>
		</g>
		<g>
			<path class="st6" d="M866.15,595.41c0.67-6.74,1.73-13.43,2.95-20.07c1.2-6.65,2.65-13.26,4.23-19.84
				c1.64-6.56,3.42-13.1,5.62-19.52c1.08-3.21,2.28-6.4,3.64-9.52c1.41-3.08,2.88-6.24,5.16-8.78c-1.72,2.92-2.77,6.11-3.78,9.3
				c-1.02,3.19-1.9,6.44-2.78,9.68c-0.84,3.25-1.73,6.49-2.52,9.76c-0.83,3.26-1.65,6.52-2.43,9.79l-4.87,19.61
				C869.72,582.37,868.04,588.9,866.15,595.41z"/>
		</g>
	</g>
</g>
<g id="FEMALE1">
	<g>
		<path d="M1085.58,341.56c0,0-14.4,2.82-15.08,0c-0.68-2.82-3.23-54.91,43.23-58.48c46.47-3.57,66.38,15.83,83.23,68.94
			s54.13,75.95,65.36,82.4s22.98,25.93,7.15,62.4s67.91,32.58,39.32,77.42c-28.6,44.84-92.94,39.22-92.94,39.22l-88.39-227.74
			L1085.58,341.56z"/>
		<path class="st7" d="M888.42,566.53c5.26-0.36,12.79-1.61,20.21-3.04c12.63-2.45,24.9-5.42,24.9-5.42l7.22,19.27
			c0,0-15.68,14.04-25.47,13.02c-9.79-1.02-7.02-18.13-7.02-18.13s-0.44,0.06-1.22,0.16c-3.9,0.47-16.4,1.79-26.1,0.67
			c-3.29-0.38-6.26-1.04-8.46-2.11c-8.76-4.24-1.39-3.99,9.55-4.2c1.58-0.04,3.24-0.08,4.94-0.14
			C887.43,566.59,887.91,566.57,888.42,566.53"/>
		<path class="st15" d="M1150.65,503.68c0,0-10.48,3.94-26.77,10.03c-35.16,13.14-97.36,36.34-139.53,51.67
			c-0.05,0.02-0.1,0.04-0.15,0.06c-25.15,9.14-43.13,15.48-43.92,15.18c-2.72-1.02-8.51-24.85-8.51-24.85s148.6-81.22,203.17-114.08
			c3.19-1.92,6.07-3.68,8.57-5.25c4.02-2.51,7.08-4.53,8.98-5.95C1175.77,413.12,1150.65,503.68,1150.65,503.68z"/>
		<path class="st17" d="M1150.65,503.68c0,0-10.48,3.94-26.77,10.03c-35.16,13.14-97.36,36.34-139.53,51.67
			c82.56-31.06,136.3-96.26,159.16-128.94c4.02-2.51,7.08-4.53,8.98-5.95C1175.77,413.12,1150.65,503.68,1150.65,503.68z"/>
		<path class="st17" d="M1133.79,665.39c0.03,3.06,7.68,82.71,7.68,82.71l52.09-27.57l-19.76-97.11L1133.79,665.39z"/>
		<path class="st10" d="M1145.9,392.02l17.7,28.6c0,0-16.34,15.36-17.7,13.81s-14.98-21.15-14.98-21.15L1145.9,392.02z"/>
		<path class="st3" d="M1207.66,655.9c-14.46,3.08-31.37,6.29-41.35,6.9c-2.24,0.13-4.13,0.14-5.56-0.01
			c-1.13-0.13-1.97-0.35-2.49-0.68c-0.6-0.38-1.32-1.53-2.16-3.33c3.41-23.49,8.35-59.87,12.15-97.18
			c0.86-8.35,1.65-16.74,2.36-25.05c1.88,6.34,3.9,13.07,6.03,20.1c9.03,29.81,20.06,64.86,30.41,97.35
			C1207.25,654.63,1207.45,655.27,1207.66,655.9z"/>
		<path class="st7" d="M1319.45,1041.34c-0.11,0.35-0.46,0.66-1.01,0.92c-0.03,0.02-0.06,0.03-0.09,0.03
			c-3.14,1.06-8.63,1.44-13.51,1.54c-0.27,0-0.54,0-0.8,0.01c-1.65,0.02-3.21,0.02-4.55,0c-0.45,0-0.88-0.01-1.28-0.02
			c-0.4-0.01-0.76-0.02-1.1-0.03c-0.17,0-0.33,0-0.48-0.01c-0.1,0-0.2,0-0.3-0.01c-0.88-0.03-1.39-0.05-1.39-0.05l-33.65-150.38
			l-11.69-52.26l-3.31-14.78c14.48-2,29.73-4.59,44.14-7.94c1.05-0.24,2.09-0.49,3.13-0.74c0.64,2.23,1.29,4.59,1.97,7.06
			c0.93,8.04,2.07,17.86,3.34,28.83c0.67,5.76,1.37,11.84,2.1,18.14c6.78,58.93,15.73,137.6,17.98,162.11
			c0.02,0.35,0.05,0.7,0.09,1.03c0.03,0.26,0.05,0.5,0.07,0.74c0,0.01,0,0.02,0,0.02c0.02,0.23,0.04,0.46,0.06,0.68
			C1319.43,1039.28,1319.53,1041.07,1319.45,1041.34z"/>
		<path class="st7" d="M1238.86,827.28c-0.06,4.55-0.12,9.47-0.18,14.67c-0.86,68.29-2.49,186.38-3.53,192.77v0.03
			c-0.02,0.1-0.03,0.17-0.05,0.21c-0.18,0.41-0.7,0.7-1.48,0.9c0,0-0.01,0-0.02,0.01c-4.73,1.21-18.77-0.96-22.3-1.54
			c-0.01,0-0.01,0-0.02,0c-0.21-0.03-0.38-0.06-0.5-0.08l-0.3-0.05l-0.04-0.44l-17-183.8l-1.68-18.12
			C1203.07,831.08,1220.03,829.69,1238.86,827.28z"/>
		<path d="M1235.22,1064.32c0.01,1.16-0.78,2.15-1.84,2.3l-48.14,6.54c-50,6.78-56.66-7.44-48.64-11.67
			c8.03-4.24,73.87-27.28,73.87-27.28l0,0l0,0c0,0,21.56,3.48,24.6,1.11c0.02-0.05,0.04-0.14,0.06-0.27L1235.22,1064.32z"/>
		<path class="st7" d="M1151.24,694.47c0.41,3.22-2.1,6.07-5.35,6.07h-59.79c-1.21,0-1.55-1.71-0.43-2.19l15.36-5.83l11.26-4.27
			l15.34-5.82l22.49,3.15L1151.24,694.47z"/>
		<path d="M1322.47,1077.18l-46.22,18.58c-47.99,19.29-56.79,4.18-49.59-2.6c5.11-4.8,37.29-27.67,55.58-40.57
			c7.51-5.29,12.68-8.91,12.68-8.91s0.51,0.02,1.39,0.05c0.1,0.01,0.2,0.01,0.3,0.01c0.15,0.01,0.31,0.01,0.48,0.01
			c0.34,0.01,0.7,0.03,1.1,0.03c0.4,0.01,0.83,0.02,1.28,0.02c1.34,0.02,2.9,0.02,4.55,0c0.26-0.01,0.53-0.01,0.8-0.01
			c5.25-0.07,11.11-0.41,13.51-1.54c0.03,0,0.06-0.01,0.09-0.03c0.59-0.19,0.67-0.75,1.06-1l1.99,13.1l2.44,19.78
			C1324.09,1075.45,1323.48,1076.78,1322.47,1077.18z"/>
		<path class="st15" d="M1299.19,735.13l-4.95,2.04l-0.67,0.28l-52.59,21.68c0,0-15.59-47.6-33.32-103.23
			c-0.21-0.63-0.41-1.27-0.61-1.9c-12.79-40.15-26.61-84.21-36.44-117.45c1.35-15.92,2.38-31.52,2.89-45.86
			c0.13-3.8,0.23-7.51,0.28-11.12c0.39-26.48-1.44-47.24-7.05-55.32c2,2.32,37.87,44.68,83.28,162.03
			c14.62,37.79,30.23,83.35,46.03,137.85C1297.08,727.76,1298.14,731.42,1299.19,735.13z"/>
		<path d="M1321.66,809.17c-2.86,1.08-5.84,2.12-8.91,3.11c-5.74,1.85-11.81,3.53-18.07,5.07c-0.37,0.09-0.74,0.18-1.12,0.27
			c-15.32,3.71-31.74,6.53-47.27,8.68c-2.5,0.35-4.98,0.68-7.43,0.98c-18.83,2.41-35.79,3.8-47.1,4.56
			c-8.94,0.61-14.35,0.82-14.35,0.82c-4.56-30.81-9.67-138.27-11.1-169.86c9.98-0.61,26.89-3.82,41.35-6.9
			c17.73,55.63,33.32,103.23,33.32,103.23l52.59-21.68l0.45,1.16l14.79,37.74L1321.66,809.17z"/>
		<path class="st17" d="M1179.59,503.88c-0.78,26.69-1.85,42.96-2.95,52.77c-2.13-7.03-4.15-13.76-6.03-20.1
			c1.35-15.92,2.38-31.52,2.89-45.86c0.13-3.8,0.23-7.51,0.28-11.12c0.36-24.69-1.2-44.41-5.97-53.51
			C1173.74,434.18,1181.05,454.26,1179.59,503.88z"/>
		<path class="st15" d="M1173.78,479.57c-0.05,3.61-0.15,7.32-0.28,11.12c-0.51,14.34-1.54,29.94-2.89,45.86
			c-0.71,8.31-1.5,16.7-2.36,25.05c-3.8,37.31-8.74,73.69-12.15,97.18c-2.35,16.23-5.99,26.81-5.99,26.81l-22.49-3.15
			c0,0-0.81-72.83,1.3-137.27c0.75-22.88,1.87-44.75,3.52-62.02c0.09-0.96,0.18-1.9,0.28-2.83c1.17-11.4,2.79-20.64,4.68-28.13
			c0.79-3.16,1.63-6,2.51-8.56c0.08-0.23,0.16-0.46,0.23-0.68c0.23-0.66,0.46-1.3,0.7-1.92c0.38-1.01,0.77-1.97,1.16-2.89l0.05-0.03
			l-0.02-0.03c6.04-14.15,12.96-17.03,16.47-17.52h0.01c1.44-0.19,2.3,0.01,2.3,0.01s0.88,0.08,2.26,0.9
			c1.26,0.75,2.93,2.11,4.73,4.57c0.01,0.01,0.01,0.02,0.01,0.02C1172.58,435.16,1174.14,454.88,1173.78,479.57z"/>
		<path class="st6" d="M1176.64,556.65c0,0-11.1,82.87-15.89,106.14c-1.13-0.13-1.97-0.35-2.49-0.68c-0.6-0.38-1.32-1.53-2.16-3.33
			c3.41-23.49,8.35-59.87,12.15-97.18c0.86-8.35,1.65-16.74,2.36-25.05C1172.49,542.89,1174.51,549.62,1176.64,556.65z"/>
		<path class="st10" d="M1290.43,818.36c-13.96,8.4-33.99,20.17-40.83,22.72l-3.31-14.78
			C1260.77,824.3,1276.02,821.71,1290.43,818.36z"/>
		<path class="st10" d="M1238.86,827.28c-0.06,4.55-0.12,9.47-0.18,14.67c-9.07,2.22-33.68,7.99-45.24,8.01l-1.68-18.12
			C1203.07,831.08,1220.03,829.69,1238.86,827.28z"/>
		<path class="st7" d="M1168.03,377.73c-1.37,9.53-17.71,16.68-17.71,16.68c0.34,26.55-23.49,33.7-38.47,39.49
			c-4.6,1.78-8.65-1.11-12.14-6c-3.74-5.24-6.83-12.79-9.24-19.4c-2.67-7.31-4.52-13.47-5.51-14.09c-2.72-1.7-12.59-5.45-14.3-6.47
			c-1.7-1.02,9.88-9.19,11.92-9.87c2.04-0.68-5.11-35.75-5.11-35.75c29.28-4.76,65.7,13.62,65.7,13.62l5.11,18.72
			C1158.49,354.24,1169.39,368.19,1168.03,377.73z"/>
		<path class="st10" d="M1162.38,371.43c0,0-5.5-3.32-9.08,4.34s-4.34,12.68-1.53,12.21S1166.35,379.85,1162.38,371.43z"/>
		<path class="st10" d="M1116.54,400.28c0,0-1.2,23.08-16.83,27.62c-3.74-5.24-6.83-12.79-9.24-19.4L1116.54,400.28z"/>
		<ellipse transform="matrix(0.992 -0.1265 0.1265 0.992 -38.2128 142.0496)" cx="1099.44" cy="371.93" rx="3.19" ry="9.06"/>
		<path class="st19" d="M1090.47,358.15c0,0,3.85-9.96,11.77-2.55"/>
	</g>
</g>
<g id="PLANT">
	<g>
		<path class="st3" d="M384.41,886.59l-33.96,148.09c-0.62,2.71-3.03,4.63-5.8,4.63h-104.9c-1.3,0-2.51-0.42-3.49-1.12
			c-1.2-0.87-2.08-2.19-2.37-3.74l-27.84-148.09c-0.69-3.67,2.13-7.05,5.86-7.05h166.7C382.44,879.31,385.27,882.86,384.41,886.59z"
			/>
		<path class="st6" d="M384.41,886.59l-33.96,148.09c-0.62,2.71-3.03,4.63-5.8,4.63h-104.9c-1.3,0-2.51-0.42-3.49-1.12
			c25.94-3.9,81.83-10.86,96.66-39.55c16.35-31.64,15.45-77.98,8.68-96.93c-6.76-18.94-116.84-22.4-116.84-22.4h4.64h149.2
			C382.44,879.31,385.27,882.86,384.41,886.59z"/>
		<path class="st2" d="M352.77,822.4c1.42,13.91-11.13,39.6-23.18,56.91h-19.64c7.73-30.95,15.45-81.35,19.58-119.72
			c0.36-3.35,0.7-6.61,1-9.75c1.72-17.93-2.14-37.73-8.95-57.26c5.19-7.71,10.1-14.17,13.96-18.75
			c16.27-19.3,36.29-55.33,37.82-57.76c26.33-41.95-10.53,67.02-22.98,109.82c-2.16,7.44-3.58,14.5-4.41,21.2
			c-0.25,1.96-0.45,3.9-0.59,5.8C343.01,781.94,350.91,804.21,352.77,822.4z"/>
		<path class="st2" d="M330.52,749.84c-0.3,3.15-0.64,6.4-1,9.75c-4.12,38.29-11.82,88.57-19.53,119.53l-8.01,0.19h-20.96
			c4.81-41.2-4.84-80.84-36.47-109.18c0.04-0.22,0.08-0.44,0.12-0.66c5.24-27.78,10.22-61.49-2.13-103.94
			c-17.59-60.51-69.69-214.54-32.48-155.24c2.16,3.44,30.44,54.36,53.46,81.65c15.08,17.91,41.52,56.08,56.4,96.07
			c0.57,1.51,1.11,3.04,1.64,4.56C328.39,712.11,332.25,731.91,330.52,749.84z"/>
		<path class="st2" d="M495.17,773.58c0,0,0-28.48-29.54-37.27c-35.13-10.46-58.64,54.81-68.11,81.2
			c-5.35,14.91-26.71,41.5-45.11,61.81h-22.82c12.05-17.32,24.6-43.01,23.18-56.91c-1.98-19.38-10.82-43.39-6.8-75.3
			c18.25-11.86,41.3-21.07,69.82-26.75C506.75,702.23,495.17,773.58,495.17,773.58z"/>
		<path class="st2" d="M281.03,879.31h-57.14c-16.85-18.53-36.58-43.03-41.5-56.73c-8.62-24.02-30.02-83.42-61.99-73.91
			c-26.89,8-26.89,33.92-26.89,33.92s-10.53-64.94,72.26-48.45c34.66,6.91,60.43,19.54,78.79,35.98
			C276.18,798.47,285.83,838.11,281.03,879.31z"/>
		<path class="st14" d="M292.94,879.31h-11.33c4.81-41.2-5.42-80.84-37.05-109.18c0.04-0.22,0.08-0.44,0.12-0.66
			C244.68,769.47,296.35,812.6,292.94,879.31z"/>
		<path class="st20" d="M258.15,879.31c0,0-10.5-64.75-52.2-103.46c-36.81-34.17-107.37-65.46-112.59,5.63"/>
		<path class="st14" d="M318.75,878.93l-8.75,0.19c7.71-30.96,15.42-81.24,19.53-119.53c0.36-3.35,0.7-6.61,1-9.75
			c1.72-17.93-2.14-37.73-8.95-57.26c-0.53-1.52-1.08-3.05-1.64-4.56c4.29,7.84,18.03,51.59,16.1,71.93
			C325.82,867.35,318.75,878.93,318.75,878.93z"/>
		<path class="st14" d="M361.3,834.87c-1.92,7.42-19.39,34.14-30.42,44.45h-1.3c12.05-17.32,24.6-43.01,23.18-56.91
			c-1.86-18.19-9.76-40.46-7.39-69.51c2.08,13.53,5.27,32.71,7.51,39.27C356.5,802.69,363.41,826.75,361.3,834.87z"/>
		<path class="st21" d="M198.1,497.11c0,0,72.68,161.07,88.47,211.74c15.71,50.43-4.38,112.9-4.38,112.9"/>
		<path class="st22" d="M333.04,746.3c-1.35-0.9,9.02-53.53,48.53-139.65"/>
		<path class="st20" d="M352.88,800.88c-0.45-2.26,38.35-57.91,77.89-71.73c19.36-6.76,30.83-4.96,38.95,0
			c8.12,4.96,24.78,20.03,25.92,39.34"/>
	</g>
</g>
<g id="PC_KEYBOARD">
	<g>
		<path class="st14" d="M751.04,700.54H632.49c5.73-8.74,19.43-15.75,36.96-19.02c3.44-0.65,7.03-1.15,10.74-1.49
			c0.86-0.08,1.73-0.15,2.61-0.2c0.21-0.02,0.41-0.04,0.62-0.04c0.62-0.05,1.24-0.09,1.87-0.11c0.29-0.02,0.59-0.04,0.89-0.05
			c0.85-0.04,1.71-0.07,2.57-0.09c1-0.02,2.01-0.03,3.02-0.03c3.95,0,7.82,0.18,11.57,0.52
			C725.92,682.1,744.19,690.08,751.04,700.54z"/>
		<path class="st2" d="M832.71,481.86v152.42c0,9.1-7.43,16.47-16.6,16.47H567.43c-9.18,0-16.61-7.37-16.61-16.47V481.86
			c0-9.1,7.43-16.47,16.61-16.47h248.68C825.28,465.39,832.71,472.76,832.71,481.86z"/>
		<path class="st23" d="M703.34,650.75v29.28c-3.09-0.28-6.25-0.45-9.48-0.5c-0.69-0.01-1.39-0.02-2.09-0.02
			c-1.01,0-2.02,0.01-3.02,0.03c-0.86,0.02-1.72,0.05-2.57,0.09c-0.3,0.01-0.6,0.03-0.89,0.05c-0.63,0.02-1.25,0.06-1.87,0.11
			c-0.21,0-0.41,0.02-0.62,0.04c-0.88,0.05-1.75,0.12-2.61,0.2v-29.28H703.34z"/>
		<circle class="st1" cx="688.54" cy="522.08" r="24.09"/>
		<path class="st23" d="M751.04,700.54l-23.64,0.19c-16.85-14-42.93-18.58-55.45-19.65c3.44-0.65,6.66-0.71,10.37-1.05
			c0.86-0.08,1.73-0.15,2.61-0.2c0.21-0.02,0.41-0.04,0.62-0.04c0.62-0.05,1.24-0.09,1.87-0.11c0.29-0.02,0.59-0.04,0.89-0.05
			c0.85-0.04,1.71-0.07,2.57-0.09c1-0.02,2.01-0.03,3.02-0.03c3.95,0,7.83,0.05,11.57,0.52
			C727.78,682.82,743.87,690.03,751.04,700.54z"/>
	</g>
	<path class="st14" d="M960.83,695.05v2.17c0,1.83-1.49,3.32-3.32,3.32h-198.3c-1.83,0-3.32-1.49-3.32-3.32v-2.17
		c0-1.83,1.49-3.32,3.32-3.32h198.3C959.34,691.73,960.83,693.22,960.83,695.05z"/>
</g>
<g id="TABLE">
	<g>
		<path class="st12" d="M1118.62,754.16v334.34c0,2.32-1.88,4.21-4.21,4.21h-35.23c-2.33,0-4.21-1.89-4.21-4.21V754.16H1118.62z"/>
		<path class="st2" d="M1174.54,709.35v36c0,4.86-3.94,8.81-8.81,8.81H466.41c-4.86,0-8.81-3.95-8.81-8.81V713.4
			c0.68-3.32,1.33-6.52,1.98-9.62c1.62-1.98,4.08-3.24,6.83-3.24h699.32C1170.6,700.54,1174.54,704.48,1174.54,709.35z"/>
		<path class="st12" d="M542.62,754.16v334.34c0,2.32-1.88,4.21-4.21,4.21h-35.23c-2.33,0-4.21-1.89-4.21-4.21V754.16H542.62z"/>
	</g>
</g>
</svg>
