<?xml version="1.0" encoding="utf-8"?>
<!-- Generator: Adobe Illustrator 25.2.0, SVG Export Plug-In . SVG Version: 6.00 Build 0)  -->
<svg version="1.1" xmlns="http://www.w3.org/2000/svg" xmlns:xlink="http://www.w3.org/1999/xlink" x="0px" y="0px"
	 viewBox="0 0 1600 1200" style="enable-background:new 0 0 1600 1200;" xml:space="preserve">
<style type="text/css">
	.st0{fill:#D7ECFF;}
	.st1{fill:#AAC5E2;}
	.st2{fill:#4D7199;}
	.st3{font-family:'MyriadPro-Regular';}
	.st4{font-size:31.6042px;}
	.st5{fill:#264663;}
	.st6{fill:#375A7A;}
	.st7{fill:#F9D5A7;}
	.st8{fill:#CEA980;}
	.st9{fill:#BC7A5C;}
	.st10{fill:#3F3F3F;}
	.st11{fill:#FFB085;}
	.st12{fill:#FFAD9F;}
	.st13{fill:#AA4437;}
	.st14{fill:none;stroke:#CEA980;stroke-linecap:round;stroke-miterlimit:10;}
	.st15{fill:none;stroke:#000000;stroke-width:2;stroke-linecap:round;stroke-miterlimit:10;}
</style>
<g id="BACKGROUND">
	<g>
		<path class="st0" d="M125.6,1046.42c0,0-254.4-220.64,25.27-448.41S506.36,210.9,563.64,159.16s363.8-259.8,589.61,160.13
			c120.94,177.63,259.51,116.16,335.33,191.39s195.43,415.02-82.55,535.75S125.6,1046.42,125.6,1046.42z"/>
		<path class="st1" d="M1461.93,1057.37c0,44.59-305.1,80.72-681.46,80.72c-376.37,0-681.47-36.14-681.47-80.72
			c0-29.71,135.42-55.66,337.12-69.68c36.59-2.54,75.37-4.7,115.92-6.41c71.41-3,148.32-4.64,228.44-4.64
			c86.85,0,169.92,1.92,246.31,5.43c3.65,0.16,7.29,0.34,10.92,0.52c22.38,1.08,44.16,2.3,65.27,3.65
			c102.84,6.55,189.82,16.14,252.4,27.78C1422.83,1026.53,1461.93,1041.41,1461.93,1057.37z"/>
	</g>
</g>
<g id="SPEECH_BALLOON">
	<g>
		<ellipse class="st2" cx="765.35" cy="187.67" rx="65.6" ry="64.9"/>
		<path class="st2" d="M807.2,217.33l25.37,31.03c1.17,1.43-0.4,3.45-2.08,2.68l-40.04-18.41L807.2,217.33z"/>
		<text transform="matrix(1 0 0 1 733.3571 184.3376)" class="st0 st3 st4">Z</text>
		<text transform="matrix(1 0 0 1 753.9781 198.6833)" class="st0 st3 st4">Z</text>
		<text transform="matrix(1 0 0 1 774.151 211.7097)" class="st0 st3 st4">Z</text>
	</g>
</g>
<g id="CHAIR">
	<g>
		<g>
			<rect x="881.24" y="773.55" class="st5" width="31.24" height="138.22"/>
			<g>
				<path d="M920.32,868.37v37.94c0,3.17-2.57,5.74-5.74,5.74h-35.42c-1.33,0-2.54-0.45-3.51-1.21c-1.35-1.04-2.22-2.69-2.22-4.53
					v-37.94c0-1.77,0.8-3.35,2.07-4.41c0.99-0.82,2.27-1.33,3.66-1.33h35.42C917.74,862.63,920.32,865.2,920.32,868.37z"/>
				<path class="st5" d="M915.44,869.69v35.42c0,3.17-2.57,5.73-5.74,5.73h-34.06c-1.35-1.04-2.22-2.69-2.22-4.53v-37.94
					c0-1.77,0.8-3.35,2.07-4.41h34.21C912.87,863.96,915.44,866.52,915.44,869.69z"/>
			</g>
			<g>
				<path class="st5" d="M838.43,992.29c0,8.49-6.88,15.37-15.38,15.37c-4.74,0-8.99-2.14-11.8-5.53c-2.23-2.66-3.57-6.09-3.57-9.84
					c0-8.49,6.88-15.37,15.37-15.37c3.23,0,6.22,0.99,8.71,2.71C835.79,982.4,838.43,987.04,838.43,992.29z"/>
				<path class="st2" d="M835.34,989.48c0,8.49-6.88,15.37-15.38,15.37c-3.23,0-6.24-0.99-8.71-2.72c-2.23-2.66-3.57-6.09-3.57-9.84
					c0-8.49,6.88-15.37,15.37-15.37c3.23,0,6.22,0.99,8.71,2.71C833.99,982.3,835.34,985.73,835.34,989.48z"/>
				<path class="st5" d="M912.24,992.29c0,8.49-6.88,15.37-15.37,15.37c-4.53,0-8.6-1.96-11.43-5.08
					c-2.44-2.72-3.95-6.33-3.95-10.29c0-8.49,6.88-15.37,15.38-15.37c2.94,0,5.69,0.82,8.03,2.25
					C909.31,981.88,912.24,986.74,912.24,992.29z"/>
				<path class="st2" d="M908.87,989.48c0,8.49-6.88,15.37-15.37,15.37c-2.95,0-5.71-0.82-8.05-2.27
					c-2.44-2.72-3.95-6.33-3.95-10.29c0-8.49,6.88-15.37,15.38-15.37c2.94,0,5.69,0.82,8.03,2.25
					C907.37,981.89,908.87,985.52,908.87,989.48z"/>
				<path class="st5" d="M984.69,992.29c0,8.49-6.88,15.37-15.37,15.37c-3.04,0-5.87-0.88-8.26-2.41
					c-4.28-2.73-7.12-7.51-7.12-12.97c0-8.49,6.88-15.37,15.38-15.37c1.91,0,3.74,0.35,5.43,0.99
					C980.55,980.1,984.69,985.72,984.69,992.29z"/>
				<path class="st2" d="M981.87,990.89c0,8.49-6.87,15.37-15.36,15.37c-1.92,0-3.76-0.35-5.45-1c-4.28-2.73-7.12-7.51-7.12-12.97
					c0-8.49,6.88-15.37,15.38-15.37c1.91,0,3.74,0.35,5.43,0.99C979.03,980.64,981.87,985.43,981.87,990.89z"/>
				<path class="st5" d="M979.52,971c-0.12,4.9-3.01,5.86-3.01,5.86s-11.04,0.12-13.2,0c-2.15-0.1-3.43-3.1-3.43-3.1
					s0.1-13.82,0-19.95c-0.12-6.13-2.47-7.98-2.47-7.98s-43.57-13.65-45.38-14.88c-1.83-1.23-4.94,4.3-4.94,4.3s0,28.22,0,35.74
					s-3.21,5.67-3.21,5.67s-11.38,0.14-15.03,0c-3.65-0.14-3.43-7.36-3.43-7.36s0-25.33,0-31.92c-1.18-5.07-2.15-4.76-4.72-5.36
					c-2.57-0.62-38.95,13.03-42.59,14.11c-2.03,0.6-3.28,2.19-3.97,3.49v21.82c0,2.88-1.63,5.22-3.65,5.22h-16.1
					c-2,0-3.65-2.33-3.65-5.22v-32.38c-0.86-5.22,5.04-7.52,5.04-7.52l63.2-19.78h39.05c0,0,48.61,17.19,55.27,18.99
					c6.64,1.83,6.22,6.32,6.22,6.32S979.62,966.1,979.52,971z"/>
			</g>
		</g>
		<g>
			<path class="st2" d="M1128.34,459.5c-4.6,34.25-41.36,132.48-67.47,195.34c-12.14,29.24-21.98,50.83-25.19,54.76
				c-10.11,12.35-150.51,62.34-150.51,62.34l-6.25-190.38l7.48-100.52c0,0,21.49-57.2,44.82-61.72
				c20.82-4.04,166.91-8.82,193.23,25.88C1127.62,449.37,1129.07,454.11,1128.34,459.5z"/>
			<path class="st2" d="M1007.56,715.21v54.47c0,0-2.85,0.63-7.8,1.69c-28.95,6.27-129.66,27.92-150.79,30.13
				c-1.15,0.12-2.07,0.19-2.72,0.19c-14.77,0-157.64-14.61-157.64-14.61l25.83-46.61l133.65,4.5l14.87-2.77l137.23-25.62
				L1007.56,715.21z"/>
			<path class="st6" d="M1000.19,716.59l-0.43,54.79c-28.95,6.27-129.66,27.92-150.79,30.13l0.96-56.53l13.03-2.77L1000.19,716.59z"
				/>
			<path class="st6" d="M1128.34,459.5c-4.6,34.25-41.36,132.48-67.47,195.34l-61.86,8.7c0,0,59.7-212.84,86.09-224.63
				c15.11-6.75,29.67-0.4,39.36,6.28C1127.62,449.37,1129.07,454.11,1128.34,459.5z"/>
			<polygon points="989.71,718.55 989.71,773.55 1001.8,771.19 996.74,717.09 			"/>
		</g>
	</g>
</g>
<g id="PLANT">
	<g>
		<path class="st2" d="M1232.55,850.58c-0.28,0.47-0.57,0.96-0.86,1.43c0,0-53.12-47.2-37.52-113.62
			c15.61-66.43,39.43-68.86,24.93-124.87c0,0,7.1,3.09,16.41,10.29C1265.06,646.71,1316.73,711.22,1232.55,850.58z"/>
		<path class="st6" d="M1232.55,850.58c-13.68-15.23-43.13-55.28-31-106.95c15.61-66.42,39.43-68.86,24.93-124.87
			c0,0,3.6,1.56,9.03,5.06C1265.06,646.71,1316.73,711.22,1232.55,850.58z"/>
		<path class="st2" d="M1242.27,641.3c0,0,21.8,101.19,1.21,192.86C1243.48,834.17,1254.54,755.87,1242.27,641.3z"/>
		<path class="st2" d="M1234.84,834.17c-0.78-25.36-9.67-75.93-66.2-93.27c-76.12-23.36-78.37-4.41-101.88-23.13
			c-0.54-5.05-0.49-8.01-0.49-8.01c23.98,19.38,25.72,0,102.38,23.51C1231.63,752.61,1235.48,813.18,1234.84,834.17z"/>
		<path class="st6" d="M1234.89,852.63c-170.47-9.63-168.63-135.26-168.63-135.26c0.17,0.13,0.33,0.26,0.49,0.4
			c23.51,18.72,25.77-0.23,101.88,23.13c56.53,17.34,65.42,67.91,66.2,93.27c-0.13,4.55-0.48,7.25-0.48,7.25l0.4,2.65
			c0,0,0,0.01,0,0.02c-0.02,0.32-0.03,0.63-0.06,0.92c-0.15,2.56-0.34,4.01-0.34,4.01L1234.89,852.63z"/>
		<path class="st2" d="M1375.14,658.67c-0.53-0.96-0.84-1.46-0.84-1.46c-19.97,54.3-40.94,42.75-91.59,88.47
			c-39.22,35.42-37.99,84.83-35.44,105.3c-0.77,0.35-1.55,0.69-2.33,1.04c0,0-16.8-69.04,33.84-114.77
			c50.63-45.72,71.61-34.16,91.58-88.47C1370.36,648.79,1372.58,652.34,1375.14,658.67z"/>
		<path class="st6" d="M1248.87,860.45c0,0-0.86-3.51-1.59-9.47c-2.55-20.48-3.78-69.88,35.44-105.3
			c50.65-45.72,71.62-34.17,91.59-88.47c0,0,0.31,0.51,0.84,1.46c0.01,0.01,0.01,0.02,0.02,0.04
			C1382.68,672.52,1432.89,778.61,1248.87,860.45z"/>
		<path class="st2" d="M1440.27,711.01c-0.18-5.01-0.69-7.94-0.69-7.94c-38.75,42.97-53.91,24.44-117.93,48.02
			c-51.62,19.02-68.2,68.43-72.67,86.86c-0.48,0.02-0.98,0.03-1.46,0.06c0,0,10.11-70.34,74.14-93.93
			c64.02-23.59,79.18-5.05,117.93-48.02C1439.57,696.06,1440.59,701.81,1440.27,711.01z"/>
		<path class="st2" d="M1293.58,837.9c0,0,66.59-65.51,81.56-166.69C1375.14,671.21,1347.54,777.82,1293.58,837.9z"/>
		<path class="st6" d="M1247.51,845.02c0,0,0.38-2.64,1.46-7.07c4.48-18.43,21.05-67.85,72.67-86.86
			c64.02-23.58,79.18-5.05,117.93-48.02c0,0,0.52,2.93,0.69,7.94C1441.32,739.92,1431.29,838.2,1247.51,845.02z"/>
		<path class="st2" d="M1271.52,839.49c0,0,90.23-24.18,153.13-104.83C1424.65,734.66,1348.09,813.82,1271.52,839.49z"/>
		<path class="st2" d="M1082.49,734.66c0,0,90.6,39.38,128.04,101.7C1210.54,836.36,1165.98,783.39,1082.49,734.66z"/>
		<path class="st7" d="M1344.43,848.76l-32.37,159.41c-1.29,6.37-6.88,10.94-13.38,10.94h-116.41c-4.73,0-8.99-2.42-11.44-6.19
			c-0.98-1.48-1.67-3.19-2-5.04l-28.77-159.42c-1.52-8.37,4.93-16.08,13.44-16.08h177.55c1.77,0,3.44,0.33,4.97,0.93
			C1341.98,835.64,1345.8,842.03,1344.43,848.76z"/>
		<path class="st8" d="M1344.43,848.76l-32.37,159.41c-1.29,6.37-6.88,10.94-13.38,10.94h-116.41c-4.73,0-8.99-2.42-11.44-6.19
			c107.2-35.06,152.03-140.74,165.19-179.61C1341.98,835.64,1345.8,842.03,1344.43,848.76z"/>
	</g>
</g>
<g id="MALE">
	<g>
		<g>
			<path class="st7" d="M878.93,455.34c0,0-16.78,4.74-28.86,24.68c-12.07,19.94-30.33,137.59-30.33,137.59l47.17-2.53
				L878.93,455.34z"/>
			<path class="st8" d="M900.22,457.44c0,0-16.78,4.74-28.86,24.68c-12.07,19.94-30.33,137.59-30.33,137.59l47.17-2.53
				L900.22,457.44z"/>
		</g>
		<g>
			<path d="M667.02,971.29l-3.37,66.83c0,0-128.04,11.79-130.29,4.21c-2.25-7.58,64.84-43.8,71.31-49.98
				c6.47-6.18,17.98-27.52,17.98-27.52L667.02,971.29z"/>
			<path class="st9" d="M850.5,657.93c0,0-162.58,30.33-174.37,49.7c-10.77,17.7-59.5,233.61-67.86,270.85
				c-0.63,2.8,1.5,5.45,4.37,5.45h59.82c2.13,0,3.97-1.5,4.39-3.59c5.77-28.9,44.88-222.8,56.57-230.59
				c12.64-8.42,137.31-32.85,148.26-42.12c10.95-9.27,17.69-49.7,17.69-49.7H850.5z"/>
			<path class="st10" d="M741.88,989.83l-3.37,66.83c0,0-128.04,11.79-130.29,4.21c-2.25-7.58,64.84-43.8,71.31-49.98
				c6.47-6.18,17.98-27.52,17.98-27.52L741.88,989.83z"/>
			<path class="st11" d="M923.08,670.57c0,0-162.58,30.33-174.37,49.7c-10.77,17.7-59.5,233.61-67.86,270.85
				c-0.63,2.8,1.5,5.45,4.37,5.45h59.82c2.13,0,3.97-1.5,4.39-3.59c5.77-28.9,44.88-222.8,56.57-230.59
				c12.64-8.42,137.31-32.85,148.26-42.12c10.95-9.27,17.69-49.7,17.69-49.7H923.08z"/>
		</g>
		<g>
			<path class="st7" d="M1024.81,468.86l-58.2,146.39H844.74l18.53-99.02c0,0,11.72-58.95,12.84-59.94
				c3.18-2.8,17.31-10.94,74.76-12.34C1020.52,442.28,1024.81,468.86,1024.81,468.86z"/>
			<path class="st8" d="M994.68,459.5c0,0-51.09,144.94-148.43,147.94c0,0,133.45,6.52,134.95,4.73
				C982.7,610.39,994.68,459.5,994.68,459.5z"/>
		</g>
		<g>
			<g>
				<path class="st12" d="M804.49,613.01c-0.75,0-41.56-1.87-47.36,0s-21.53,17.03-21.53,17.03l73.57,7.3L804.49,613.01z"/>
				<path class="st13" d="M800,611.32c0,0-8.99,12.17-21.53,16.85s30.7,4.49,30.7,4.49L800,611.32z"/>
				<path class="st7" d="M800,643.33v-34.07c0,0,148.26-4.87,151.26-10.86c3-5.99,30.19-133.36,38.94-140.4
					c0.52-0.42,1.05-0.81,1.57-1.18c14.92-10.34,30.87,1.55,33.04,12.03c2.25,10.86-18.51,149.38-38.73,164.73
					S800,643.33,800,643.33z"/>
			</g>
			<path class="st14" d="M1007.57,452.85c0,0-13.09-0.53-20.27,10.08c-5.25,7.76-17.14,56.82-17.14,56.82"/>
		</g>
		<g>
			<path d="M1005.52,323.53c0.17-1.78,9.62-102.01-56.73-108.61c-66.35-6.61-85.48,36.33-88.85,49.53
				c-3.36,13.21-0.98,59.67,13.62,68.52C888.17,341.82,1005.52,323.53,1005.52,323.53z"/>
			<path class="st12" d="M933.09,457.44c-9.55-0.64-9.17-11.12-9.17-11.12l-0.76-8.66l-2.05-23.35L950.5,413
				c0,0,0.62,4.97,1.55,12.74c0.62,5.11,1.37,11.44,2.2,18.34C954.79,448.66,942.64,458.08,933.09,457.44z"/>
			<path class="st13" d="M952.06,425.73c-10.57,8.29-21.92,11.07-28.89,11.93l-2.05-23.35L950.5,413
				C950.5,413,951.12,417.97,952.06,425.73z"/>
			<path class="st12" d="M990.89,353.25c0,0-7.1,58.87-47.81,62.1c-40.71,3.23-55.84-13.48-65.92-51.51
				c-10.08-38.03-10.08-38.03-10.08-38.03s26.93-21.22,40.91-53.38c0,0,28.83,35.14,70.86,51.81c0,0,16.03-24.23,25.09-14.35
				C1013,319.77,1017.35,344.14,990.89,353.25z"/>
			<path class="st13" d="M1003.6,322.47c-0.72-3.86-4.85-6.04-8.47-4.53c-4.02,1.67-9.01,4.75-9.1,9.73
				c-0.16,8.37-0.26,23.65,3.65,18.39C992.89,341.74,1005.37,332.01,1003.6,322.47z"/>
			<path class="st15" d="M879.31,342.94c0,0,10.67,11.23,23.87,0"/>
			<path class="st15" d="M928.19,340.45c0,0,10.67,11.23,23.87,0"/>
			<path class="st15" d="M915.83,340.19l2.24,24.41c0,0-4.94-1.78-7.01,1.27s-0.64,10.73,4.75,10.88"/>
			<path class="st13" d="M951,393.59c0.22,2.75-1.94,5.46-5.55,7.53c0.16,1.94,2.37,3.93,1.09,5.54c-1.41,1.79-4.01,0-4.36-1.48
				c-0.18-0.79-1.05-1.43-1.82-1.86c-2.21,0.7-4.66,1.21-7.26,1.46c-10.31,1.01-19-2.38-19.41-7.55c-0.42-5.18,7.6-10.19,17.91-11.2
				C941.89,385.02,950.58,388.41,951,393.59z"/>
		</g>
	</g>
</g>
<g id="PC">
	<g>
		<path class="st5" d="M730.46,634.59H600.21c4.78-15.46,20.55-28.07,41.3-33.62c2.16-0.57,4.36-1.08,6.6-1.5
			c5.49-1.02,11.26-1.57,17.22-1.57c5.95,0,11.72,0.55,17.22,1.56C706.53,603.94,725.18,617.53,730.46,634.59z"/>
		<path class="st6" d="M722.89,634.59H600.21c4.78-15.46,20.55-28.07,41.3-33.62c5.36-0.98,10.98-1.5,16.78-1.5
			c5.95,0,11.72,0.55,17.22,1.56C698.75,605.37,716.98,618.27,722.89,634.59z"/>
		<path class="st5" d="M682.55,544.48v54.99c-5.5-1.01-11.27-1.56-17.22-1.56c-5.96,0-11.73,0.55-17.22,1.57v-55H682.55z"/>
		<path class="st2" d="M837.53,546.82H496.5c-11.28,0-20.43-9.14-20.43-20.43V332.21c0-11.28,9.14-20.43,20.43-20.43h341.03
			c11.28,0,20.43,9.14,20.43,20.43V526.4C857.96,537.68,848.81,546.82,837.53,546.82z"/>
		<circle class="st1" cx="667.02" cy="387.1" r="21.13"/>
	</g>
</g>
<g id="TABLE">
	<g>
		<path class="st6" d="M511.15,1102.71h-35.38c-4.65,0-8.43-3.77-8.43-8.43V691.63h52.23v402.66
			C519.58,1098.94,515.81,1102.71,511.15,1102.71z"/>
		<path class="st6" d="M1036.38,1102.71h-35.38c-4.65,0-8.43-3.77-8.43-8.43V691.63h52.23v402.66
			C1044.81,1098.94,1041.04,1102.71,1036.38,1102.71z"/>
		<path class="st2" d="M1104.2,633.5v48.86c0,5.11-4.16,9.26-9.27,9.26H412.6c-5.12,0-9.27-4.15-9.27-9.26V633.5
			c0-5.11,4.15-9.26,9.27-9.26h682.33C1100.04,624.24,1104.2,628.39,1104.2,633.5z"/>
	</g>
</g>
</svg>
