<?xml version="1.0" encoding="utf-8"?>
<!-- Generator: Adobe Illustrator 25.2.0, SVG Export Plug-In . SVG Version: 6.00 Build 0)  -->
<svg version="1.1" xmlns="http://www.w3.org/2000/svg" xmlns:xlink="http://www.w3.org/1999/xlink" x="0px" y="0px"
	 viewBox="0 0 1600 1200" style="enable-background:new 0 0 1600 1200;" xml:space="preserve">
<style type="text/css">
	.st0{fill:#D7ECFF;}
	.st1{fill:#AAC5E2;}
	.st2{fill:#4D7199;}
	.st3{fill:#375A7A;}
	.st4{fill:#2A4B63;}
	.st5{fill:#90AACB;}
	.st6{fill:#5D8BB5;}
	.st7{fill:#F9D5A7;}
	.st8{fill:#CEA980;}
	.st9{fill:#FFAD9F;}
	.st10{fill:#AA4437;}
	.st11{fill:none;stroke:#000000;stroke-width:2;stroke-linecap:round;stroke-miterlimit:10;}
	.st12{fill:#FFB085;}
	.st13{fill:#BC7A5C;}
	.st14{fill:#FFAD9F;stroke:#AA4437;stroke-miterlimit:10;}
	.st15{fill:none;stroke:#4D7199;stroke-miterlimit:10;}
	.st16{fill:#FEF1E6;}
</style>
<g id="BACKGROUND">
	<g>
		<path class="st0" d="M335.31,1037.38c0,0-230.75-69.5-146.33-249.7s174.59-179.06,225.88-387.16S986.75,58.7,1075.39,261.33
			c88.64,202.63,277.18,330.53,336.27,419.24c59.09,88.71,123.82,263.3-60.5,356.81S335.31,1037.38,335.31,1037.38z"/>
		<ellipse class="st1" cx="838.57" cy="1056.81" rx="639.04" ry="75.7"/>
	</g>
</g>
<g id="SPEECH_BALLOON">
	<g>
		<path class="st2" d="M792.84,178.31l11.99,22.12c1.26,2.32-1.53,4.74-3.65,3.16l-27.13-20.22c-8.67,1.68-17.75,2.57-27.12,2.57
			c-59.3,0-107.37-35.61-107.37-79.54s48.07-79.54,107.37-79.54c59.31,0,107.38,35.61,107.38,79.54
			C854.29,138.15,829.17,165.57,792.84,178.31z"/>
		<path class="st0" d="M821.14,109.2H669.77c-2.14,0-3.88-1.74-3.88-3.88v-0.3c0-2.14,1.74-3.88,3.88-3.88h151.37
			c2.14,0,3.88,1.74,3.88,3.88v0.3C825.03,107.46,823.29,109.2,821.14,109.2z"/>
		<path class="st0" d="M809.28,132.94H669.77c-2.14,0-3.88-1.74-3.88-3.88v-0.3c0-2.14,1.74-3.88,3.88-3.88h139.51
			c2.14,0,3.88,1.74,3.88,3.88v0.3C813.17,131.2,811.43,132.94,809.28,132.94z"/>
		<path class="st0" d="M809.28,81.44H669.77c-2.14,0-3.88-1.74-3.88-3.88v-0.3c0-2.14,1.74-3.88,3.88-3.88h139.51
			c2.14,0,3.88,1.74,3.88,3.88v0.3C813.17,79.7,811.43,81.44,809.28,81.44z"/>
	</g>
</g>
<g id="SHOWCASE">
	<g>
		<g>
			<path class="st3" d="M1313.86,1018.05H980.89c-15.8,0-28.61-12.81-28.61-28.61V232.71c0-15.8,12.81-28.61,28.61-28.61h332.97
				c15.8,0,28.61,12.81,28.61,28.61v756.73C1342.47,1005.24,1329.66,1018.05,1313.86,1018.05z"/>
			<path class="st2" d="M1304.82,371.49H989.94v-94.06c0-15.8,12.81-28.61,28.61-28.61h257.66c15.8,0,28.61,12.81,28.61,28.61
				V371.49z"/>
			<path class="st4" d="M1295.45,853.99H999.3c-5.17,0-9.37,4.19-9.37,9.37v103.94c0,5.17,4.19,9.37,9.37,9.37h296.15
				c5.17,0,9.37-4.19,9.37-9.37V863.35C1304.82,858.18,1300.63,853.99,1295.45,853.99z"/>
			<rect x="989.94" y="398.49" class="st2" width="314.88" height="122.67"/>
			<rect x="989.94" y="548.16" class="st2" width="314.88" height="122.67"/>
			<rect x="989.94" y="697.83" class="st2" width="314.88" height="122.67"/>
		</g>
		<g>
			<g>
				<path class="st5" d="M1282.27,313.43v58.24h-35.73v-58.24c0-0.12,0.03-0.24,0.09-0.36c0.88-1.83,8.51-3.26,17.77-3.26
					c9.26,0,16.89,1.43,17.77,3.26C1282.24,313.2,1282.27,313.31,1282.27,313.43z"/>
				<ellipse class="st6" cx="1264.4" cy="313.77" rx="15.64" ry="2.83"/>
				<path class="st6" d="M1247.66,335.72v20.85c0,0,17.41,6.1,33.49,0v-20.85C1281.14,335.72,1264.27,339.7,1247.66,335.72z"/>
			</g>
			<g>
				<path class="st5" d="M1201.95,313.43v58.24h-35.73v-58.24c0-0.12,0.03-0.24,0.09-0.36c0.88-1.83,8.51-3.26,17.77-3.26
					s16.89,1.43,17.77,3.26C1201.92,313.2,1201.95,313.31,1201.95,313.43z"/>
				<ellipse class="st6" cx="1184.09" cy="313.77" rx="15.64" ry="2.83"/>
				<path class="st6" d="M1167.35,335.72v20.85c0,0,17.41,6.1,33.49,0v-20.85C1200.83,335.72,1183.96,339.7,1167.35,335.72z"/>
			</g>
			<g>
				<path class="st5" d="M1122.97,313.43v58.24h-35.73v-58.24c0-0.12,0.03-0.24,0.09-0.36c0.88-1.83,8.51-3.26,17.77-3.26
					c9.26,0,16.89,1.43,17.77,3.26C1122.94,313.2,1122.97,313.31,1122.97,313.43z"/>
				<ellipse class="st6" cx="1105.1" cy="313.77" rx="15.64" ry="2.83"/>
				<path class="st6" d="M1088.36,335.72v20.85c0,0,17.41,6.1,33.49,0v-20.85C1121.84,335.72,1104.97,339.7,1088.36,335.72z"/>
			</g>
			<g>
				<path class="st5" d="M1048.22,313.43v58.24h-35.73v-58.24c0-0.12,0.03-0.24,0.09-0.36c0.88-1.83,8.51-3.26,17.77-3.26
					c9.26,0,16.89,1.43,17.77,3.26C1048.19,313.2,1048.22,313.31,1048.22,313.43z"/>
				<ellipse class="st6" cx="1030.35" cy="313.77" rx="15.64" ry="2.83"/>
				<path class="st6" d="M1013.61,335.72v20.85c0,0,17.41,6.1,33.49,0v-20.85C1047.1,335.72,1030.22,339.7,1013.61,335.72z"/>
			</g>
		</g>
		<g>
			<g>
				<path class="st5" d="M1282.27,464.2v58.24h-35.73V464.2c0-0.12,0.03-0.24,0.09-0.36c0.88-1.83,8.51-3.26,17.77-3.26
					c9.26,0,16.89,1.43,17.77,3.26C1282.24,463.96,1282.27,464.07,1282.27,464.2z"/>
				<ellipse class="st6" cx="1264.4" cy="464.53" rx="15.64" ry="2.83"/>
				<path class="st6" d="M1247.66,486.49v20.85c0,0,17.41,6.1,33.49,0v-20.85C1281.14,486.49,1264.27,490.46,1247.66,486.49z"/>
			</g>
			<g>
				<path class="st5" d="M1201.95,464.2v58.24h-35.73V464.2c0-0.12,0.03-0.24,0.09-0.36c0.88-1.83,8.51-3.26,17.77-3.26
					s16.89,1.43,17.77,3.26C1201.92,463.96,1201.95,464.07,1201.95,464.2z"/>
				<ellipse class="st6" cx="1184.09" cy="464.53" rx="15.64" ry="2.83"/>
				<path class="st6" d="M1167.35,486.49v20.85c0,0,17.41,6.1,33.49,0v-20.85C1200.83,486.49,1183.96,490.46,1167.35,486.49z"/>
			</g>
			<g>
				<path class="st5" d="M1122.97,464.2v58.24h-35.73V464.2c0-0.12,0.03-0.24,0.09-0.36c0.88-1.83,8.51-3.26,17.77-3.26
					c9.26,0,16.89,1.43,17.77,3.26C1122.94,463.96,1122.97,464.07,1122.97,464.2z"/>
				<ellipse class="st6" cx="1105.1" cy="464.53" rx="15.64" ry="2.83"/>
				<path class="st6" d="M1088.36,486.49v20.85c0,0,17.41,6.1,33.49,0v-20.85C1121.84,486.49,1104.97,490.46,1088.36,486.49z"/>
			</g>
			<g>
				<path class="st5" d="M1048.22,464.2v58.24h-35.73V464.2c0-0.12,0.03-0.24,0.09-0.36c0.88-1.83,8.51-3.26,17.77-3.26
					c9.26,0,16.89,1.43,17.77,3.26C1048.19,463.96,1048.22,464.07,1048.22,464.2z"/>
				<ellipse class="st6" cx="1030.35" cy="464.53" rx="15.64" ry="2.83"/>
				<path class="st6" d="M1013.61,486.49v20.85c0,0,17.41,6.1,33.49,0v-20.85C1047.1,486.49,1030.22,490.46,1013.61,486.49z"/>
			</g>
		</g>
		<g>
			<g>
				<path class="st5" d="M1284.5,613.12v58.24h-35.73v-58.24c0-0.12,0.03-0.24,0.09-0.36c0.88-1.83,8.51-3.26,17.77-3.26
					s16.89,1.43,17.77,3.26C1284.46,612.88,1284.5,612.99,1284.5,613.12z"/>
				<ellipse class="st6" cx="1266.63" cy="613.45" rx="15.64" ry="2.83"/>
				<path class="st6" d="M1249.89,635.41v20.85c0,0,17.41,6.1,33.49,0v-20.85C1283.37,635.41,1266.5,639.38,1249.89,635.41z"/>
			</g>
			<g>
				<path class="st5" d="M1204.18,613.12v58.24h-35.73v-58.24c0-0.12,0.03-0.24,0.09-0.36c0.88-1.83,8.51-3.26,17.77-3.26
					c9.26,0,16.89,1.43,17.77,3.26C1204.15,612.88,1204.18,612.99,1204.18,613.12z"/>
				<ellipse class="st6" cx="1186.32" cy="613.45" rx="15.64" ry="2.83"/>
				<path class="st6" d="M1169.57,635.41v20.85c0,0,17.41,6.1,33.49,0v-20.85C1203.06,635.41,1186.18,639.38,1169.57,635.41z"/>
			</g>
			<g>
				<path class="st5" d="M1125.2,613.12v58.24h-35.73v-58.24c0-0.12,0.03-0.24,0.09-0.36c0.88-1.83,8.51-3.26,17.77-3.26
					c9.26,0,16.89,1.43,17.77,3.26C1125.16,612.88,1125.2,612.99,1125.2,613.12z"/>
				<ellipse class="st6" cx="1107.33" cy="613.45" rx="15.64" ry="2.83"/>
				<path class="st6" d="M1090.59,635.41v20.85c0,0,17.41,6.1,33.49,0v-20.85C1124.07,635.41,1107.2,639.38,1090.59,635.41z"/>
			</g>
			<g>
				<path class="st5" d="M1050.45,613.12v58.24h-35.73v-58.24c0-0.12,0.03-0.24,0.09-0.36c0.88-1.83,8.51-3.26,17.77-3.26
					c9.26,0,16.89,1.43,17.77,3.26C1050.42,612.88,1050.45,612.99,1050.45,613.12z"/>
				<ellipse class="st6" cx="1032.58" cy="613.45" rx="15.64" ry="2.83"/>
				<path class="st6" d="M1015.84,635.41v20.85c0,0,17.41,6.1,33.49,0v-20.85C1049.33,635.41,1032.45,639.38,1015.84,635.41z"/>
			</g>
		</g>
		<g>
			<g>
				<path class="st5" d="M1282.27,762.03v58.24h-35.73v-58.24c0-0.12,0.03-0.24,0.09-0.36c0.88-1.83,8.51-3.26,17.77-3.26
					c9.26,0,16.89,1.43,17.77,3.26C1282.24,761.8,1282.27,761.91,1282.27,762.03z"/>
				<ellipse class="st6" cx="1264.4" cy="762.37" rx="15.64" ry="2.83"/>
				<path class="st6" d="M1247.66,784.32v20.85c0,0,17.41,6.1,33.49,0v-20.85C1281.14,784.32,1264.27,788.3,1247.66,784.32z"/>
			</g>
			<g>
				<path class="st5" d="M1201.95,762.03v58.24h-35.73v-58.24c0-0.12,0.03-0.24,0.09-0.36c0.88-1.83,8.51-3.26,17.77-3.26
					s16.89,1.43,17.77,3.26C1201.92,761.8,1201.95,761.91,1201.95,762.03z"/>
				<ellipse class="st6" cx="1184.09" cy="762.37" rx="15.64" ry="2.83"/>
				<path class="st6" d="M1167.35,784.32v20.85c0,0,17.41,6.1,33.49,0v-20.85C1200.83,784.32,1183.96,788.3,1167.35,784.32z"/>
			</g>
			<g>
				<path class="st5" d="M1122.97,762.03v58.24h-35.73v-58.24c0-0.12,0.03-0.24,0.09-0.36c0.88-1.83,8.51-3.26,17.77-3.26
					c9.26,0,16.89,1.43,17.77,3.26C1122.94,761.8,1122.97,761.91,1122.97,762.03z"/>
				<ellipse class="st6" cx="1105.1" cy="762.37" rx="15.64" ry="2.83"/>
				<path class="st6" d="M1088.36,784.32v20.85c0,0,17.41,6.1,33.49,0v-20.85C1121.84,784.32,1104.97,788.3,1088.36,784.32z"/>
			</g>
			<g>
				<path class="st5" d="M1048.22,762.03v58.24h-35.73v-58.24c0-0.12,0.03-0.24,0.09-0.36c0.88-1.83,8.51-3.26,17.77-3.26
					c9.26,0,16.89,1.43,17.77,3.26C1048.19,761.8,1048.22,761.91,1048.22,762.03z"/>
				<ellipse class="st6" cx="1030.35" cy="762.37" rx="15.64" ry="2.83"/>
				<path class="st6" d="M1013.61,784.32v20.85c0,0,17.41,6.1,33.49,0v-20.85C1047.1,784.32,1030.22,788.3,1013.61,784.32z"/>
			</g>
		</g>
	</g>
</g>
<g id="PLANT">
	<g>
		<path class="st2" d="M370.04,873.1c-0.24,0.42-0.5,0.84-0.76,1.26c0,0-46.77-41.56-33.04-100.05
			c13.74-58.49,34.72-60.63,21.95-109.95c0,0,6.26,2.72,14.45,9.06C398.66,693.59,444.16,750.39,370.04,873.1z"/>
		<path class="st3" d="M370.04,873.1c-12.05-13.41-37.98-48.67-27.3-94.18c13.74-58.48,34.72-60.63,21.95-109.95
			c0,0,3.17,1.38,7.95,4.45C398.66,693.59,444.16,750.39,370.04,873.1z"/>
		<path class="st2" d="M378.6,688.83c0,0,19.2,89.1,1.07,169.82C379.66,858.65,389.4,789.71,378.6,688.83z"/>
		<path class="st2" d="M372.05,858.65c-0.69-22.33-8.51-66.86-58.29-82.13c-67.02-20.57-69.01-3.88-89.71-20.37
			c-0.47-4.45-0.44-7.05-0.44-7.05c21.11,17.06,22.65,0,90.15,20.7C369.22,786.83,372.61,840.17,372.05,858.65z"/>
		<path class="st3" d="M372.1,874.91c-150.1-8.48-148.49-119.1-148.49-119.1c0.15,0.12,0.29,0.23,0.44,0.35
			c20.7,16.48,22.69-0.2,89.71,20.37c49.78,15.27,57.6,59.8,58.29,82.13c-0.12,4.01-0.43,6.38-0.43,6.38l0.35,2.33
			c0,0,0,0.01,0,0.02c-0.02,0.28-0.03,0.55-0.05,0.81c-0.14,2.26-0.3,3.53-0.3,3.53L372.1,874.91z"/>
		<path class="st2" d="M495.59,704.12c-0.46-0.84-0.74-1.29-0.74-1.29c-17.59,47.81-36.05,37.64-80.65,77.9
			c-34.53,31.19-33.45,74.69-31.2,92.72c-0.68,0.31-1.37,0.61-2.05,0.92c0,0-14.8-60.8,29.8-101.06
			c44.59-40.26,63.05-30.08,80.64-77.9C491.39,695.42,493.33,698.54,495.59,704.12z"/>
		<path class="st3" d="M384.41,881.8c0,0-0.76-3.09-1.4-8.34c-2.25-18.03-3.33-61.53,31.2-92.72c44.6-40.26,63.06-30.09,80.65-77.9
			c0,0,0.27,0.45,0.74,1.29c0.01,0.01,0.01,0.02,0.02,0.04C502.23,716.31,546.44,809.73,384.41,881.8z"/>
		<path class="st2" d="M552.94,750.21c-0.15-4.42-0.61-6.99-0.61-6.99c-34.12,37.84-47.47,21.52-103.84,42.28
			c-45.46,16.74-60.05,60.25-63.99,76.48c-0.43,0.02-0.86,0.03-1.29,0.05c0,0,8.9-61.94,65.28-82.71
			c56.37-20.77,69.73-4.44,103.84-42.28C552.33,737.04,553.22,742.1,552.94,750.21z"/>
		<path class="st2" d="M423.78,861.94c0,0,58.63-57.69,71.81-146.78C495.59,715.16,471.29,809.04,423.78,861.94z"/>
		<path class="st3" d="M383.21,868.21c0,0,0.34-2.32,1.29-6.23c3.94-16.23,18.54-59.74,63.99-76.48
			c56.37-20.76,69.73-4.45,103.84-42.28c0,0,0.46,2.58,0.61,6.99C553.87,775.66,545.04,862.2,383.21,868.21z"/>
		<path class="st2" d="M404.35,863.34c0,0,79.45-21.29,134.83-92.31C539.19,771.03,471.77,840.74,404.35,863.34z"/>
		<path class="st2" d="M237.91,771.03c0,0,79.78,34.68,112.75,89.55C350.65,860.58,311.42,813.94,237.91,771.03z"/>
		<path class="st7" d="M468.55,871.5l-28.5,140.37c-1.13,5.61-6.06,9.64-11.79,9.64H325.76c-4.16,0-7.91-2.13-10.07-5.45
			c-0.86-1.31-1.47-2.81-1.76-4.44l-25.33-140.38c-1.34-7.37,4.34-14.16,11.83-14.16h156.34c1.56,0,3.03,0.29,4.38,0.82
			C466.39,859.95,469.75,865.58,468.55,871.5z"/>
		<path class="st8" d="M468.55,871.5l-28.5,140.37c-1.13,5.61-6.06,9.64-11.79,9.64H325.76c-4.16,0-7.91-2.13-10.07-5.45
			c94.39-30.87,133.87-123.93,145.45-158.15C466.39,859.95,469.75,865.58,468.55,871.5z"/>
	</g>
</g>
<g id="MALE_2">
	<g>
		<g>
			<path class="st9" d="M658.57,655.54c0,0,6.43,39.03-1.98,49.88c-8.41,10.84-27.69,23.42-27.69,23.42l-5.93-77.07L658.57,655.54z"
				/>
			<path class="st7" d="M672.75,667.88l-10.77,0.38l-26.4,0.92c0,0-3-22.15-6.4-53.73c-6.9-64.15-15.45-167.23-3.74-202.75
				c0,0,14.11,4.04,25.95,45.85C665.46,508.24,672.75,667.88,672.75,667.88z"/>
			<path class="st8" d="M661.98,668.26l-26.4,0.92c0,0-3-22.15-6.4-53.73l2.01-165.84C631.19,449.61,652.01,648.38,661.98,668.26z"
				/>
		</g>
		<path class="st7" d="M639.55,605.79c0.06,5.21-4.14,9.45-9.35,9.45h-94.18c-1.54,0-3.01-0.38-4.3-1.05
			c-0.76-0.39-1.44-0.88-2.05-1.45l8.35-10.51l-13.87-12.47c-0.41-2.47-0.85-5.08-1.31-7.82c-4.73-27.65-12.32-67.8-18.8-102.07
			c15.81-21.45,26.33-42.68,17.38-64.04c-2.71-6.47-6.69-9.24-11.09-9.79c17.21-3.37,40.27-5.78,40.27-5.78l30.49,1.58l44.34,10.87
			C637.19,484.87,639.2,576.49,639.55,605.79z"/>
		<g>
			<path d="M502.81,301.57c-0.33-1.54-18.79-88.24,38.57-100.77s78.46,23.08,82.75,34.29c4.29,11.21,6.92,52.09-4.95,61.32
				C607.31,305.63,502.81,301.57,502.81,301.57z"/>
			<path class="st9" d="M581.1,401.83c-0.83,3.4-3.83,7.97-13.67,8.97c-16.15,1.65-16.81-14.51-16.81-14.51v-30h30.77l-0.11,31.65
				C581.27,397.94,581.62,399.65,581.1,401.83z"/>
			<path class="st10" d="M581.1,401.83c-8.81-4.39-22.77-16.42-30.49-24.15v-11.18c0.16-0.07,0.34-0.14,0.51-0.2h30.25l-0.11,31.65
				C581.27,397.94,581.62,399.65,581.1,401.83z"/>
			<path class="st9" d="M518.63,326.07c0,0,12.2,50.77,48.13,49.45c35.93-1.32,47.47-17.47,52.42-51.76s4.95-34.29,4.95-34.29
				s-25.71-15.82-41.21-42.53c0,0-21.64,33.67-56.7,52.53c0,0-16.48-19.56-23.41-10C495.88,299.04,494.56,320.8,518.63,326.07z"/>
			<ellipse cx="603.61" cy="308.51" rx="5.27" ry="9.07"/>
			<ellipse cx="563.39" cy="308.51" rx="5.27" ry="9.07"/>
			<path class="st11" d="M610.7,295.16c0,0-5.44-9.4-12.36,0"/>
			<path class="st11" d="M569.57,296.1c0,0-5.44-9.4-12.36,0"/>
			<path class="st11" d="M586.13,294.01l-0.82,23.57c0,0,3.3-1.65,5.27,1.15c1.98,2.8,2.47,11.87-4.45,12.36"/>
			<path class="st11" d="M566,342.56c0,0,3.64,14.51,15.39,13.85s16.95-13.85,16.95-13.85"/>
			<path class="st10" d="M504.38,300.45c0.23-3.45,3.62-5.77,6.95-4.82c3.69,1.05,8.36,3.24,8.95,7.58
				c0.99,7.3,2.64,20.66-1.32,16.45C515.71,316.21,503.8,308.97,504.38,300.45z"/>
		</g>
		<g>
			<path class="st12" d="M630.93,992.46c-0.03,0.76-0.65,1.34-1.4,1.32l-48.73-1.4c-0.75-0.02-1.34-0.63-1.33-1.38l3.41-303.84
				c0.01-1.23-1.49-1.85-2.34-0.96c-2.23,2.32-5.58,5.91-8.01,8.94c-3.81,4.75-55.75,289.17-59.61,310.3
				c-0.13,0.7-0.77,1.18-1.48,1.1l-50.11-5.2c-0.64-0.06-1.14-0.57-1.21-1.21c-3.23-28.68,43.42-256.21,62.66-348.14
				c4.17-19.93,7.05-33.48,7.85-37.25c0.14-0.63,0.69-1.07,1.33-1.07l103.1-0.66c0.01,0,0.01,0,0.02,0h0.01
				c0.7,0.01,1.26,0.52,1.34,1.21C641.82,665.64,631.7,969.65,630.93,992.46z"/>
			<path d="M468.18,1002.06c0,0-13.85,44.43-6.68,49.13c7.17,4.7,88.97,6.55,93.46,5.19c15.58-4.7-49.2-50.44-49.2-50.44
				L468.18,1002.06z"/>
			<path d="M585.26,992.29c0,0-13.85,44.43-6.68,49.13c7.17,4.7,88.97,6.55,93.46,5.19c15.58-4.7-47.94-52.98-47.94-52.98
				L585.26,992.29z"/>
			<path class="st13" d="M636.41,614.21c0,0-82.16,12.49-113.64,37.78c4.17-19.93,7.05-33.48,7.85-37.25
				c0.14-0.63,0.69-1.07,1.33-1.07l103.1-0.66c0.01,0,0.01,0,0.02,0h0.01L636.41,614.21z"/>
		</g>
		<g>
			<path class="st8" d="M504.05,479.86c-0.24-1.26-0.48-2.51-0.72-3.75c-6.39-33.82-11.52-61.09-11.41-63.42
				c0.06-1.19,2.16-2.37,5.54-3.51c3.31-1.11,7.84-2.18,12.88-3.16c4.4,0.55,8.38,3.32,11.09,9.79
				C530.38,437.19,519.86,458.41,504.05,479.86z"/>
			<path class="st7" d="M538.02,602.23l-18.78,23.62l-2.76,3.48c0,0-99.82-57.79-106.28-92.85
				c-1.85-16.27,67.38-113.03,67.38-113.03c0.19-0.95,9.71-10.74,19.7-14.16c7.32-2.51,14.88-1.6,19.2,8.73
				c10.23,24.39-4.94,48.61-24.39,73.18c-13.46,17-32.14,40.8-32.14,40.8L538.02,602.23z"/>
			<path class="st14" d="M538.86,621.15l-24.95-7.34c-2.37-0.7-3.72-3.18-3.02-5.55l0.63-2.14c0.7-2.37,3.18-3.72,5.55-3.02
				l24.95,7.34c2.37,0.7,3.72,3.18,3.02,5.55l-0.63,2.14C543.71,620.49,541.22,621.85,538.86,621.15z"/>
			<g>
				<path class="st14" d="M535.7,631.86l-24.95-7.34c-2.37-0.7-3.72-3.18-3.02-5.55l0.63-2.14c0.7-2.37,3.18-3.72,5.55-3.02
					l24.95,7.34c2.37,0.7,3.72,3.18,3.02,5.55l-0.63,2.14C540.56,631.2,538.07,632.56,535.7,631.86z"/>
				<path class="st14" d="M532.55,642.57l-24.95-7.34c-2.37-0.7-3.72-3.18-3.02-5.55l0.63-2.14c0.7-2.37,3.18-3.72,5.55-3.02
					l24.95,7.34c2.37,0.7,3.72,3.18,3.02,5.55l-0.63,2.14C537.4,641.92,534.92,643.27,532.55,642.57z"/>
				<path class="st14" d="M541.93,610.71l-24.95-7.34c-2.37-0.7-3.72-3.18-3.02-5.55l0.63-2.14c0.7-2.37,3.18-3.72,5.55-3.02
					l24.95,7.34c2.37,0.7,3.72,3.18,3.02,5.55l-0.63,2.14C546.78,610.05,544.29,611.41,541.93,610.71z"/>
			</g>
		</g>
	</g>
</g>
<g id="MALE1">
	<g>
		<g>
			<path class="st7" d="M799.18,557.83c-0.03,0.05-0.07,0.09-0.11,0.14c-14.25,19.15-93.52,21.7-102.57,21.93
				c-0.55,0.01-0.84,0.02-0.84,0.02l-3.29-37.25l69.56-7.58c0,0,7.91-68.9,15.82-94.61c7.91-25.72,24.72-25.1,24.72-25.1h1.65
				C820.94,431.48,814.02,537.39,799.18,557.83z"/>
			<path class="st8" d="M809.73,454.32l-10.65,103.65c-14.25,19.15-93.52,21.7-102.57,21.93c8.22-0.27,74.25-3.24,80.92-29.32
				c8.55-33.42,17.31-96.26,17.31-96.26H809.73z"/>
		</g>
		<g>
			<path class="st5" d="M696.74,527.18l1.82,60.1c0.03,1.06-0.76,1.96-1.82,2.06l-31.29,3.09c-1.03,0.1-1.97-0.59-2.17-1.6
				l-11.79-59.18L696.74,527.18z"/>
			<path class="st5" d="M695.71,516.76l-44.31,4.38l-0.89-9.01c-0.12-1.21,0.76-2.28,1.97-2.4l39.94-3.95
				c1.21-0.12,2.28,0.76,2.4,1.97L695.71,516.76z"/>
			<path class="st2" d="M696.74,527.18l1.82,60.1c0.03,1.06-0.76,1.96-1.82,2.06l-30.16,2.98c27.96-16.77,29.93-55.25,29.95-65.12
				L696.74,527.18z"/>
			<line class="st15" x1="651.38" y1="520.91" x2="695.68" y2="516.53"/>
			<line class="st15" x1="651.57" y1="532" x2="696.77" y2="527.53"/>
			<path class="st5" d="M698.44,527.01l-48.65,4.81c-1.21,0.12-2.28-0.76-2.4-1.97l-0.6-6.05c-0.12-1.21,0.76-2.28,1.97-2.4
				l48.65-4.81c1.21-0.12,2.28,0.76,2.4,1.97l0.6,6.05C700.52,525.82,699.64,526.89,698.44,527.01z"/>
		</g>
		<g>
			<path class="st14" d="M675.27,547.56l-25.88,2.56c-2.46,0.24-4.64-1.55-4.89-4.01l-0.22-2.22c-0.24-2.46,1.55-4.64,4.01-4.89
				l25.88-2.56c2.46-0.24,4.64,1.55,4.89,4.01l0.22,2.22C679.52,545.13,677.72,547.32,675.27,547.56z"/>
			<path class="st14" d="M705.68,541.62l-14.89,7.64c-2.2,1.13-4.89,0.26-6.01-1.93l-1.02-1.99c-1.13-2.2-0.26-4.89,1.93-6.01
				l14.89-7.64c2.19-1.13,4.89-0.26,6.01,1.93l1.02,1.99C708.74,537.8,707.87,540.49,705.68,541.62z"/>
			<path class="st14" d="M676.34,558.39l-25.88,2.56c-2.46,0.24-4.64-1.55-4.89-4.01l-0.22-2.22c-0.24-2.46,1.55-4.64,4.01-4.89
				l25.88-2.56c2.46-0.24,4.64,1.55,4.89,4.01l0.22,2.22C680.59,555.96,678.79,558.15,676.34,558.39z"/>
			<path class="st14" d="M677.44,569.5l-25.88,2.56c-2.46,0.24-4.64-1.55-4.89-4.01l-0.22-2.22c-0.24-2.46,1.55-4.64,4.01-4.89
				l25.88-2.56c2.46-0.24,4.64,1.55,4.89,4.01l0.22,2.22C681.68,567.07,679.89,569.26,677.44,569.5z"/>
			<path class="st14" d="M678.53,580.61l-25.88,2.56c-2.46,0.24-4.64-1.55-4.89-4.01l-0.22-2.22c-0.24-2.46,1.55-4.64,4.01-4.89
				l25.88-2.56c2.46-0.24,4.64,1.55,4.89,4.01l0.22,2.22C682.78,578.18,680.99,580.37,678.53,580.61z"/>
		</g>
		<g>
			<path class="st8" d="M833.63,397.94h34.45l0.29,17.43c0,0-25.59-3.71-26.09-3.71S833.63,397.94,833.63,397.94z"/>
			<g>
				<path d="M798.05,280.68h-10.28c-2.45,0-4.3-2.23-3.82-4.63c2.95-15.07,16.05-61.58,65-59.09c58.36,2.97,78.3,43.52,59.92,104.34
					l-33.21,21.26L798.05,280.68z"/>
				<rect x="838.12" y="377.09" class="st9" width="25.96" height="35.61"/>
				<path class="st10" d="M864.08,378.41v6.4c-5.88,7.41-13.48,13.12-23.53,19.47c-0.85,0.53-1.65-2.65-2.43-2.53v-24.67h19.64
					L864.08,378.41z"/>
				<path class="st9" d="M795.91,280.62l100.84,2.68l-0.19,40.4c0,0,16.25-18.04,19.61-7.89s-6.1,24.74-18.16,25.74
					c0,0,0.5,43.05-40.74,43.86c-46.88,0.92-58.1-10.21-59.95-52.31S795.91,280.62,795.91,280.62z"/>
				<ellipse cx="816.28" cy="317.01" rx="5.27" ry="9.07"/>
				<ellipse cx="856.5" cy="317.01" rx="5.27" ry="9.07"/>
				<path class="st11" d="M809.19,303.66c0,0,5.44-9.4,12.36,0"/>
				<path class="st11" d="M850.32,304.59c0,0,5.44-9.4,12.36,0"/>
				<path class="st11" d="M833.75,302.51l0.82,23.57c0,0-3.3-1.65-5.27,1.15c-1.98,2.8-2.47,11.87,4.45,12.36"/>
				<path class="st10" d="M820.4,350.13h41.37c0,0-1.65,20.27-20.69,20.77c-18.64,0.48-20.69-19.95-20.69-19.95"/>
				<path class="st10" d="M911.93,321.05c0.71-4.17-12.03,3.38-13.85,8.49c-1.81,5.11,0,8.9,3.63,6.76S910.52,329.28,911.93,321.05z
					"/>
			</g>
		</g>
		<g>
			<path d="M881.1,605.14l64.29,409.45l-46.98,3.96L846.57,689.2l-8.98-6.43l5.44,335.77h-49.94c0,0-17.02-374.34-6.28-413.41
				C797.53,566.07,881.1,605.14,881.1,605.14z"/>
			<path d="M838.08,1018.05c0,0,12.12,41.04,4.95,45.74c-7.17,4.7-88.97,6.55-93.46,5.19c-15.58-4.7,49.2-50.44,49.2-50.44
				L838.08,1018.05z"/>
			<path d="M942.08,1013.66c0,0,15.25,39.99,8.46,45.22c-6.79,5.24-88.2,13.4-92.78,12.39c-15.89-3.48,45.16-54.09,45.16-54.09
				L942.08,1013.66z"/>
		</g>
		<g>
			<path class="st7" d="M906.34,506.28c-1.27,6.03-2.6,12.07-3.95,17.97c-4.02,17.47-8.33,33.87-12.27,45.99
				c-1.65,5.09-2.61,10.37-2.9,15.71c-0.45,8.06-0.9,17.76-3.98,21.98c-4.71,6.43-65.69,11.79-96.1,1.66
				c-0.12-0.06-0.23-0.12-0.35-0.16c-8.33-4.09-9.42-6.16-1.13-52.51c8.41-46.98,8.66-137.22,13.6-140.44
				c4.95-3.22,32.64-11.62,32.64-11.62l41.29-1.48c0,0,37.63,10.38,43.67,19.04c0.58,0.83,0.91,2.54,1.03,5
				C918.51,440.22,913.29,473.26,906.34,506.28z"/>
			<path class="st8" d="M906.34,506.28c-1.27,6.03-2.6,12.07-3.95,17.97c-4.02,17.47-8.33,33.87-12.27,45.99
				c-1.65,5.09-2.61,10.37-2.9,15.71c-0.45,8.06-0.9,17.76-3.98,21.98c-4.71,6.43-65.69,11.79-96.1,1.66
				c-0.12-0.06-0.23-0.12-0.35-0.16c18.59-0.08,86.45-7.51,108.01-109.25C900.82,471.72,904.33,481.96,906.34,506.28z"/>
		</g>
		<g>
			<path class="st8" d="M902.39,524.26c-10.28-29.42-18.33-63.61-16.88-80.56c2.54-29.65,24.31-29.26,32.36-16.28
				C918.62,442.56,911.19,486,902.39,524.26z"/>
			<path class="st9" d="M1010,477.72c0,0,11.7-7.91,23.9-7.42c12.2,0.49,40.05,2.92,52.58-0.02c12.53-2.94,9.56,9.75-4.12,14.69
				s-56.54,17.31-67.58,12.03C1003.74,491.73,1010,477.72,1010,477.72z"/>
			<path class="st7" d="M942.59,513.74c0,0-8.72-37.07-20.62-83.05c-4.36-16.84-30.32-21.29-33.04,10.11
				c-2.72,31.4,29.67,125.85,44.26,124.62c13.29-1.13,77.7-51.93,89.04-60.95c1.02-0.81,1.4-2.18,0.94-3.4l-9.36-25.02
				c-0.65-1.75-2.73-2.49-4.34-1.54L942.59,513.74z"/>
		</g>
		<g>
			<polygon class="st16" points="833.63,397.94 851.1,412.78 835.61,427.45 826.05,406.02 			"/>
			<polygon class="st16" points="868.08,397.94 850.61,412.78 866.1,427.45 875.66,406.02 			"/>
		</g>
	</g>
</g>
</svg>
