<?xml version="1.0" encoding="utf-8"?>
<!-- Generator: Adobe Illustrator 25.2.0, SVG Export Plug-In . SVG Version: 6.00 Build 0)  -->
<svg version="1.1" xmlns="http://www.w3.org/2000/svg" xmlns:xlink="http://www.w3.org/1999/xlink" x="0px" y="0px"
	 viewBox="0 0 1600 1200" style="enable-background:new 0 0 1600 1200;" xml:space="preserve">
<style type="text/css">
	.st0{fill:#D7ECFF;}
	.st1{fill:#90AACB;}
	.st2{fill:#94CBED;}
	.st3{fill:none;stroke:#7898B5;stroke-width:2;stroke-linecap:round;stroke-miterlimit:10;}
	.st4{fill:#4D7199;}
	.st5{fill:#375A7A;}
	.st6{fill:#AA4437;}
	.st7{fill:#CEA980;}
	.st8{fill:#FFAD9F;}
	.st9{fill:#303030;}
	.st10{fill:none;stroke:#000000;stroke-width:2;stroke-linecap:round;stroke-miterlimit:10;}
	.st11{fill:#F9D5A7;}
	.st12{fill:#FEF1E6;}
	.st13{fill:none;stroke:#000000;stroke-linecap:round;stroke-miterlimit:10;}
	.st14{fill:#FFB085;}
	.st15{fill:#BC7A5C;}
</style>
<g id="BACKGROUND">
	<g>
		<path class="st0" d="M224.7,1052.15c0,0-133.3-62.07-29.13-157.41s102.4-45.02,187.14-308.08s79.45-404.3,315.14-450.2
			s262.17,286.89,418.42,350.45s564.17,243.42,268.45,561.21L224.7,1052.15z"/>
		<ellipse class="st1" cx="790.25" cy="1048.12" rx="594.47" ry="45.2"/>
	</g>
</g>
<g id="LEAVES">
	<g>
		<g>
			<path class="st2" d="M905.53,738.22c0,0-18.95,191.65-257.63,191.7C647.9,929.92,637.66,706.41,905.53,738.22z"/>
			<path class="st3" d="M905.37,739.56c0,0-205.27,133.59-255.43,188.18"/>
			<line class="st3" x1="829.77" y1="790.17" x2="811.62" y2="886.65"/>
			<line class="st3" x1="776.85" y1="826.98" x2="676.42" y2="821.87"/>
		</g>
		<g>
			<path class="st2" d="M878.77,671.42c0,0-123.85,147.48-320.87,12.75C557.9,684.18,675.65,493.92,878.77,671.42z"/>
			<path class="st3" d="M877.89,672.44c0,0-244.84-5.64-317.07,11.1"/>
			<line class="st3" x1="786.91" y1="671.52" x2="717.46" y2="740.9"/>
			<line class="st3" x1="722.45" y1="672.02" x2="642.44" y2="611.11"/>
		</g>
		<g>
			<path class="st2" d="M664.17,755.58c0,0-39.4,111.91-182.24,76.99C481.93,832.57,508.53,697.32,664.17,755.58z"/>
			<path class="st3" d="M663.88,756.36c0,0-142.39,49.89-180.4,75.21"/>
			<line class="st3" x1="611.23" y1="775.57" x2="586.24" y2="830.65"/>
			<line class="st3" x1="574.17" y1="789.85" x2="514.82" y2="772.09"/>
		</g>
		<g>
			<path class="st2" d="M656.81,294.47c0,0-116.41-22.92-102.37-169.29C554.45,125.18,692.12,132.08,656.81,294.47z"/>
			<path class="st3" d="M656,294.29c0,0-69.82-133.75-100.34-167.73"/>
			<line class="st3" x1="629.43" y1="244.95" x2="571.33" y2="228.13"/>
			<line class="st3" x1="609.97" y1="210.33" x2="619.02" y2="149.04"/>
		</g>
		<g>
			<path class="st2" d="M723.74,256.93c0,0-55.88-72.48,26.69-150.25C750.43,106.68,826.79,180.68,723.74,256.93z"/>
			<path class="st3" d="M723.36,256.42c0,0,27.51-113.09,27.08-148.32"/>
			<line class="st3" x1="733.03" y1="214.28" x2="707.88" y2="174.98"/>
			<line class="st3" x1="739.35" y1="184.3" x2="775.76" y2="153.35"/>
		</g>
		<g>
			<path class="st2" d="M747.01,570.82c0,0,40.58-229.2,328.21-207.16C1075.22,363.66,1066.87,633.96,747.01,570.82z"/>
			<path class="st3" d="M747.33,569.22c0,0,259.73-141.98,325.23-203.13"/>
			<line class="st3" x1="843.12" y1="515.23" x2="873.92" y2="400.65"/>
			<line class="st3" x1="910.3" y1="475.77" x2="1030.85" y2="491.22"/>
		</g>
		<g>
			<path class="st2" d="M777.34,467.2c0,0-97.05-166.35,96.25-306.36C873.6,160.84,1012.97,335.87,777.34,467.2z"/>
			<path class="st3" d="M776.69,466.03c0,0,87.92-228.58,96.53-302.22"/>
			<line class="st3" x1="808.24" y1="380.69" x2="766.36" y2="291.9"/>
			<line class="st3" x1="829.52" y1="319.84" x2="913.86" y2="265.08"/>
		</g>
	</g>
</g>
<g id="GEAR">
	<g>
		<path class="st4" d="M853.24,484.89l-9.09,39.73c-1.55,6.77-8.28,10.99-15.04,9.44l-30.03-6.87
			c-5.32,10.22-11.91,19.56-19.53,27.84l16.71,25.9c3.76,5.82,2.08,13.6-3.75,17.35l-34.24,22.11c-5.82,3.76-13.6,2.08-17.35-3.75
			l-16.71-25.9c-11.73,3.87-24.08,6.1-36.73,6.48l-6.87,30.03c-1.55,6.76-8.28,10.98-15.04,9.43l-39.73-9.09
			c-6.76-1.55-10.99-8.28-9.44-15.04l6.87-30.03c-10.22-5.32-19.56-11.91-27.84-19.53l-25.89,16.72c-5.83,3.75-13.6,2.09-17.36-3.75
			l-22.11-34.24c-3.76-5.82-2.08-13.6,3.75-17.35l25.9-16.71c-3.87-11.73-6.1-24.08-6.48-36.73l-30.03-6.87
			c-6.76-1.55-10.98-8.28-9.43-15.04l9.09-39.73c1.55-6.76,8.28-10.99,15.04-9.44l30.03,6.87c5.32-10.22,11.91-19.56,19.53-27.84
			l-16.72-25.89c-3.76-5.82-2.08-13.6,3.75-17.36l34.24-22.11c5.82-3.76,13.6-2.08,17.36,3.75l16.72,25.89
			c11.72-3.86,24.07-6.09,36.72-6.47l6.87-30.03c1.55-6.76,8.29-10.98,15.04-9.43l39.73,9.09c6.77,1.55,10.99,8.28,9.44,15.04
			l-6.87,30.03c10.22,5.32,19.56,11.91,27.84,19.53l25.9-16.71c5.82-3.76,13.59-2.08,17.35,3.75l22.11,34.24
			c3.76,5.82,2.08,13.6-3.75,17.36l-25.89,16.72c3.86,11.72,6.09,24.07,6.47,36.72l30.03,6.87
			C850.57,471.39,854.79,478.13,853.24,484.89z"/>
		<g>
			<path class="st1" d="M677.76,419.91l30.29,6.93c2.73,0.62,5.07,2.38,6.43,4.83l11.18,20.09c1.19,2.13,1.54,4.63,1,7.01
				l-7.06,30.84c-0.64,2.78-2.44,5.15-4.95,6.5l-17.18,9.23c-2.11,1.13-4.55,1.46-6.88,0.93l-30.86-7.06
				c-2.28-0.52-4.3-1.84-5.71-3.71l-11.96-15.99c-1.74-2.32-2.36-5.29-1.72-8.12l7.05-30.8c0.54-2.35,1.92-4.43,3.88-5.83
				l18.53-13.24C672.11,419.86,675,419.28,677.76,419.91z"/>
			<circle class="st5" cx="683.96" cy="463.03" r="27.07"/>
		</g>
	</g>
	<g>
		<path class="st4" d="M851.35,847.57l37.7,15.49c6.42,2.64,13.75-0.42,16.39-6.83l11.71-28.5c11.42,1.55,22.85,1.55,34.01,0.1
			l11.52,28.59c2.59,6.43,9.91,9.54,16.33,6.95l37.81-15.22c6.43-2.59,9.54-9.91,6.95-16.33l-11.52-28.59
			c9.93-7.35,18.87-16.15,26.48-26.27l28.5,11.71c6.41,2.63,13.74-0.43,16.38-6.85l15.49-37.7c2.63-6.41-0.42-13.75-6.84-16.39
			l-28.5-11.71c1.55-11.42,1.55-22.85,0.1-34.01l28.59-11.51c6.43-2.6,9.55-9.9,6.95-16.34l-15.22-37.81
			c-2.59-6.43-9.91-9.54-16.33-6.95l-28.59,11.52c-7.35-9.93-16.15-18.87-26.27-26.48l11.71-28.5c2.63-6.41-0.43-13.74-6.85-16.38
			l-37.7-15.49c-6.41-2.63-13.75,0.42-16.39,6.83l-11.71,28.5c-11.42-1.55-22.85-1.55-34.01-0.1l-11.51-28.59
			c-2.59-6.43-9.91-9.54-16.34-6.95l-37.81,15.22c-6.43,2.59-9.54,9.91-6.95,16.34l11.51,28.59c-9.91,7.34-18.86,16.14-26.47,26.26
			l-28.5-11.71c-6.41-2.63-13.75,0.44-16.38,6.85L770.11,653c-2.64,6.42,0.42,13.75,6.83,16.39l28.5,11.71
			c-1.55,11.42-1.55,22.85-0.1,34.01l-28.59,11.52c-6.43,2.59-9.54,9.9-6.95,16.33l15.22,37.81c2.59,6.43,9.91,9.54,16.34,6.95
			l28.59-11.51c7.34,9.91,16.14,18.86,26.26,26.47l-11.71,28.5C841.87,837.6,844.94,844.93,851.35,847.57z"/>
		<g>
			<path class="st1" d="M899.49,666.74l-11.81,28.74c-1.06,2.59-0.98,5.51,0.23,8.03l9.96,20.72c1.06,2.2,2.89,3.93,5.15,4.86
				l29.27,12.02c2.64,1.08,5.61,0.97,8.16-0.3l17.45-8.71c2.14-1.07,3.82-2.87,4.73-5.08l12.03-29.28c0.89-2.17,0.98-4.58,0.26-6.8
				l-6.16-18.99c-0.9-2.76-2.96-4.98-5.64-6.09l-29.22-12.01c-2.23-0.92-4.73-0.99-7-0.19l-21.51,7.5
				C902.71,662.09,900.57,664.12,899.49,666.74z"/>
			<circle class="st5" cx="931.14" cy="696.68" r="27.07"/>
		</g>
	</g>
</g>
<g id="MALE_2_INNER_HAND">
	<g>
		<path class="st6" d="M1231.22,676.83l-41.94,7.66c-10.19,1.86-19.93-5-21.61-15.22l-20.49-124.64l22.79-9.81l25.5,118.3
			l48.29-7.92L1231.22,676.83z"/>
		<path class="st7" d="M1205.49,644.4l6.26,33.11c0,0,66.1-9.36,69.03-18.74c2.93-9.38,0.84-26.72-8.9-29.29
			S1205.49,644.4,1205.49,644.4z"/>
	</g>
</g>
<g id="SPANNER">
	<path class="st5" d="M200.85,662.5c0,0-20.94,10.64-38.6-2.62c-29.06-21.81-75.36,15.39-74.5,31.56s37.12-5.9,48.21,4.03
		s22.1,50.74,14.83,56.72c-7.27,5.99-40.45-4.07-46.31,8.07c-5.86,12.14,67.62,38.38,87.09,12.45c8.85-8.51,7.49-41.61,20.9-51.29
		s355.98-180.5,366.47-183.96c16-5.27,31.23,12.77,57.71,18.21c19.56,4.02,93.16-30.16,90.84-52.75c-3.36-6.6-55.56,7.9-67.67,6.61
		c-12.11-1.29-38.53-60.04-22.66-77.27c6.15-2.55,62.77-4.98,61.37-9.99c-1.4-5.01-52.65-54.01-114.92-7.47
		c-12.96,9.45-21.7,53.6-28.58,64.36C549.61,487.65,200.85,662.5,200.85,662.5z"/>
	<path class="st5" d="M1372.75,417.1c0,0,20.77-10.97,20.13-33.04c-1.05-36.32,56.04-52.68,68.76-42.65
		c12.72,10.03-26.23,26.92-24.52,41.71s28.7,47.32,37.78,44.83c9.08-2.49,20-35.39,33.3-33.17c13.3,2.22-7.65,77.38-40.07,78.32
		c-12.05,2.32-38.31-17.88-53.96-12.51s-352.78,186.67-361.65,193.25c-13.53,10.03-7.59,32.88-18.41,57.65
		c-8,18.3-78.37,58.71-95.49,43.78c-3.46-6.55,38.5-40.83,44.43-51.47s-26.82-66.11-50.05-63.08c-5.63,3.55-40.27,48.4-43.56,44.36
		c-3.29-4.04-13.75-74.16,60.19-98.18c15.19-5.13,56.3,13.19,69.06,13.78C1028.75,601.13,1372.75,417.1,1372.75,417.1z"/>
</g>
<g id="MALE_2">
	<g>
		<path class="st8" d="M1142.35,522.24c-4.51,2.25-7.66,6.53-8.47,11.51c-0.99,6.06-1.53,13.61,1.62,14.75
			c5.36,1.94,35.75-3.26,39.06-15.66C1177.65,521.26,1172.31,507.28,1142.35,522.24z"/>
		<g>
			<g>
				<path class="st9" d="M1190.96,987.8c0,0,31.66,29.11,31.66,32.68s-22.47,26.04-49.02,35.23c-6.77,2.34-65.25,11.23-60.71-5.11
					c4.54-16.34,53.36-29.62,54.74-48.51C1169,983.21,1190.96,987.8,1190.96,987.8z"/>
				<path d="M884.91,989c0,0,9.7,35.08,6.12,40.45c-3.58,5.37-122.21,4.03-123.1,0c-0.9-4.03,73.08-52.24,73.08-52.24L884.91,989z"
					/>
				<path d="M1156.43,761.34c0,0-285.45,170.55-320.17,219.57l49.02,10.72L1191.66,793L1156.43,761.34z"/>
				<path class="st9" d="M1157.96,767.46c0,0-146.55,88.34-152.68,97.53c-6.13,9.19-20.94,45.45,155.23,148.09l35.23-20.94
					c0,0-133.28-101.11-130.72-108.77c2.55-7.66,138.89-30.13,147.06-77.11C1220.26,759.29,1157.96,767.46,1157.96,767.46z"/>
			</g>
			<g>
				<path d="M1291.75,532.21c0,0-13.28-6.27-12-10.36c1.28-4.09,44.94-15.06,59.49,2.04c14.55,17.11,40.09,54.48-9.45,76.65
					l-24.26-5.16L1291.75,532.21z"/>
				<path class="st8" d="M1316.77,602.53l-0.07,0.21l-2.85,8.39l-5.76,16.93c0,0-17.87,5.1-19.4,0c-0.46-1.53,0.04-5.08,0.98-9.3
					c1.24-5.67,3.26-12.55,4.76-17.37c1.1-3.57,1.91-6.01,1.91-6.01L1316.77,602.53z"/>
				<path class="st6" d="M1316.7,602.74l-2.85,8.39c-5.34,4.42-13.47,8.79-24.18,7.63c1.24-5.67,3.26-12.55,4.76-17.37
					C1302.72,601.86,1311.5,602.41,1316.7,602.74z"/>
				<path class="st8" d="M1289.71,530.53c0,0-14.3,16.85-21.45,27.06c0,0-7.66-7.66-10.21-4.09s3.57,13.28,3.57,13.28
					s-13.28,25.53-10.72,29.11c2.55,3.57,22.98,25.02,61.79,9.7c0,0,5.62,6.13,16.34-2.04s10.21-22.47-10.21-14.3
					c0,0,4.09-23.49,8.17-28.09L1289.71,530.53z"/>
				<ellipse transform="matrix(0.5646 -0.8254 0.8254 0.5646 94.4274 1305.0983)" cx="1284.25" cy="563.05" rx="7.45" ry="3.1"/>
				<path class="st10" d="M1285.24,550.7c0,0,9.83-3.62,8.81,6.87"/>
				<path class="st10" d="M1258.01,576.55c0,0,2.18,7.33,14.18,6.31"/>
				<path class="st6" d="M1319.28,595.38c0,0,9.4-8.51,11.95-4.26s-8.76,14.3-11.95,12.43
					C1316.09,601.68,1314.61,598.89,1319.28,595.38z"/>
			</g>
			<g>
				<path class="st11" d="M1233.03,779.72c-8.17,9.7-9.71,30.63-17.88,32.17c-8.17,1.53-56.68-23.49-65.36-40.85
					c-8.68-17.37,6.13-22.98,16.85-31.15c0.34-0.26,0.67-0.53,0.99-0.81c10.19-8.76,17.17-30.36,26.08-46.68
					c13.92-16.62,26.45-29.34,37.57-39.04c43.55-38,65.58-29.9,65.58-29.9C1340.77,676.57,1241.2,770.01,1233.03,779.72z"/>
				<path class="st7" d="M1302.66,668.39c0,0-110.87,80.41-135.03,70.7c10.19-8.76,17.17-30.36,26.08-46.68
					c13.92-16.62,26.45-29.34,37.57-39.04L1302.66,668.39z"/>
				<polygon class="st12" points="1284.43,618.95 1313.71,626.53 1306.6,642.93 1275.92,634.34 				"/>
			</g>
			<path class="st8" d="M1234.71,669.92c0,0-6.18-0.11-15.64-0.34c-29.86-0.7-92.37-2.56-95.95-5.8
				c-4.71-4.27-60.99-82.32-54.43-102c6.56-19.68,34.45-16.35,36.85-4.49c2.41,11.85-2.74,21.62-2.74,21.62s30.08,56.96,37,58.51
				c5.66,1.26,64.26,3.3,85.34,4c4.67,0.15,7.5,0.24,7.5,0.24L1234.71,669.92z"/>
			<path class="st6" d="M1234.71,669.92c0,0-6.18-0.11-15.64-0.34c2.72-9.29,4.92-21.28,6.07-28.16c4.67,0.15,7.5,0.24,7.5,0.24
				L1234.71,669.92z"/>
			<path class="st11" d="M1232.17,638.27l-0.95,33.68c0,0,66.58,4.97,71.44-3.56s6.53-25.92-2.44-30.51
				S1232.17,638.27,1232.17,638.27z"/>
		</g>
	</g>
</g>
<g id="MALE_1">
	<g>
		<g>
			<path d="M397.69,337.86c0,0-14.55-22.33-42.81-20.55c-28.26,1.78-49.28,39.18-44.06,60.76c6.17,25.51,42.31,41.55,42.31,41.55
				L397.69,337.86z"/>
			<polygon class="st8" points="369.82,434.64 347,435.68 346.71,418.38 346.64,413.87 357.11,403.49 357.69,402.92 370.29,413.52 
				370.17,418.82 370.06,423.43 			"/>
			<path class="st6" d="M370.06,423.43c-6.31-0.49-17.46-1.92-23.35-5.05l-0.07-4.51l10.47-10.38c3.87,4.62,9.27,11.01,13.06,15.33
				L370.06,423.43z"/>
			<path class="st8" d="M395.86,336.47c0,0,14.79,8.19,10.43,39.84c0,0,11.69,1.06,10.41,4.21c-1.28,3.16-10.66,10.01-10.66,10.01
				s1.98,26.87-1.83,29.01c-3.8,2.13-48.01,7.01-53.33-21.58c0,0-13.6,1.84-16.15-9.11c-2.55-10.95,6.44-13.19,20.75-4.09
				C355.49,384.76,383.47,367.08,395.86,336.47z"/>
			<ellipse transform="matrix(0.029 -0.9996 0.9996 0.029 8.5396 757.5964)" cx="394.2" cy="374.4" rx="7.09" ry="2.72"/>
			<path class="st13" d="M405.88,401.49c0,0-8.44,1.36-14.09-1.48"/>
			<path class="st13" d="M390.37,365.28c0,0,3.22-7.05,6.72-0.04"/>
			<path class="st6" d="M338.35,383.33c0,0,7.22-4.24,13.4,4.32C357.92,396.21,336.88,395.96,338.35,383.33z"/>
		</g>
		<g>
			<path d="M299.07,977.34c0,0-11.84,57.19-5.67,60.26c6.18,3.06,92.43,6.13,93.47,0c1.05-6.13-38.27-22.5-43.89-28.36
				c-5.62-5.85-9.7-39.56-9.7-39.56L299.07,977.34z"/>
			<path d="M436.94,985.51c0,0-11.84,57.19-5.67,60.26c6.18,3.06,92.43,6.13,93.47,0s-38.27-22.5-43.89-28.36
				c-5.62-5.85-9.7-39.56-9.7-39.56L436.94,985.51z"/>
			<path class="st14" d="M480.34,989.59l-53.1,4.08c0,0-30.64-297.19-33.28-320.68c-0.93-8.21-2.38-11.68-3.88-12.72
				c-2.79-1.93-5.74,4.55-5.74,4.55c-30.63,205.79-39.83,320.68-39.83,320.68h-51.06c-2.04-94.97,61.69-393.19,61.69-393.19
				s36.35-52.08,72.1-11.23C462.98,621.93,480.34,989.59,480.34,989.59z"/>
			<path class="st15" d="M390.08,660.27c-2.79-1.93-5.74,4.55-5.74,4.55c-30.63,205.79-39.83,320.68-39.83,320.68h-15.52
				c5.06-49.8,32.31-311.12,48.54-327.06C384.61,651.49,388.26,654.31,390.08,660.27z"/>
		</g>
		<g>
			<path class="st8" d="M587.86,556.75c-0.07,0.08-0.14,0.16-0.21,0.24c-2.99,3.43-7.79,7.11-13.26,9.98
				c-0.06,0.04-0.13,0.06-0.18,0.1c-8.93,4.64-19.56,7.09-26.76,2.78c-1.95-1.16-3.24-2.44-4.02-3.77
				c-0.11-0.19-0.22-0.38-0.31-0.57c-3.17-6.49,5.05-13.74,5.05-13.74s18.09-1.38,30.08-12.29
				C590.27,528.58,595.58,547.64,587.86,556.75z"/>
			<path class="st7" d="M363.41,600.48c0,0-43.28-11.74-44.36-18.89c-1.09-7.15-13.72-117.34,0-125.56
				C332.77,447.8,363.41,600.48,363.41,600.48z"/>
			<path class="st11" d="M438.13,589.93c-13.96,7.83-72.85,31.32-87.15,15.66c-14.29-15.66,1.17-16.68,4.16-26.21
				c2.99-9.54-38.4-78.64-41.53-112c0,0,3.82-22.81,41.53-35.07c30.42-9.88,47.6-10.46,55.07-7.28c-1.74,0.62-4.62,1.78-7.6,3.57
				c-0.01,0.01-0.02,0.01-0.04,0.02c-6.58,3.97-13.68,11.03-10.33,22.25c3.66,12.27,25.97,46.29,42.89,70.74
				c1.05,6.01,2.01,11.93,2.85,17.62C441.89,565.64,443.21,587.08,438.13,589.93z"/>
			<path class="st11" d="M557.28,548.4l-4.77,26.89c0,0-2.33-0.56-6.27-1.51c-21.08-5.12-88.32-21.66-91.77-25.38
				c-1.5-1.63-9.51-12.6-19.34-26.79c-16.92-24.45-39.23-58.47-42.89-70.74c-3.35-11.22,3.75-18.28,10.33-22.25
				c0.02-0.01,0.03-0.01,0.04-0.02c2.98-1.79,5.86-2.95,7.6-3.57c1.06-0.37,1.71-0.55,1.71-0.55c20.77,8.85,64,96,66.04,99.07
				C480,526.61,557.28,548.4,557.28,548.4z"/>
			<path class="st7" d="M440.76,562.02c-16.39-22.92-48.72-86.64-53.18-101.57c-4.73-15.86,8.94-29.6,14.99-31.83
				c-6.58,3.97-13.68,11.03-10.33,22.25c3.66,12.27,25.97,46.29,42.89,70.74C436.18,527.62,439.92,556.34,440.76,562.02z"/>
		</g>
	</g>
</g>
</svg>
