<svg xmlns="http://www.w3.org/2000/svg" width="75" viewBox="0 0 75 75" height="75" version="1.0"><defs><clipPath id="a"><path d="M 8.140625 8.140625 L 66.640625 8.140625 L 66.640625 66.640625 L 8.140625 66.640625 Z M 8.140625 8.140625"/></clipPath></defs><path fill="#FFF" d="M 37.5 0 C 16.789062 0 0 16.789062 0 37.5 C 0 58.210938 16.789062 75 37.5 75 C 58.210938 75 75 58.210938 75 37.5 C 75 16.789062 58.210938 0 37.5 0"/><g clip-path="url(#a)"><path fill="#8181AC" d="M 37.375 8.140625 C 21.214844 8.140625 8.140625 21.230469 8.140625 37.390625 C 8.140625 53.550781 21.214844 66.640625 37.375 66.640625 C 53.535156 66.640625 66.640625 53.550781 66.640625 37.390625 C 66.640625 21.230469 53.535156 8.140625 37.375 8.140625 Z M 57.632812 25.691406 L 49.003906 25.691406 C 48.050781 22.035156 46.722656 18.523438 44.964844 15.277344 C 50.347656 17.121094 54.824219 20.851562 57.632812 25.691406 Z M 37.390625 14.09375 C 39.832031 17.601562 41.734375 21.507812 42.976562 25.691406 L 31.804688 25.691406 C 33.046875 21.507812 34.949219 17.601562 37.390625 14.09375 Z M 14.75 43.242188 C 14.269531 41.367188 13.992188 39.410156 13.992188 37.390625 C 13.992188 35.371094 14.269531 33.414062 14.75 31.539062 L 24.625 31.539062 C 24.390625 33.457031 24.226562 35.402344 24.226562 37.390625 C 24.226562 39.378906 24.390625 41.324219 24.636719 43.242188 Z M 17.136719 49.089844 L 25.765625 49.089844 C 26.714844 52.746094 28.046875 56.257812 29.800781 59.519531 C 24.417969 57.675781 19.941406 53.933594 17.136719 49.089844 Z M 25.765625 25.691406 L 17.136719 25.691406 C 19.941406 20.851562 24.417969 17.105469 29.800781 15.261719 C 28.046875 18.523438 26.714844 22.035156 25.765625 25.691406 Z M 37.390625 60.6875 C 34.964844 57.179688 33.0625 53.273438 31.804688 49.089844 L 42.976562 49.089844 C 41.71875 53.273438 39.820312 57.179688 37.390625 60.6875 Z M 44.234375 43.242188 L 30.546875 43.242188 C 30.269531 41.324219 30.078125 39.378906 30.078125 37.390625 C 30.078125 35.402344 30.269531 33.457031 30.546875 31.539062 L 44.234375 31.539062 C 44.511719 33.457031 44.703125 35.402344 44.703125 37.390625 C 44.703125 39.378906 44.511719 41.324219 44.234375 43.242188 Z M 44.980469 59.503906 C 46.734375 56.242188 48.066406 52.746094 49.019531 49.089844 L 57.644531 49.089844 C 54.824219 53.933594 50.347656 57.660156 44.980469 59.503906 Z M 50.144531 43.242188 C 50.378906 41.324219 50.554688 39.378906 50.554688 37.390625 C 50.554688 35.402344 50.390625 33.457031 50.144531 31.539062 L 60.015625 31.539062 C 60.5 33.414062 60.789062 35.371094 60.789062 37.390625 C 60.789062 39.410156 60.511719 41.367188 60.015625 43.242188 Z M 50.144531 43.242188"/></g></svg>