<svg xmlns="http://www.w3.org/2000/svg" width="75" viewBox="0 0 75 75" height="75" version="1.0"><defs><clipPath id="a"><path d="M 15.941406 16 L 58.691406 16 L 58.691406 58.691406 L 15.941406 58.691406 Z M 15.941406 16"/></clipPath></defs><path fill="#BDD4FA" d="M 37.5 0 C 16.789062 0 0 16.789062 0 37.5 C 0 58.210938 16.789062 75 37.5 75 C 58.210938 75 75 58.210938 75 37.5 C 75 16.789062 58.210938 0 37.5 0"/><g clip-path="url(#a)"><path fill="#216FED" d="M 37.332031 16.015625 C 28.464844 16.015625 20.855469 21.460938 17.664062 29.191406 C 17.566406 29.417969 17.511719 29.65625 17.511719 29.90625 C 17.507812 30.15625 17.550781 30.394531 17.644531 30.625 C 17.738281 30.855469 17.871094 31.058594 18.046875 31.234375 C 18.222656 31.410156 18.425781 31.546875 18.65625 31.640625 C 18.882812 31.738281 19.125 31.785156 19.371094 31.78125 C 19.621094 31.78125 19.859375 31.730469 20.089844 31.632812 C 20.316406 31.535156 20.519531 31.398438 20.691406 31.21875 C 20.863281 31.039062 20.996094 30.835938 21.085938 30.601562 C 23.71875 24.21875 29.980469 19.71875 37.332031 19.71875 C 47.0625 19.71875 54.914062 27.566406 54.914062 37.296875 C 54.914062 47.03125 47.0625 54.878906 37.332031 54.878906 C 29.980469 54.878906 23.71875 50.378906 21.085938 43.996094 C 20.996094 43.765625 20.863281 43.558594 20.691406 43.378906 C 20.519531 43.203125 20.316406 43.0625 20.089844 42.964844 C 19.859375 42.867188 19.621094 42.816406 19.371094 42.816406 C 19.125 42.816406 18.882812 42.863281 18.65625 42.957031 C 18.425781 43.050781 18.222656 43.1875 18.046875 43.363281 C 17.871094 43.539062 17.738281 43.742188 17.644531 43.972656 C 17.550781 44.203125 17.507812 44.445312 17.511719 44.691406 C 17.511719 44.941406 17.566406 45.179688 17.664062 45.40625 C 20.855469 53.136719 28.464844 58.582031 37.332031 58.582031 C 49.0625 58.582031 58.613281 49.03125 58.613281 37.296875 C 58.613281 25.566406 49.0625 16.015625 37.332031 16.015625 Z M 39.132812 28.953125 C 38.753906 28.953125 38.410156 29.058594 38.097656 29.269531 C 37.785156 29.476562 37.558594 29.757812 37.417969 30.105469 C 37.273438 30.457031 37.242188 30.816406 37.320312 31.183594 C 37.398438 31.550781 37.570312 31.867188 37.839844 32.128906 L 41.160156 35.449219 L 17.867188 35.449219 C 17.617188 35.445312 17.378906 35.488281 17.152344 35.582031 C 16.921875 35.671875 16.71875 35.804688 16.542969 35.980469 C 16.363281 36.15625 16.230469 36.355469 16.132812 36.585938 C 16.039062 36.8125 15.988281 37.050781 15.988281 37.296875 C 15.988281 37.546875 16.039062 37.785156 16.132812 38.011719 C 16.230469 38.242188 16.363281 38.441406 16.542969 38.617188 C 16.71875 38.789062 16.921875 38.921875 17.152344 39.015625 C 17.378906 39.109375 17.617188 39.152344 17.867188 39.148438 L 41.160156 39.148438 L 37.839844 42.46875 C 37.660156 42.640625 37.523438 42.839844 37.421875 43.066406 C 37.324219 43.296875 37.273438 43.535156 37.273438 43.785156 C 37.269531 44.03125 37.316406 44.273438 37.410156 44.503906 C 37.503906 44.730469 37.636719 44.933594 37.8125 45.109375 C 37.988281 45.285156 38.191406 45.421875 38.421875 45.515625 C 38.652344 45.609375 38.894531 45.65625 39.140625 45.652344 C 39.390625 45.652344 39.628906 45.601562 39.855469 45.5 C 40.085938 45.402344 40.285156 45.261719 40.457031 45.085938 L 46.933594 38.605469 C 47.109375 38.433594 47.242188 38.234375 47.335938 38.007812 C 47.429688 37.78125 47.476562 37.542969 47.476562 37.296875 C 47.476562 37.054688 47.429688 36.816406 47.335938 36.589844 C 47.242188 36.363281 47.109375 36.164062 46.933594 35.988281 L 40.457031 29.511719 C 40.09375 29.140625 39.652344 28.953125 39.132812 28.953125 Z M 39.132812 28.953125"/></g></svg>