<svg xmlns="http://www.w3.org/2000/svg" xmlns:xlink="http://www.w3.org/1999/xlink" width="75" zoomAndPan="magnify" viewBox="0 0 75 74.999997" height="74.999997" preserveAspectRatio="xMidYMid meet" version="1.0"><path fill="rgb(100%, 100%, 100%)" d="M 42.703125 38.097656 L 73.425781 7.375 C 74.972656 5.828125 74.972656 3.320312 73.425781 1.777344 C 71.878906 0.230469 69.375 0.230469 67.828125 1.777344 L 37.105469 32.503906 L 7.167969 2.566406 C 5.621094 1.019531 3.117188 1.019531 1.570312 2.566406 C 0.0234375 4.109375 0.0234375 6.617188 1.570312 8.160156 L 31.507812 38.097656 L 2.355469 67.25 C 0.8125 68.796875 0.8125 71.304688 2.355469 72.847656 C 3.128906 73.621094 4.144531 74.007812 5.15625 74.007812 C 6.167969 74.007812 7.179688 73.621094 7.953125 72.847656 L 37.101562 43.699219 L 67.039062 73.632812 C 67.816406 74.40625 68.828125 74.792969 69.839844 74.792969 C 70.851562 74.792969 71.867188 74.40625 72.640625 73.632812 C 74.183594 72.089844 74.183594 69.582031 72.640625 68.039062 Z M 42.703125 38.097656 " fill-opacity="1" fill-rule="nonzero"/></svg>