<svg xmlns="http://www.w3.org/2000/svg" width="75" viewBox="0 0 75 75" height="75" version="1.0"><defs><clipPath id="a"><path d="M 19.808594 21.515625 L 55.058594 21.515625 L 55.058594 53.765625 L 19.808594 53.765625 Z M 19.808594 21.515625"/></clipPath></defs><path fill="#D9E9DF" d="M 37.5 0 C 16.789062 0 0 16.789062 0 37.5 C 0 58.210938 16.789062 75 37.5 75 C 58.210938 75 75 58.210938 75 37.5 C 75 16.789062 58.210938 0 37.5 0"/><g clip-path="url(#a)"><path fill="#49A847" d="M 32.0625 52.988281 C 33.742188 53.472656 35.5625 53.765625 37.433594 53.765625 C 37.480469 53.765625 37.480469 53.765625 37.53125 53.765625 C 40.695312 53.765625 43.671875 52.9375 46.261719 51.53125 C 46.308594 51.53125 46.308594 51.480469 46.355469 51.480469 C 47.507812 50.851562 48.5625 50.121094 49.523438 49.246094 C 49.570312 49.199219 49.570312 49.199219 49.617188 49.148438 C 52.976562 46.140625 55.039062 41.914062 55.039062 37.25 C 55.039062 35.550781 54.75 33.851562 54.222656 32.246094 C 54.222656 32.199219 54.175781 32.152344 54.175781 32.101562 C 52.402344 26.03125 45.589844 21.515625 37.433594 21.515625 C 29.375 21.515625 22.613281 25.984375 20.742188 31.957031 C 20.742188 31.957031 20.742188 32.003906 20.742188 32.003906 C 20.117188 33.703125 19.828125 35.453125 19.828125 37.25 C 19.828125 44.632812 24.960938 50.898438 32.0625 52.988281 Z M 49.8125 44.683594 C 51.011719 43.660156 52.015625 42.542969 52.832031 41.28125 C 52.257812 43.273438 51.203125 45.117188 49.8125 46.671875 Z M 46.789062 46.722656 C 47.269531 46.480469 47.75 46.1875 48.179688 45.894531 L 48.179688 48.277344 C 47.75 48.664062 47.269531 49.003906 46.789062 49.34375 Z M 36.714844 52.113281 C 35.515625 52.0625 34.316406 51.871094 33.164062 51.578125 L 33.164062 48.46875 C 34.316406 48.714844 35.46875 48.859375 36.714844 48.859375 Z M 45.15625 50.265625 C 43.09375 51.335938 40.792969 51.96875 38.347656 52.113281 L 38.347656 48.90625 C 40.792969 48.808594 43.09375 48.277344 45.15625 47.449219 Z M 32.636719 36.425781 L 34.269531 36.425781 L 34.269531 37.152344 C 34.269531 37.980469 35.179688 38.609375 36.234375 38.609375 L 38.488281 38.609375 C 39.546875 38.609375 40.457031 37.929688 40.457031 37.152344 L 40.457031 37.007812 C 40.457031 36.765625 40.121094 36.375 39.351562 35.988281 L 37.867188 35.695312 L 34.941406 35.113281 L 34.699219 35.066406 L 34.605469 35.015625 C 33.261719 34.335938 32.589844 33.460938 32.589844 32.492188 L 32.589844 32.34375 C 32.589844 30.644531 34.21875 29.238281 36.1875 29.238281 L 36.667969 29.238281 L 36.667969 27.632812 L 38.296875 27.632812 L 38.296875 29.238281 L 38.441406 29.238281 C 40.410156 29.238281 42.039062 30.644531 42.039062 32.34375 L 40.457031 32.34375 C 40.457031 31.566406 39.546875 30.886719 38.488281 30.886719 L 36.234375 30.886719 C 35.179688 30.886719 34.269531 31.566406 34.269531 32.34375 L 34.269531 32.492188 C 34.269531 32.683594 34.554688 33.074219 35.324219 33.511719 L 39.785156 34.386719 L 39.929688 34.433594 L 40.023438 34.480469 C 41.75 35.355469 42.085938 36.375 42.085938 37.054688 L 42.085938 37.203125 C 42.085938 38.902344 40.457031 40.308594 38.488281 40.308594 L 38.347656 40.308594 L 38.347656 42.058594 L 36.714844 42.058594 L 36.714844 40.308594 L 36.234375 40.308594 C 34.269531 40.308594 32.636719 38.902344 32.636719 37.203125 Z M 28.464844 46.914062 C 29.421875 47.402344 30.480469 47.789062 31.535156 48.082031 L 31.535156 51.09375 C 30.429688 50.703125 29.421875 50.171875 28.464844 49.585938 Z M 26.832031 45.992188 L 26.832031 48.421875 C 24.53125 46.527344 22.851562 44.050781 21.988281 41.28125 C 23.140625 43.128906 24.816406 44.730469 26.832031 45.992188 Z M 26.832031 45.992188"/></g></svg>