<svg xmlns="http://www.w3.org/2000/svg" width="75" viewBox="0 0 75 75" height="75" version="1.0"><defs><clipPath id="a"><path d="M 18.78125 14.644531 L 56.28125 14.644531 L 56.28125 58.136719 L 18.78125 58.136719 Z M 18.78125 14.644531"/></clipPath></defs><path fill="#B7B7E8" d="M 37.5 0 C 16.789062 0 0 16.789062 0 37.5 C 0 58.210938 16.789062 75 37.5 75 C 58.210938 75 75 58.210938 75 37.5 C 75 16.789062 58.210938 0 37.5 0"/><g clip-path="url(#a)"><path fill="#282876" d="M 19.351562 58.136719 L 18.785156 57.296875 C 21.277344 51.261719 36.40625 14.644531 36.40625 14.644531 L 37.578125 14.644531 C 37.578125 14.644531 53.617188 51.210938 56.28125 57.285156 L 55.71875 58.136719 C 50.453125 58.136719 24.5625 58.136719 19.351562 58.136719 Z M 48.882812 55.304688 L 22.554688 55.304688 L 35.300781 24.304688 L 48.882812 55.304688" fill-rule="evenodd"/></g></svg>