<svg xmlns="http://www.w3.org/2000/svg" width="75" viewBox="0 0 75 75" height="75" version="1.0"><defs><clipPath id="a"><path d="M 18.453125 18.453125 L 46 18.453125 L 46 46 L 18.453125 46 Z M 18.453125 18.453125"/></clipPath><clipPath id="b"><path d="M 42 42 L 56.703125 42 L 56.703125 56.703125 L 42 56.703125 Z M 42 42"/></clipPath></defs><path fill="#BDD4FA" d="M 37.5 0 C 16.789062 0 0 16.789062 0 37.5 C 0 58.210938 16.789062 75 37.5 75 C 58.210938 75 75 58.210938 75 37.5 C 75 16.789062 58.210938 0 37.5 0"/><g clip-path="url(#a)"><path fill="#216FED" d="M 31.847656 22.855469 C 36.8125 22.855469 40.839844 26.878906 40.839844 31.839844 C 40.839844 36.808594 36.8125 40.835938 31.847656 40.835938 C 26.886719 40.835938 22.859375 36.808594 22.859375 31.839844 C 22.859375 26.878906 26.886719 22.855469 31.847656 22.855469 M 31.847656 18.453125 C 24.464844 18.453125 18.457031 24.460938 18.457031 31.839844 C 18.457031 39.226562 24.464844 45.234375 31.847656 45.234375 C 39.234375 45.234375 45.238281 39.226562 45.238281 31.839844 C 45.238281 24.460938 39.234375 18.453125 31.847656 18.453125 Z M 31.847656 18.453125"/></g><g clip-path="url(#b)"><path fill="#216FED" d="M 52.667969 56.699219 C 51.730469 56.699219 50.792969 56.339844 50.074219 55.625 L 43.5625 49.109375 C 42.128906 47.679688 42.128906 45.359375 43.5625 43.921875 C 44.996094 42.488281 47.316406 42.488281 48.75 43.921875 L 55.265625 50.4375 C 56.699219 51.871094 56.699219 54.191406 55.265625 55.625 C 54.546875 56.339844 53.609375 56.699219 52.667969 56.699219 Z M 52.667969 56.699219"/></g><path fill="#216FED" d="M 42.207031 39.457031 L 45.785156 43.035156 L 42.675781 46.148438 L 39.09375 42.574219 Z M 42.207031 39.457031"/></svg>