<svg xmlns="http://www.w3.org/2000/svg" width="75" viewBox="0 0 75 75" height="75" version="1.0"><defs><clipPath id="a"><path d="M 22.386719 42 L 52.386719 42 L 52.386719 58.511719 L 22.386719 58.511719 Z M 22.386719 42"/></clipPath></defs><path fill="#F6E0DF" d="M 37.5 0 C 16.789062 0 0 16.789062 0 37.5 C 0 58.210938 16.789062 75 37.5 75 C 58.210938 75 75 58.210938 75 37.5 C 75 16.789062 58.210938 0 37.5 0"/><path fill="#FF6A39" d="M 47.1875 26.421875 C 47.296875 27.074219 47.339844 27.730469 47.320312 28.390625 C 47.300781 29.054688 47.214844 29.707031 47.070312 30.351562 C 46.921875 30.992188 46.714844 31.617188 46.445312 32.21875 C 46.175781 32.824219 45.847656 33.394531 45.46875 33.933594 C 45.085938 34.46875 44.660156 34.964844 44.179688 35.417969 C 43.703125 35.871094 43.1875 36.273438 42.628906 36.625 C 42.074219 36.972656 41.488281 37.265625 40.875 37.5 C 40.261719 37.734375 39.632812 37.90625 38.984375 38.015625 C 38.339844 38.125 37.6875 38.171875 37.03125 38.148438 C 36.375 38.128906 35.730469 38.046875 35.089844 37.898438 C 34.453125 37.75 33.832031 37.539062 33.234375 37.265625 C 32.636719 36.996094 32.070312 36.667969 31.535156 36.285156 C 31.003906 35.902344 30.511719 35.46875 30.0625 34.988281 C 29.613281 34.503906 29.214844 33.984375 28.867188 33.421875 C 28.519531 32.863281 28.226562 32.273438 27.996094 31.65625 C 27.761719 31.039062 27.59375 30.402344 27.484375 29.75 C 27.375 29.097656 27.332031 28.441406 27.351562 27.78125 C 27.371094 27.121094 27.457031 26.46875 27.601562 25.824219 C 27.75 25.179688 27.957031 24.554688 28.226562 23.953125 C 28.496094 23.351562 28.820312 22.78125 29.203125 22.242188 C 29.582031 21.703125 30.011719 21.207031 30.492188 20.753906 C 30.96875 20.300781 31.484375 19.898438 32.042969 19.550781 C 32.597656 19.199219 33.183594 18.90625 33.796875 18.671875 C 34.410156 18.4375 35.039062 18.265625 35.683594 18.15625 C 36.332031 18.046875 36.984375 18.003906 37.640625 18.023438 C 38.292969 18.042969 38.941406 18.128906 39.582031 18.277344 C 40.21875 18.425781 40.839844 18.632812 41.4375 18.90625 C 42.035156 19.175781 42.601562 19.503906 43.132812 19.890625 C 43.667969 20.273438 44.160156 20.707031 44.609375 21.1875 C 45.058594 21.667969 45.457031 22.1875 45.804688 22.75 C 46.152344 23.308594 46.441406 23.898438 46.675781 24.519531 C 46.910156 25.136719 47.078125 25.769531 47.1875 26.421875 Z M 47.1875 26.421875"/><g clip-path="url(#a)"><path fill="#FF6A39" d="M 23.882812 53.390625 C 25.753906 55.03125 27.851562 56.289062 30.179688 57.164062 C 32.503906 58.039062 34.90625 58.472656 37.386719 58.46875 C 39.871094 58.472656 42.273438 58.039062 44.597656 57.164062 C 46.921875 56.289062 49.023438 55.03125 50.894531 53.390625 C 51.121094 53.183594 51.328125 52.960938 51.507812 52.710938 C 51.691406 52.464844 51.84375 52.199219 51.96875 51.921875 C 52.09375 51.640625 52.1875 51.347656 52.253906 51.046875 C 52.316406 50.746094 52.347656 50.445312 52.347656 50.136719 C 52.347656 49.828125 52.316406 49.523438 52.253906 49.222656 C 52.1875 48.921875 52.09375 48.632812 51.96875 48.351562 C 51.84375 48.070312 51.691406 47.808594 51.507812 47.558594 C 51.328125 47.3125 51.121094 47.085938 50.894531 46.882812 C 49.421875 45.597656 47.796875 44.550781 46.023438 43.738281 C 44.246094 42.925781 42.394531 42.386719 40.464844 42.113281 C 40.347656 42.097656 40.230469 42.097656 40.117188 42.109375 C 40 42.125 39.886719 42.152344 39.777344 42.191406 C 39.667969 42.234375 39.5625 42.289062 39.464844 42.355469 C 39.371094 42.421875 39.28125 42.5 39.203125 42.589844 C 39.125 42.675781 39.058594 42.773438 39.003906 42.878906 C 38.949219 42.984375 38.910156 43.09375 38.882812 43.207031 C 38.855469 43.324219 38.839844 43.441406 38.839844 43.558594 C 38.839844 43.675781 38.855469 43.792969 38.886719 43.90625 C 39.558594 46.625 40.738281 48.242188 41.238281 50.269531 C 41.3125 50.570312 41.308594 50.871094 41.226562 51.171875 C 41.144531 51.46875 40.992188 51.730469 40.773438 51.945312 L 39.109375 53.625 C 38.875 53.855469 38.605469 54.035156 38.304688 54.160156 C 38 54.289062 37.683594 54.351562 37.355469 54.351562 C 37.027344 54.351562 36.710938 54.289062 36.40625 54.160156 C 36.101562 54.035156 35.832031 53.855469 35.601562 53.625 L 33.9375 51.945312 C 33.71875 51.726562 33.570312 51.46875 33.484375 51.171875 C 33.402344 50.871094 33.398438 50.570312 33.472656 50.269531 L 35.816406 43.933594 C 35.847656 43.816406 35.859375 43.699219 35.863281 43.582031 C 35.863281 43.464844 35.851562 43.347656 35.824219 43.230469 C 35.796875 43.113281 35.753906 43.003906 35.699219 42.898438 C 35.644531 42.792969 35.578125 42.695312 35.5 42.609375 C 35.421875 42.519531 35.335938 42.441406 35.238281 42.375 C 35.140625 42.304688 35.039062 42.25 34.929688 42.210938 C 34.816406 42.167969 34.703125 42.140625 34.585938 42.128906 C 34.46875 42.113281 34.351562 42.113281 34.234375 42.128906 C 32.308594 42.402344 30.457031 42.945312 28.6875 43.753906 C 26.914062 44.566406 25.292969 45.617188 23.824219 46.898438 C 23.597656 47.105469 23.394531 47.332031 23.21875 47.582031 C 23.039062 47.828125 22.890625 48.09375 22.765625 48.375 C 22.644531 48.65625 22.550781 48.945312 22.492188 49.246094 C 22.429688 49.546875 22.402344 49.851562 22.402344 50.15625 C 22.40625 50.464844 22.441406 50.765625 22.507812 51.066406 C 22.574219 51.367188 22.671875 51.65625 22.796875 51.933594 C 22.925781 52.210938 23.082031 52.472656 23.261719 52.71875 C 23.445312 52.964844 23.652344 53.1875 23.882812 53.390625 Z M 23.882812 53.390625"/></g></svg>