<svg xmlns="http://www.w3.org/2000/svg" xmlns:xlink="http://www.w3.org/1999/xlink" width="75" zoomAndPan="magnify" viewBox="0 0 75 74.999997" height="74.999997" preserveAspectRatio="xMidYMid meet" version="1.0"><defs><clipPath id="id1"><path d="M 1 2 L 74 2 L 74 73.839844 L 1 73.839844 Z M 1 2 " clip-rule="nonzero"/></clipPath></defs><g clip-path="url(#id1)"><path fill="rgb(100%, 79.998779%, 30.198669%)" d="M 5.527344 73.582031 C 1.691406 73.582031 -0.00390625 70.796875 1.765625 67.394531 L 34.285156 4.828125 C 36.050781 1.425781 38.945312 1.425781 40.714844 4.828125 L 73.234375 67.394531 C 75.003906 70.796875 73.308594 73.582031 69.472656 73.582031 Z M 5.527344 73.582031 " fill-opacity="1" fill-rule="nonzero"/></g><path fill="rgb(13.729858%, 12.159729%, 12.548828%)" d="M 32.464844 60.996094 C 32.464844 58.21875 34.726562 55.960938 37.503906 55.960938 C 40.28125 55.960938 42.542969 58.21875 42.542969 60.996094 C 42.542969 63.773438 40.277344 66.03125 37.503906 66.03125 C 34.726562 66.03125 32.464844 63.773438 32.464844 60.996094 Z M 32.851562 22.914062 C 32.851562 20.203125 34.855469 18.527344 37.503906 18.527344 C 40.085938 18.527344 42.152344 20.269531 42.152344 22.914062 L 42.152344 47.765625 C 42.152344 50.410156 40.085938 52.152344 37.503906 52.152344 C 34.855469 52.152344 32.851562 50.472656 32.851562 47.765625 Z M 32.851562 22.914062 " fill-opacity="1" fill-rule="nonzero"/></svg>