<svg xmlns="http://www.w3.org/2000/svg" xmlns:xlink="http://www.w3.org/1999/xlink" width="75" zoomAndPan="magnify" viewBox="0 0 75 74.999997" height="74.999997" preserveAspectRatio="xMidYMid meet" version="1.0"><path fill="rgb(100%, 41.569519%, 22.349548%)" d="M 16.429688 55.078125 L 13.472656 55.078125 L 13.472656 19.921875 L 16.429688 19.921875 L 16.429688 55.078125 " fill-opacity="1" fill-rule="nonzero"/><path fill="rgb(100%, 41.569519%, 22.349548%)" d="M 20.453125 55.078125 L 19.46875 55.078125 L 19.46875 19.921875 L 20.453125 19.921875 L 20.453125 55.078125 " fill-opacity="1" fill-rule="nonzero"/><path fill="rgb(100%, 41.569519%, 22.349548%)" d="M 25.957031 55.078125 L 23.988281 55.078125 L 23.988281 19.921875 L 25.957031 19.921875 L 25.957031 55.078125 " fill-opacity="1" fill-rule="nonzero"/><path fill="rgb(100%, 41.569519%, 22.349548%)" d="M 30.96875 55.078125 L 28.996094 55.078125 L 28.996094 19.921875 L 30.96875 19.921875 L 30.96875 55.078125 " fill-opacity="1" fill-rule="nonzero"/><path fill="rgb(100%, 41.569519%, 22.349548%)" d="M 36.964844 55.078125 L 33.023438 55.078125 L 33.023438 19.921875 L 36.964844 19.921875 L 36.964844 55.078125 " fill-opacity="1" fill-rule="nonzero"/><path fill="rgb(100%, 41.569519%, 22.349548%)" d="M 40.5 55.078125 L 39.511719 55.078125 L 39.511719 19.921875 L 40.5 19.921875 L 40.5 55.078125 " fill-opacity="1" fill-rule="nonzero"/><path fill="rgb(100%, 41.569519%, 22.349548%)" d="M 46 55.078125 L 44.03125 55.078125 L 44.03125 19.921875 L 46 19.921875 L 46 55.078125 " fill-opacity="1" fill-rule="nonzero"/><path fill="rgb(100%, 41.569519%, 22.349548%)" d="M 50.398438 55.078125 L 49.65625 55.078125 L 49.65625 19.921875 L 50.398438 19.921875 L 50.398438 55.078125 " fill-opacity="1" fill-rule="nonzero"/><path fill="rgb(100%, 41.569519%, 22.349548%)" d="M 56.023438 55.078125 L 54.050781 55.078125 L 54.050781 19.921875 L 56.023438 19.921875 L 56.023438 55.078125 " fill-opacity="1" fill-rule="nonzero"/><path fill="rgb(100%, 41.569519%, 22.349548%)" d="M 61.527344 55.078125 L 58.570312 55.078125 L 58.570312 19.921875 L 61.527344 19.921875 L 61.527344 55.078125 " fill-opacity="1" fill-rule="nonzero"/><path fill="rgb(100%, 41.569519%, 22.349548%)" d="M 75 15.257812 L 70.070312 15.257812 L 70.070312 4.929688 L 59.742188 4.929688 L 59.742188 0 L 75 0 L 75 15.257812 " fill-opacity="1" fill-rule="nonzero"/><path fill="rgb(100%, 41.569519%, 22.349548%)" d="M 4.929688 15.257812 L 0 15.257812 L 0 0 L 15.257812 0 L 15.257812 4.929688 L 4.929688 4.929688 L 4.929688 15.257812 " fill-opacity="1" fill-rule="nonzero"/><path fill="rgb(100%, 41.569519%, 22.349548%)" d="M 15.257812 75 L 0 75 L 0 59.742188 L 4.929688 59.742188 L 4.929688 70.070312 L 15.257812 70.070312 L 15.257812 75 " fill-opacity="1" fill-rule="nonzero"/><path fill="rgb(100%, 41.569519%, 22.349548%)" d="M 75 75 L 59.742188 75 L 59.742188 70.070312 L 70.070312 70.070312 L 70.070312 59.742188 L 75 59.742188 L 75 75 " fill-opacity="1" fill-rule="nonzero"/></svg>